<svg width="254" height="91" viewBox="0 0 254 91" fill="none" xmlns="http://www.w3.org/2000/svg">
<path d="M52.5474 70.8992C52.4932 65.6417 49.4851 63.555 47.4255 62.742C46.2331 62.2542 44.9052 62.2542 43.6856 62.6607C38.5366 64.3951 38.2114 69.6526 38.2114 69.6526C37.3442 73.9344 41.2466 77.4574 41.2466 77.4574C36.477 81.7393 28.6721 86.1024 28.6721 86.1024L31.5989 90.9263C39.4038 87.4032 45.5556 81.2786 45.5556 81.2786C47.7778 85.1539 59.7832 90.8992 59.7832 90.8992L61.7344 85.1539C55.6911 82.9046 49.729 77.1593 49.729 77.1593C51.7615 75.6959 52.5474 70.8992 52.5474 70.8992ZM45.4201 73.7718C45.4201 73.7718 43.523 71.4412 43.7669 69.7339C43.7669 69.7339 43.7669 68.0807 45.5285 68.0807C45.5285 68.0807 46.8564 68.1349 46.8835 69.6797C46.8835 69.6797 46.8022 72.0645 45.4201 73.7718Z" fill="white"/>
<path d="M37.832 20.9263C37.8862 26.1837 40.8943 28.2704 42.9539 29.0835C44.1463 29.5713 45.4743 29.5713 46.6938 29.1648C51.8428 27.4303 52.168 22.1729 52.168 22.1729C53.0352 17.891 49.1328 14.368 49.1328 14.368C53.9024 10.0862 61.7073 5.72302 61.7073 5.72302L58.8076 0.92627C51.0027 4.4493 44.8509 10.574 44.8509 10.574C42.6016 6.67153 30.5962 0.92627 30.5962 0.92627L28.645 6.67153C34.6883 8.92085 40.6504 14.6661 40.6504 14.6661C38.5908 16.1566 37.832 20.9263 37.832 20.9263ZM44.9323 18.0536C44.9323 18.0536 46.8293 20.3843 46.5854 22.0916C46.5854 22.0916 46.5854 23.7447 44.8238 23.7447C44.8238 23.7447 43.4959 23.6905 43.4688 22.1458C43.4688 22.1458 43.5772 19.761 44.9323 18.0536Z" fill="white"/>
<path d="M26.3957 71.387C28.8889 71.7664 32.7913 68.9208 32.7913 68.9208C36.4228 65.1268 35.7453 61.5225 34.8509 59.5171C34.336 58.3517 33.3875 57.4032 32.2493 56.8341C27.3442 54.4493 23.4417 57.9723 23.4417 57.9723C19.8103 60.4114 20.1355 65.6688 20.1355 65.6688C13.7127 65.3707 5.09485 63.013 5.09485 63.013L3.79404 68.5143C11.8157 71.4683 20.5149 71.4141 20.5149 71.4141C19.3767 75.7772 23.9024 88.2975 23.9024 88.2975L29.3225 85.5604C26.6125 79.6526 26.3957 71.387 26.3957 71.387ZM27.3442 61.9019C27.3442 61.9019 28.5095 60.7095 29.7561 61.9561C29.7561 61.9561 30.6504 62.9046 29.5935 64.0699C29.5935 64.0699 27.8591 65.6959 25.6911 65.9669C25.6911 65.9669 25.9892 62.9588 27.3442 61.9019Z" fill="white"/>
<path d="M63.7127 20.4656C61.2195 20.0862 57.3171 22.9317 57.3171 22.9317C53.6856 26.7257 54.3631 30.3301 55.2575 32.3355C55.7724 33.5008 56.7209 34.4493 57.8591 35.0184C62.7642 37.4032 66.6667 33.8802 66.6667 33.8802C70.2981 31.4412 69.9729 26.1837 69.9729 26.1837C76.3957 26.4818 85.0135 28.8395 85.0135 28.8395L86.3144 23.3382C78.2927 20.3843 69.5935 20.4385 69.5935 20.4385C70.7317 16.0753 66.206 3.555 66.206 3.555L60.7859 6.29212C63.4959 12.1729 63.7127 20.4656 63.7127 20.4656ZM62.7642 29.9236C62.7642 29.9236 61.5989 31.116 60.3523 29.8694C60.3523 29.8694 59.458 28.9208 60.5149 27.7555C60.5149 27.7555 62.2493 26.1295 64.4174 25.8585C64.4174 25.8585 64.1192 28.8666 62.7642 29.9236Z" fill="white"/>
<path d="M0.135501 60.7095L5.90786 62.6336C8.13008 56.5631 13.8482 50.6011 13.8482 50.6011C15.3117 52.6336 20.1084 53.3924 20.1084 53.3924C25.3659 53.3111 27.4255 50.303 28.2385 48.2433C28.6992 47.0509 28.7263 45.723 28.3198 44.5035C26.5583 39.3545 21.3008 39.0564 21.3008 39.0564C16.9919 38.1891 13.523 42.1187 13.523 42.1187C9.21409 37.349 4.82385 29.5713 4.82385 29.5713L0 32.5252C3.55014 40.303 9.729 46.4276 9.729 46.4276C5.82656 48.704 0.135501 60.7095 0.135501 60.7095ZM21.2195 44.6119C21.2195 44.6119 22.8726 44.6119 22.8997 46.3463C22.8997 46.3463 22.8455 47.6742 21.3008 47.7284C21.3008 47.7284 18.916 47.6471 17.2087 46.2921C17.1816 46.2921 19.5122 44.3951 21.2195 44.6119Z" fill="white"/>
<path d="M89.9729 31.116L84.2005 29.1919C81.9783 35.2623 76.2602 41.2244 76.2602 41.2244C74.7967 39.1919 70 38.433 70 38.433C64.7426 38.5143 62.6829 41.5225 61.8699 43.5821C61.4092 44.7745 61.3821 46.1024 61.7886 47.3219C63.5501 52.471 68.8076 52.7691 68.8076 52.7691C73.0894 53.6363 76.5854 49.7068 76.5854 49.7068C80.8943 54.4764 85.2846 62.2542 85.2846 62.2542L90.1084 59.3003C86.5583 51.5225 80.3794 45.3978 80.3794 45.3978C84.2818 43.1485 89.9729 31.116 89.9729 31.116ZM68.8618 47.2135C68.8618 47.2135 67.2087 47.2135 67.1816 45.4791C67.1816 45.4791 67.2358 44.1512 68.7805 44.097C68.7805 44.097 71.1653 44.1783 72.8726 45.5333C72.9268 45.5333 70.5962 47.4574 68.8618 47.2135Z" fill="white"/>
<path d="M19.6748 27.1864C19.2683 29.6797 22.1138 33.5821 22.1138 33.5821C25.8808 37.2135 29.4851 36.5631 31.5176 35.6959C32.71 35.181 33.6314 34.2596 34.2005 33.0943C36.5854 28.1891 33.0894 24.2867 33.0894 24.2867C30.6504 20.6553 25.4201 20.9534 25.4201 20.9534C25.7182 14.5306 28.1301 5.93982 28.1301 5.93982L22.6287 4.63901C19.6477 12.6607 19.7019 21.3599 19.7019 21.3599C15.3388 20.1675 2.81843 24.6661 2.81843 24.6661L5.52846 30.1133C11.3821 27.3761 19.6748 27.1864 19.6748 27.1864ZM29.1057 28.162C29.1057 28.162 30.2981 29.3274 29.0515 30.574C29.0515 30.574 28.103 31.4683 26.9377 30.4114C26.9377 30.4114 25.3117 28.6498 25.0407 26.4818C25.0678 26.5089 28.0759 26.7799 29.1057 28.162Z" fill="white"/>
<path d="M70.4607 64.639C70.8672 62.1458 68.0217 58.2433 68.0217 58.2433C64.2547 54.6119 60.6504 55.2623 58.6179 56.1295C57.4255 56.6444 56.5041 57.5658 55.935 58.7311C53.5501 63.6363 57.0461 67.5387 57.0461 67.5387C59.4851 71.1702 64.7155 70.8721 64.7155 70.8721C64.4174 77.2948 62.0054 85.8856 62.0054 85.8856L67.5068 87.1864C70.4878 79.1647 70.4336 70.4656 70.4336 70.4656C74.7967 71.6038 87.3171 67.1322 87.3171 67.1322L84.607 61.6851C78.7534 64.4493 70.4607 64.639 70.4607 64.639ZM61.0027 63.6634C61.0027 63.6634 59.8103 62.4981 61.0569 61.2515C61.0569 61.2515 62.0054 60.3572 63.1707 61.4141C63.1707 61.4141 64.7968 63.1756 65.0677 65.3436C65.0406 65.3436 62.0596 65.0455 61.0027 63.6634Z" fill="white"/>
<path d="M45.5285 35.6417C39.8916 35.6417 35.3388 40.1946 35.3388 45.8314C35.3388 51.4683 39.8916 56.0211 45.5285 56.0211C51.1653 56.0211 55.7182 51.4683 55.7182 45.8314C55.7182 40.1946 51.1653 35.6417 45.5285 35.6417ZM45.5285 50.5198C42.981 50.5198 40.9214 48.4601 40.9214 45.9127C40.9214 43.3653 42.981 41.3057 45.5285 41.3057C48.0759 41.3057 50.1355 43.3653 50.1355 45.9127C50.1355 48.4601 48.0759 50.5198 45.5285 50.5198Z" fill="white"/>
<path d="M110.054 56.7664C109.919 56.7664 109.702 56.7664 109.431 56.7393C109.16 56.7122 108.916 56.6851 108.699 56.658C108.238 56.6038 107.94 56.4141 107.805 56.116C107.669 55.8179 107.561 55.4385 107.534 55.0049C107.453 54.3544 107.398 53.4872 107.398 52.349C107.398 51.2108 107.371 49.9371 107.371 48.4737V43.1891C107.371 42.0238 107.371 41.0753 107.371 40.3165C107.371 39.5848 107.371 38.9886 107.371 38.5279C107.371 38.0672 107.371 37.7149 107.398 37.4439C107.398 37.1729 107.425 36.929 107.453 36.6851C107.48 36.1702 107.588 35.7637 107.751 35.4927C107.913 35.2217 108.184 35.0591 108.591 34.9778C108.78 34.9507 108.916 34.9235 109.024 34.8964C109.133 34.8964 109.241 34.8693 109.35 34.8693C109.512 34.8693 109.593 34.8151 109.593 34.6796C109.593 34.517 109.431 34.4357 109.106 34.4357C108.889 34.4357 108.618 34.4357 108.293 34.4628C107.967 34.4628 107.669 34.4899 107.371 34.4899C107.073 34.4899 106.802 34.517 106.585 34.517C106.341 34.517 106.206 34.5441 106.179 34.5441C106.152 34.5441 106.016 34.5441 105.772 34.517C105.528 34.517 105.284 34.4899 104.986 34.4899C104.688 34.4899 104.363 34.4628 104.011 34.4628C103.658 34.4628 103.387 34.4357 103.144 34.4357C102.818 34.4357 102.656 34.517 102.656 34.6796C102.656 34.788 102.737 34.8693 102.9 34.8693C103.008 34.8693 103.144 34.8693 103.333 34.8964C103.523 34.9235 103.686 34.9507 103.848 34.9778C104.471 35.1133 104.824 35.6824 104.878 36.658C104.905 36.9019 104.905 37.1458 104.932 37.4168C104.932 37.6878 104.959 38.0401 104.959 38.5008C104.959 38.9615 104.959 39.5577 104.959 40.2894C104.959 41.0211 104.959 41.9967 104.959 43.162V48.4466C104.959 49.8829 104.959 51.1837 104.932 52.3219C104.932 53.4601 104.878 54.3544 104.797 54.9777C104.742 55.4114 104.661 55.7908 104.553 56.0889C104.444 56.387 104.228 56.5767 103.929 56.6309C103.794 56.658 103.631 56.7122 103.469 56.7122C103.306 56.7393 103.171 56.7393 103.008 56.7393C102.845 56.7393 102.764 56.7935 102.764 56.929C102.764 57.0916 102.927 57.1729 103.252 57.1729C103.469 57.1729 103.74 57.1729 104.065 57.1458C104.39 57.1458 104.688 57.1187 104.986 57.1187C105.284 57.1187 105.555 57.0916 105.772 57.0916C106.016 57.0916 106.125 57.0645 106.179 57.0645C106.206 57.0645 106.341 57.0645 106.585 57.0916C106.802 57.0916 107.1 57.1187 107.453 57.1187C107.805 57.1187 108.184 57.1458 108.618 57.1458C109.051 57.1458 109.458 57.1729 109.892 57.1729C110.217 57.1729 110.379 57.0916 110.379 56.929C110.298 56.8206 110.217 56.7664 110.054 56.7664Z" fill="white"/>
<path d="M181.599 56.7664C181.463 56.7664 181.247 56.7664 180.976 56.7393C180.705 56.7122 180.461 56.6851 180.244 56.658C179.783 56.6038 179.485 56.4141 179.35 56.116C179.214 55.8179 179.106 55.4385 179.079 55.0049C178.997 54.3544 178.943 53.4872 178.943 52.349C178.943 51.2108 178.916 49.9371 178.916 48.4737V43.1891C178.916 42.0238 178.916 41.0753 178.916 40.3165C178.916 39.5848 178.916 38.9886 178.916 38.5279C178.916 38.0672 178.916 37.7149 178.943 37.4439C178.943 37.1729 178.97 36.929 178.997 36.6851C179.024 36.1702 179.133 35.7637 179.295 35.4927C179.458 35.2217 179.729 35.0591 180.135 34.9778C180.325 34.9507 180.461 34.9235 180.569 34.8964C180.677 34.8964 180.786 34.8693 180.894 34.8693C181.057 34.8693 181.138 34.8151 181.138 34.6796C181.138 34.517 180.976 34.4357 180.65 34.4357C180.434 34.4357 180.163 34.4357 179.837 34.4628C179.512 34.4628 179.214 34.4899 178.916 34.4899C178.618 34.4899 178.347 34.517 178.13 34.517C177.886 34.517 177.751 34.5441 177.724 34.5441C177.696 34.5441 177.561 34.5441 177.317 34.517C177.073 34.517 176.829 34.4899 176.531 34.4899C176.233 34.4899 175.908 34.4628 175.555 34.4628C175.203 34.4628 174.932 34.4357 174.688 34.4357C174.363 34.4357 174.2 34.517 174.2 34.6796C174.2 34.788 174.282 34.8693 174.444 34.8693C174.553 34.8693 174.688 34.8693 174.878 34.8964C175.068 34.9235 175.23 34.9507 175.393 34.9778C176.016 35.1133 176.368 35.6824 176.423 36.658C176.45 36.9019 176.45 37.1458 176.477 37.4168C176.477 37.6878 176.504 38.0401 176.504 38.5008C176.504 38.9615 176.504 39.5577 176.504 40.2894C176.504 41.0211 176.504 41.9967 176.504 43.162V48.4466C176.504 49.8829 176.504 51.1837 176.477 52.3219C176.477 53.4601 176.423 54.3544 176.341 54.9777C176.287 55.4114 176.206 55.7908 176.097 56.0889C175.989 56.387 175.772 56.5767 175.474 56.6309C175.339 56.658 175.176 56.7122 175.013 56.7122C174.851 56.7393 174.715 56.7393 174.553 56.7393C174.39 56.7393 174.309 56.7935 174.309 56.929C174.309 57.0916 174.471 57.1729 174.797 57.1729C175.013 57.1729 175.284 57.1729 175.61 57.1458C175.935 57.1458 176.233 57.1187 176.531 57.1187C176.829 57.1187 177.1 57.0916 177.317 57.0916C177.561 57.0916 177.696 57.0645 177.724 57.0645C177.751 57.0645 177.886 57.0645 178.13 57.0916C178.374 57.0916 178.645 57.1187 178.997 57.1187C179.35 57.1187 179.729 57.1458 180.163 57.1458C180.596 57.1458 181.003 57.1729 181.436 57.1729C181.761 57.1729 181.924 57.0916 181.924 56.929C181.816 56.8206 181.761 56.7664 181.599 56.7664Z" fill="white"/>
<path d="M213.469 56.7664C213.333 56.7664 213.116 56.7664 212.845 56.7393C212.574 56.7122 212.331 56.6851 212.114 56.658C211.653 56.6038 211.355 56.4141 211.219 56.116C211.084 55.8179 210.976 55.4385 210.948 55.0049C210.867 54.3544 210.813 53.4872 210.813 52.349C210.813 51.2108 210.786 49.9371 210.786 48.4737V43.1891C210.786 42.0238 210.786 41.0753 210.786 40.3165C210.786 39.5848 210.786 38.9886 210.786 38.5279C210.786 38.0672 210.786 37.7149 210.813 37.4439C210.813 37.1729 210.84 36.929 210.867 36.6851C210.894 36.1702 211.003 35.7637 211.165 35.4927C211.328 35.2217 211.599 35.0591 212.005 34.9778C212.195 34.9507 212.331 34.9235 212.439 34.8964C212.547 34.8964 212.656 34.8693 212.764 34.8693C212.927 34.8693 213.008 34.8151 213.008 34.6796C213.008 34.517 212.845 34.4357 212.52 34.4357C212.303 34.4357 212.032 34.4357 211.707 34.4628C211.382 34.4628 211.084 34.4899 210.786 34.4899C210.488 34.4899 210.217 34.517 210 34.517C209.756 34.517 209.621 34.5441 209.593 34.5441C209.566 34.5441 209.431 34.5441 209.187 34.517C208.943 34.517 208.699 34.4899 208.401 34.4899C208.103 34.4899 207.778 34.4628 207.425 34.4628C207.073 34.4628 206.802 34.4357 206.558 34.4357C206.233 34.4357 206.07 34.517 206.07 34.6796C206.07 34.788 206.152 34.8693 206.314 34.8693C206.423 34.8693 206.558 34.8693 206.748 34.8964C206.938 34.9235 207.1 34.9507 207.263 34.9778C207.886 35.1133 208.238 35.6824 208.293 36.658C208.32 36.9019 208.32 37.1458 208.347 37.4168C208.347 37.6878 208.374 38.0401 208.374 38.5008C208.374 38.9615 208.374 39.5577 208.374 40.2894C208.374 41.0211 208.374 41.9967 208.374 43.162V48.4466C208.374 49.8829 208.374 51.1837 208.347 52.3219C208.347 53.4601 208.293 54.3544 208.211 54.9777C208.157 55.4114 208.076 55.7908 207.967 56.0889C207.859 56.387 207.642 56.5767 207.344 56.6309C207.209 56.658 207.046 56.7122 206.883 56.7122C206.775 56.7393 206.667 56.7393 206.558 56.7393C206.477 56.7393 206.396 56.7393 206.314 56.7393C206.125 56.7393 205.881 56.7122 205.583 56.658C205.203 56.6038 204.688 56.4412 204.065 56.1702C203.442 55.8992 202.71 55.3572 201.897 54.4899C201.003 53.5414 200.054 52.4303 199.024 51.1295C197.994 49.8287 196.856 48.3924 195.637 46.7935C196.992 45.5469 197.913 44.3544 198.455 43.2162C198.997 42.078 199.268 40.9669 199.268 39.8287C199.268 39.3138 199.187 38.826 199.051 38.3924C198.889 37.9588 198.726 37.5523 198.509 37.2271C198.293 36.8748 198.076 36.6038 197.832 36.3328C197.588 36.0889 197.371 35.8992 197.209 35.7366C196.396 35.1675 195.528 34.788 194.58 34.6254C193.631 34.4628 192.656 34.4086 191.707 34.4086C191.463 34.4086 191.165 34.4086 190.813 34.4357C190.461 34.4357 190.081 34.4628 189.702 34.4628C189.322 34.4628 188.997 34.4899 188.699 34.4899C188.401 34.4899 188.211 34.517 188.13 34.517C188.103 34.517 187.967 34.517 187.724 34.4899C187.48 34.4899 187.209 34.4628 186.883 34.4628C186.558 34.4628 186.206 34.4357 185.826 34.4357C185.447 34.4357 185.095 34.4086 184.742 34.4086C184.417 34.4086 184.255 34.4899 184.255 34.6525C184.255 34.7609 184.336 34.8423 184.499 34.8423C184.634 34.8423 184.824 34.8422 185.013 34.8693C185.23 34.8693 185.393 34.8964 185.501 34.9507C186.016 35.0591 186.341 35.2217 186.504 35.4927C186.667 35.7637 186.775 36.1431 186.802 36.658C186.829 36.9019 186.829 37.1458 186.856 37.4168C186.856 37.6878 186.883 38.0401 186.883 38.5008C186.883 38.9615 186.883 39.5577 186.883 40.2894C186.883 41.0211 186.883 41.9967 186.883 43.162V48.4466C186.883 49.8829 186.883 51.1837 186.856 52.3219C186.856 53.4601 186.802 54.3544 186.721 54.9777C186.667 55.4114 186.585 55.7908 186.477 56.0889C186.368 56.387 186.152 56.5767 185.854 56.6309C185.718 56.658 185.555 56.7122 185.393 56.7122C185.23 56.7393 185.095 56.7393 184.932 56.7393C184.77 56.7393 184.688 56.7935 184.688 56.929C184.688 57.0916 184.851 57.1729 185.176 57.1729C185.393 57.1729 185.664 57.1729 185.989 57.1458C186.314 57.1458 186.612 57.1187 186.91 57.1187C187.209 57.1187 187.561 57.0916 187.995 57.0645C188.022 57.0645 188.157 57.0645 188.401 57.0916C188.645 57.0916 188.916 57.1187 189.268 57.1187C189.621 57.1187 190 57.1458 190.434 57.1458C190.867 57.1458 191.274 57.1729 191.707 57.1729C192.032 57.1729 192.195 57.0916 192.195 56.929C192.195 56.8206 192.114 56.7393 191.951 56.7393C191.816 56.7393 191.599 56.7393 191.328 56.7122C191.057 56.6851 190.813 56.658 190.596 56.6309C190.135 56.5767 189.837 56.387 189.702 56.0889C189.566 55.7908 189.458 55.4114 189.431 54.9777C189.35 54.3273 189.295 53.4601 189.295 52.3219C189.295 51.1837 189.268 49.91 189.268 48.4466V47.7149C189.268 47.5523 189.35 47.471 189.485 47.471L193.198 47.5252C193.333 47.5252 193.469 47.5794 193.577 47.7149C193.713 47.9046 193.902 48.1756 194.173 48.5008C194.417 48.826 194.688 49.2054 194.986 49.6119C195.284 50.0184 195.583 50.4249 195.908 50.8856C196.233 51.3192 196.558 51.7528 196.883 52.1864C197.751 53.3246 198.482 54.2731 199.079 55.0049C199.675 55.7366 200.298 56.2786 200.948 56.6038C201.328 56.8206 201.761 56.9832 202.222 57.0645C202.683 57.1458 203.333 57.1729 204.173 57.1729H206.314C206.423 57.1729 206.504 57.1729 206.585 57.1729C206.612 57.1729 206.639 57.1729 206.667 57.1729C206.883 57.1729 207.154 57.1729 207.48 57.1458C207.805 57.1458 208.103 57.1187 208.401 57.1187C208.699 57.1187 208.97 57.0916 209.187 57.0916C209.431 57.0916 209.539 57.0645 209.593 57.0645C209.621 57.0645 209.756 57.0645 210 57.0916C210.217 57.0916 210.515 57.1187 210.867 57.1187C211.219 57.1187 211.599 57.1458 212.032 57.1458C212.466 57.1458 212.873 57.1729 213.306 57.1729C213.631 57.1729 213.794 57.0916 213.794 56.929C213.686 56.8206 213.631 56.7664 213.469 56.7664ZM194.824 46.0618C194.471 46.3057 194.119 46.4683 193.713 46.5225C193.306 46.6038 192.927 46.6309 192.574 46.6309C191.924 46.6309 191.274 46.5767 190.65 46.4954C190.027 46.4141 189.621 46.2786 189.404 46.1431C189.268 46.0618 189.187 45.9534 189.187 45.7908V35.9534C189.187 35.7637 189.268 35.6553 189.431 35.6011C189.593 35.574 189.864 35.5198 190.217 35.4927C190.569 35.4656 190.976 35.4385 191.463 35.4385C193.089 35.4385 194.363 35.9805 195.284 37.0374C196.206 38.0943 196.667 39.5848 196.667 41.4547C196.667 42.5929 196.504 43.5685 196.152 44.3544C195.799 45.1132 195.366 45.6824 194.824 46.0618Z" fill="white"/>
<path d="M136.667 34.4357C136.043 34.4357 135.501 34.4628 135.041 34.4899C134.58 34.517 134.255 34.5441 134.119 34.5441C134.038 34.5441 133.902 34.5441 133.686 34.517C133.469 34.517 133.225 34.4899 132.927 34.4899C132.629 34.4899 132.331 34.4628 132.005 34.4628C131.68 34.4628 131.328 34.4357 131.003 34.4357C130.596 34.4357 130.406 34.517 130.406 34.6525C130.406 34.788 130.488 34.8693 130.65 34.8693C130.759 34.8693 130.976 34.8693 131.274 34.8964C131.572 34.9235 131.843 34.9506 132.141 35.0048C132.602 35.1132 132.9 35.3843 133.062 35.7908C133.225 36.1973 133.306 36.8748 133.306 37.8775L133.631 53.162C133.387 52.9181 133.008 52.5387 132.52 51.9696C132.005 51.4276 131.436 50.7772 130.786 50.0455C130.135 49.3138 129.404 48.555 128.672 47.7149C127.913 46.9019 127.182 46.0889 126.423 45.2759C125.257 44.0292 124.119 42.8097 123.035 41.6444C121.951 40.452 120.948 39.3951 120.081 38.4466C119.187 37.4981 118.482 36.7122 117.886 36.0889C117.317 35.4656 116.965 35.0862 116.856 34.9507C116.694 34.788 116.504 34.5983 116.287 34.3544C116.07 34.1105 115.908 34.0021 115.799 34.0021C115.691 34.0021 115.583 34.1105 115.555 34.3273C115.501 34.5441 115.474 34.9236 115.474 35.5198L115.447 52.7555C115.447 54.1105 115.393 55.0861 115.284 55.6282C115.176 56.1702 114.932 56.4954 114.553 56.6038C114.336 56.6851 114.092 56.7393 113.848 56.7664C113.604 56.7935 113.415 56.7935 113.306 56.7935C113.144 56.7935 113.062 56.8477 113.062 56.9832C113.062 57.1458 113.225 57.2271 113.55 57.2271C114.228 57.2271 114.851 57.2 115.393 57.1729C115.935 57.1458 116.287 57.1187 116.423 57.1187C116.558 57.1187 116.911 57.1458 117.48 57.1729C118.049 57.2 118.753 57.2271 119.621 57.2271C119.973 57.2271 120.163 57.1458 120.163 56.9832C120.163 56.8748 120.081 56.7935 119.919 56.7935C119.783 56.7935 119.566 56.7935 119.268 56.7664C118.97 56.7393 118.699 56.6851 118.401 56.6038C118.211 56.5496 118.022 56.4412 117.886 56.3057C117.751 56.1702 117.642 55.9534 117.534 55.6824C117.425 55.4114 117.371 55.059 117.317 54.6525C117.263 54.246 117.236 53.7311 117.209 53.1078L116.829 38.6905C117.073 38.9615 117.453 39.3951 117.967 39.9642C118.482 40.5333 119.106 41.2108 119.81 41.9967C120.515 42.7826 121.274 43.6227 122.114 44.5441C122.954 45.4656 123.794 46.387 124.688 47.3355C125.501 48.2027 126.341 49.097 127.209 50.0184C128.103 50.9398 128.916 51.807 129.675 52.5929C130.434 53.3788 131.084 54.0563 131.626 54.5712C132.168 55.1133 132.466 55.4114 132.547 55.4927C132.954 55.8992 133.279 56.2244 133.523 56.4683C133.767 56.7122 133.984 56.9019 134.146 57.0645C134.309 57.2 134.444 57.3084 134.526 57.3626C134.607 57.4168 134.688 57.4439 134.742 57.4439C134.797 57.4439 134.851 57.4168 134.878 57.3897C134.905 57.3626 134.932 57.2542 134.959 57.1187C134.986 56.9832 134.986 56.7664 135.013 56.4954C135.013 56.2244 135.041 55.8179 135.041 55.33L135.095 37.6878C135.095 36.7935 135.149 36.1431 135.284 35.7366C135.393 35.3572 135.718 35.1132 136.206 35.0048C136.396 34.9777 136.531 34.9506 136.639 34.9235C136.748 34.9235 136.856 34.8964 136.938 34.8964C137.154 34.8964 137.263 34.8151 137.263 34.6796C137.209 34.4899 137.019 34.4357 136.667 34.4357Z" fill="white"/>
<path d="M150.623 47.9588C150.298 47.4168 149.837 46.8206 149.268 46.2244C148.699 45.6282 147.967 44.9777 147.073 44.2731L146.233 43.6227C145.501 43.0536 144.905 42.5658 144.444 42.1051C143.984 41.6715 143.604 41.265 143.306 40.8585C143.035 40.4791 142.818 40.0997 142.71 39.7203C142.602 39.3409 142.547 38.9615 142.547 38.5279C142.547 37.4168 142.9 36.5767 143.604 35.9534C144.309 35.33 145.203 35.0319 146.233 35.0319C146.91 35.0319 147.48 35.0862 147.94 35.2217C148.401 35.3572 148.78 35.5198 149.079 35.6824C149.377 35.8721 149.593 36.0347 149.729 36.2244C149.864 36.4141 149.973 36.5225 150 36.6038C150.108 36.7664 150.19 37.0103 150.244 37.3355C150.325 37.6607 150.352 37.9317 150.379 38.0943C150.406 38.2027 150.406 38.3111 150.434 38.3924C150.461 38.4737 150.515 38.5008 150.623 38.5008C150.759 38.5008 150.84 38.2569 150.84 37.7962C150.84 36.7664 150.867 36.0076 150.894 35.4927C150.921 34.9778 150.948 34.6796 150.948 34.5983C150.948 34.4628 150.84 34.3815 150.65 34.3815C150.542 34.3815 150.406 34.3815 150.244 34.3544C150.081 34.3273 149.864 34.3002 149.593 34.246C149.214 34.1376 148.808 34.0834 148.347 34.0292C147.886 33.975 147.371 33.9479 146.802 33.9479C145.826 33.9479 144.986 34.0834 144.2 34.3273C143.442 34.5983 142.791 34.9506 142.249 35.4385C141.707 35.9263 141.301 36.4954 141.003 37.1458C140.705 37.7962 140.569 38.555 140.569 39.3409C140.569 39.8558 140.623 40.3707 140.732 40.8585C140.84 41.3463 141.03 41.8612 141.328 42.4032C141.626 42.9452 142.005 43.4872 142.52 44.0563C143.035 44.6254 143.686 45.2217 144.471 45.8992L145.826 47.0103C146.477 47.5523 147.019 48.0401 147.453 48.4737C147.886 48.9073 148.238 49.3409 148.509 49.7474C148.78 50.1539 148.97 50.5875 149.106 51.0211C149.241 51.4547 149.295 51.9425 149.295 52.4574C149.295 52.9452 149.214 53.433 149.024 53.8937C148.835 54.3815 148.591 54.8152 148.238 55.1675C147.886 55.5469 147.453 55.845 146.91 56.0889C146.368 56.3328 145.745 56.4412 145.013 56.4412C144.499 56.4412 144.011 56.387 143.55 56.2786C143.062 56.1702 142.629 55.9805 142.222 55.7637C141.816 55.5198 141.463 55.1945 141.192 54.8151C140.921 54.4357 140.705 53.9479 140.596 53.3788C140.569 53.162 140.542 52.9452 140.515 52.7555C140.515 52.5658 140.488 52.4032 140.488 52.2677C140.488 52.0509 140.406 51.9425 140.271 51.9425C140.135 51.9425 140.054 52.1051 140.027 52.4303C140 52.6742 139.973 53.0807 139.946 53.6227C139.919 54.1918 139.892 54.8422 139.892 55.6011C139.892 56.0076 139.919 56.2786 139.946 56.387C139.973 56.5225 140.108 56.6309 140.325 56.7393C140.948 57.0374 141.599 57.2271 142.276 57.3626C142.954 57.471 143.658 57.5252 144.363 57.5252C145.176 57.5252 145.989 57.4168 146.775 57.2271C147.561 57.0374 148.266 56.7122 148.916 56.2515C149.431 55.8992 149.864 55.4927 150.19 55.032C150.515 54.5712 150.786 54.1376 150.976 53.6498C151.165 53.1891 151.301 52.7555 151.355 52.3219C151.436 51.8883 151.463 51.536 151.463 51.2379C151.463 50.6417 151.409 50.0726 151.274 49.5035C151.192 49.0699 150.976 48.5008 150.623 47.9588Z" fill="white"/>
<path d="M227.317 47.9588C226.992 47.4168 226.531 46.8206 225.962 46.2244C225.393 45.6282 224.661 44.9777 223.767 44.2731L222.927 43.6227C222.195 43.0536 221.599 42.5658 221.138 42.1051C220.677 41.6715 220.298 41.265 220 40.8585C219.729 40.4791 219.512 40.0997 219.404 39.7203C219.295 39.3409 219.241 38.9615 219.241 38.5279C219.241 37.4168 219.593 36.5767 220.298 35.9534C221.003 35.33 221.897 35.0319 222.927 35.0319C223.604 35.0319 224.173 35.0862 224.634 35.2217C225.095 35.3572 225.474 35.5198 225.772 35.6824C226.07 35.8721 226.287 36.0347 226.423 36.2244C226.558 36.4141 226.667 36.5225 226.694 36.6038C226.802 36.7664 226.883 37.0103 226.938 37.3355C227.019 37.6607 227.046 37.9317 227.073 38.0943C227.1 38.2027 227.1 38.3111 227.127 38.3924C227.154 38.4737 227.209 38.5008 227.317 38.5008C227.452 38.5008 227.534 38.2569 227.534 37.7962C227.534 36.7664 227.561 36.0076 227.588 35.4927C227.615 34.9778 227.642 34.6796 227.642 34.5983C227.642 34.4628 227.534 34.3815 227.344 34.3815C227.236 34.3815 227.1 34.3815 226.938 34.3544C226.775 34.3273 226.558 34.3002 226.287 34.246C225.908 34.1376 225.501 34.0834 225.041 34.0292C224.58 33.975 224.065 33.9479 223.496 33.9479C222.52 33.9479 221.68 34.0834 220.894 34.3273C220.135 34.5983 219.485 34.9506 218.943 35.4385C218.401 35.9263 217.994 36.4954 217.696 37.1458C217.398 37.7962 217.263 38.555 217.263 39.3409C217.263 39.8558 217.317 40.3707 217.425 40.8585C217.534 41.3463 217.723 41.8612 218.022 42.4032C218.32 42.9452 218.699 43.4872 219.214 44.0563C219.729 44.6254 220.379 45.2217 221.165 45.8992L222.52 47.0103C223.171 47.5523 223.713 48.0401 224.146 48.4737C224.58 48.9073 224.932 49.3409 225.203 49.7474C225.474 50.1539 225.664 50.5875 225.799 51.0211C225.935 51.4547 225.989 51.9425 225.989 52.4574C225.989 52.9452 225.908 53.433 225.718 53.8937C225.528 54.3815 225.284 54.8152 224.932 55.1675C224.58 55.5469 224.146 55.845 223.604 56.0889C223.062 56.3328 222.439 56.4412 221.707 56.4412C221.192 56.4412 220.705 56.387 220.244 56.2786C219.756 56.1702 219.322 55.9805 218.916 55.7637C218.509 55.5198 218.157 55.1945 217.886 54.8151C217.615 54.4357 217.398 53.9479 217.29 53.3788C217.263 53.162 217.236 52.9452 217.209 52.7555C217.209 52.5658 217.181 52.4032 217.181 52.2677C217.181 52.0509 217.1 51.9425 216.965 51.9425C216.829 51.9425 216.748 52.1051 216.721 52.4303C216.694 52.6742 216.667 53.0807 216.639 53.6227C216.612 54.1918 216.585 54.8422 216.585 55.6011C216.585 56.0076 216.612 56.2786 216.639 56.387C216.667 56.5225 216.802 56.6309 217.019 56.7393C217.642 57.0374 218.293 57.2271 218.97 57.3626C219.648 57.471 220.352 57.5252 221.057 57.5252C221.87 57.5252 222.683 57.4168 223.469 57.2271C224.255 57.0374 224.959 56.7122 225.61 56.2515C226.125 55.8992 226.558 55.4927 226.883 55.032C227.209 54.5712 227.48 54.1376 227.669 53.6498C227.859 53.1891 227.994 52.7555 228.049 52.3219C228.13 51.8883 228.157 51.536 228.157 51.2379C228.157 50.6417 228.103 50.0726 227.967 49.5035C227.886 49.0699 227.642 48.5008 227.317 47.9588Z" fill="white"/>
<path d="M168.266 36.1431C168.157 36.0347 167.967 35.8721 167.724 35.6824C167.48 35.4927 167.154 35.303 166.694 35.1133C166.26 34.9236 165.718 34.7609 165.041 34.6254C164.39 34.4899 163.577 34.4086 162.656 34.4086C161.951 34.4086 161.219 34.4357 160.488 34.4628C159.756 34.4899 159.214 34.517 158.862 34.517C158.808 34.517 158.645 34.517 158.428 34.4899C158.184 34.4899 157.913 34.4628 157.588 34.4628C157.263 34.4628 156.91 34.4357 156.531 34.4357C156.152 34.4357 155.799 34.4086 155.474 34.4086C155.149 34.4086 154.986 34.4899 154.986 34.6525C154.986 34.7609 155.068 34.8423 155.23 34.8423C155.366 34.8423 155.555 34.8422 155.745 34.8693C155.962 34.8693 156.125 34.8964 156.233 34.9507C156.748 35.0591 157.073 35.2217 157.236 35.4927C157.398 35.7637 157.507 36.1431 157.534 36.658C157.561 36.9019 157.561 37.1458 157.588 37.4168C157.588 37.6878 157.615 38.0401 157.615 38.5008C157.615 38.9615 157.615 39.5577 157.615 40.2894C157.615 41.0211 157.615 41.9967 157.615 43.162V48.4466C157.615 49.8829 157.615 51.1837 157.588 52.3219C157.588 53.4601 157.534 54.3544 157.453 54.9777C157.398 55.4114 157.317 55.7908 157.209 56.0889C157.1 56.387 156.883 56.5767 156.585 56.6309C156.45 56.658 156.287 56.7122 156.125 56.7122C155.962 56.7393 155.826 56.7393 155.664 56.7393C155.501 56.7393 155.42 56.7935 155.42 56.929C155.42 57.0916 155.583 57.1729 155.908 57.1729C156.125 57.1729 156.396 57.1729 156.721 57.1458C157.046 57.1458 157.344 57.1187 157.642 57.1187C157.94 57.1187 158.211 57.0916 158.428 57.0916C158.645 57.0916 158.78 57.0645 158.78 57.0645C158.808 57.0645 158.943 57.0645 159.187 57.0916C159.404 57.0916 159.702 57.1187 160.054 57.1187C160.406 57.1187 160.786 57.1458 161.219 57.1458C161.653 57.1458 162.06 57.1729 162.493 57.1729C162.818 57.1729 162.981 57.0916 162.981 56.929C162.981 56.8206 162.9 56.7393 162.737 56.7393C162.602 56.7393 162.385 56.7393 162.114 56.7122C161.843 56.6851 161.599 56.658 161.382 56.6309C160.921 56.5767 160.623 56.387 160.488 56.0889C160.352 55.7908 160.244 55.4114 160.217 54.9777C160.135 54.3273 160.081 53.4601 160.081 52.3219C160.081 51.1837 160.054 49.91 160.054 48.4466V36.0889C160.054 35.7637 160.135 35.574 160.298 35.5198C160.434 35.4656 160.623 35.4114 160.867 35.3843C161.084 35.3572 161.355 35.3301 161.599 35.3301C161.789 35.3301 162.032 35.3301 162.331 35.3301C162.629 35.3301 162.954 35.3843 163.333 35.4656C163.713 35.5469 164.092 35.7095 164.499 35.9263C164.905 36.1431 165.312 36.4412 165.718 36.8477C166.125 37.2542 166.423 37.6607 166.639 38.1214C166.856 38.555 167.019 38.9886 167.127 39.4222C167.236 39.8558 167.317 40.2352 167.344 40.5875C167.371 40.9398 167.398 41.2379 167.398 41.4818C167.398 42.1864 167.263 42.8368 166.992 43.433C166.721 44.0292 166.341 44.5441 165.881 44.9778C165.42 45.4114 164.878 45.7637 164.228 46.0076C163.577 46.2515 162.9 46.387 162.168 46.387C161.843 46.387 161.626 46.4141 161.518 46.4412C161.409 46.4683 161.355 46.5496 161.355 46.658C161.355 46.7393 161.382 46.7935 161.463 46.8206C161.545 46.8477 161.599 46.8748 161.68 46.8748C161.761 46.9019 161.87 46.9019 162.005 46.9019C162.141 46.9019 162.249 46.9019 162.331 46.9019C163.387 46.9019 164.39 46.7393 165.284 46.387C166.179 46.0347 166.965 45.5469 167.642 44.9235C168.293 44.3002 168.808 43.5414 169.187 42.6471C169.566 41.7528 169.756 40.8043 169.756 39.7203C169.756 38.9073 169.593 38.2027 169.268 37.5794C168.943 36.9561 168.618 36.4683 168.266 36.1431Z" fill="white"/>
<path d="M253.225 56.7664C253.062 56.7664 252.873 56.7664 252.656 56.7393C252.439 56.7122 252.222 56.658 252.005 56.5767C251.843 56.5496 251.68 56.4683 251.49 56.3599C251.301 56.2515 251.111 56.0889 250.894 55.845C250.677 55.6011 250.461 55.2759 250.19 54.8422C249.919 54.4086 249.675 53.8666 249.431 53.2162C249.133 52.4574 248.753 51.5089 248.293 50.3436C247.832 49.2054 247.371 47.9859 246.883 46.7122C246.396 45.4385 245.908 44.1376 245.393 42.8368C244.878 41.536 244.444 40.3436 244.011 39.2325C243.604 38.1485 243.252 37.2271 242.954 36.4683C242.656 35.7095 242.466 35.2487 242.385 35.0319C242.195 34.5712 242.087 34.2731 242.005 34.1376C241.924 34.0021 241.843 33.9479 241.734 33.9479C241.626 33.9479 241.545 34.0292 241.463 34.1647C241.382 34.3002 241.247 34.6254 241.084 35.1403L234.255 53.8395C233.984 54.5983 233.658 55.2488 233.306 55.7637C232.954 56.2786 232.439 56.5767 231.734 56.6851C231.626 56.7122 231.463 56.7122 231.274 56.7393C231.084 56.7393 230.948 56.7664 230.84 56.7664C230.65 56.7664 230.569 56.8206 230.569 56.9561C230.569 57.1187 230.759 57.2 231.138 57.2C231.49 57.2 231.87 57.2 232.222 57.1729C232.574 57.1729 232.927 57.1458 233.252 57.1458C233.577 57.1458 233.848 57.1187 234.092 57.1187C234.336 57.1187 234.471 57.0916 234.553 57.0916C234.634 57.0916 234.77 57.0916 234.959 57.1187C235.149 57.1187 235.366 57.1458 235.583 57.1458C235.799 57.1458 236.043 57.1729 236.287 57.1729C236.531 57.1729 236.748 57.2 236.91 57.2C237.209 57.2 237.371 57.1187 237.371 56.9561C237.371 56.8477 237.263 56.7664 237.073 56.7664H236.748C236.477 56.7664 236.233 56.6851 235.989 56.5496C235.745 56.4141 235.61 56.1973 235.61 55.8992C235.61 55.3301 235.745 54.6525 236.043 53.8937L237.859 48.555C237.913 48.3924 238.022 48.3111 238.157 48.3111H244.607C244.715 48.3111 244.824 48.3653 244.878 48.5008L247.669 55.8992C247.778 56.1431 247.778 56.3328 247.723 56.4683C247.669 56.6038 247.588 56.6851 247.48 56.7122C247.344 56.7393 247.263 56.8206 247.263 56.929C247.263 57.0374 247.344 57.0916 247.507 57.0916C247.669 57.0916 247.886 57.1187 248.157 57.1458C248.672 57.1729 249.187 57.1729 249.702 57.2C250.217 57.2 250.677 57.2271 251.111 57.2271C251.545 57.2271 251.924 57.2271 252.222 57.2271C252.52 57.2271 252.737 57.2271 252.873 57.2271C253.035 57.2271 253.171 57.2 253.306 57.1729C253.415 57.1458 253.496 57.0645 253.496 56.9832C253.523 56.8206 253.415 56.7664 253.225 56.7664ZM244.228 47.2271H238.482C238.374 47.2271 238.32 47.1458 238.401 47.0103L241.057 38.8802C241.192 38.4466 241.355 38.4466 241.518 38.8802L244.39 47.0103C244.39 47.1458 244.336 47.2271 244.228 47.2271Z" fill="white"/>
<path d="M116.721 70.6689C116.585 70.5334 116.422 70.4249 116.26 70.3165C116.097 70.2352 115.935 70.1539 115.772 70.0997C115.88 70.0184 115.989 69.91 116.07 69.8287C116.179 69.7203 116.26 69.639 116.341 69.5306C116.422 69.4222 116.477 69.2867 116.531 69.1783C116.585 69.0428 116.612 68.9073 116.612 68.7447C116.612 68.6363 116.585 68.5279 116.531 68.3653C116.477 68.2298 116.395 68.0943 116.26 67.9588C116.124 67.8233 115.962 67.742 115.718 67.6336C115.501 67.5523 115.203 67.4981 114.878 67.4981C114.688 67.4981 114.498 67.4981 114.336 67.4981C114.173 67.4981 114.038 67.4981 113.929 67.4981C113.929 67.4981 113.875 67.4981 113.821 67.4981C113.767 67.4981 113.685 67.4981 113.577 67.4981C113.496 67.4981 113.387 67.4981 113.279 67.4981C113.17 67.4981 113.062 67.4981 112.981 67.4981C112.899 67.4981 112.845 67.5252 112.845 67.5523C112.845 67.5794 112.872 67.6065 112.899 67.6065C112.927 67.6065 112.981 67.6065 113.035 67.6065C113.089 67.6065 113.143 67.6065 113.17 67.6336C113.306 67.6607 113.387 67.6878 113.441 67.7691C113.469 67.8504 113.496 67.9588 113.523 68.0943C113.523 68.1485 113.523 68.2298 113.55 68.284C113.55 68.3653 113.55 68.4466 113.55 68.5821C113.55 68.7176 113.55 68.8531 113.55 69.0428C113.55 69.2325 113.55 69.4764 113.55 69.7745V71.1567C113.55 71.5361 113.55 71.8884 113.55 72.1865C113.55 72.4846 113.523 72.7014 113.496 72.864C113.469 72.9724 113.469 73.0808 113.441 73.1621C113.414 73.2434 113.36 73.2976 113.279 73.2976C113.252 73.2976 113.198 73.3247 113.143 73.3247C113.089 73.3247 113.062 73.3518 113.008 73.3518C112.954 73.3518 112.954 73.3789 112.954 73.406C112.954 73.4602 113.008 73.4602 113.089 73.4602C113.17 73.4602 113.225 73.4602 113.333 73.4602C113.414 73.4602 113.496 73.4602 113.604 73.4331C113.685 73.4331 113.767 73.4331 113.821 73.4331C113.875 73.4331 113.929 73.4331 113.929 73.4331C113.956 73.4331 114.011 73.4331 114.119 73.4331C114.227 73.4331 114.336 73.4331 114.471 73.4602C114.607 73.4602 114.742 73.4873 114.878 73.4873C115.013 73.4873 115.122 73.4873 115.176 73.4873C115.528 73.4873 115.826 73.4331 116.07 73.3518C116.314 73.2434 116.531 73.1079 116.721 72.9453C116.883 72.7827 117.019 72.593 117.1 72.3762C117.181 72.1594 117.235 71.9426 117.235 71.7258C117.235 71.509 117.181 71.2921 117.1 71.1295C116.992 70.9669 116.856 70.8044 116.721 70.6689ZM114.254 67.9046C114.254 67.8775 114.282 67.8504 114.363 67.8233C114.444 67.8233 114.498 67.7962 114.58 67.7962C114.661 67.7962 114.715 67.7962 114.769 67.7962C114.986 67.7962 115.149 67.8233 115.284 67.9046C115.42 67.9859 115.555 68.0943 115.637 68.2027C115.718 68.3111 115.799 68.4466 115.853 68.6092C115.908 68.7718 115.908 68.9073 115.908 69.0699C115.908 69.2596 115.88 69.4222 115.826 69.5577C115.772 69.6932 115.691 69.8016 115.609 69.91C115.528 69.9913 115.42 70.0726 115.311 70.0726C115.203 70.0997 115.04 70.0997 114.796 70.0997C114.634 70.0997 114.525 70.0997 114.444 70.0726C114.363 70.0726 114.309 70.0455 114.282 70.0455C114.254 70.0455 114.227 70.0184 114.227 69.9642V67.9046H114.254ZM116.341 72.6472C116.26 72.8098 116.179 72.9182 116.043 73.0266C115.935 73.1079 115.799 73.1892 115.664 73.2163C115.528 73.2434 115.393 73.2705 115.257 73.2705C115.176 73.2705 115.067 73.2705 114.932 73.2434C114.796 73.2434 114.661 73.1892 114.553 73.1621C114.498 73.135 114.444 73.1079 114.417 73.0808C114.39 73.0537 114.363 73.0266 114.336 72.9724C114.309 72.9453 114.309 72.8911 114.309 72.8098C114.309 72.7556 114.309 72.6743 114.282 72.5659C114.282 72.5388 114.282 72.4575 114.282 72.3491C114.282 72.2407 114.282 72.0781 114.282 71.9155C114.282 71.7529 114.282 71.5902 114.282 71.4005C114.282 71.2108 114.282 71.0483 114.282 70.8857V70.4249C114.282 70.3978 114.309 70.3707 114.336 70.3707C114.363 70.3707 114.417 70.3707 114.471 70.3707C114.525 70.3707 114.607 70.3707 114.661 70.3707C114.715 70.3707 114.796 70.3707 114.851 70.3707C114.905 70.3707 114.959 70.3707 114.986 70.3978C115.095 70.425 115.203 70.4249 115.311 70.452C115.447 70.4791 115.555 70.5062 115.718 70.6146C115.88 70.723 116.016 70.8314 116.124 70.9669C116.233 71.1025 116.314 71.2109 116.368 71.3464C116.422 71.4819 116.45 71.6174 116.477 71.7258C116.504 71.8613 116.504 71.9426 116.504 72.051C116.45 72.2678 116.422 72.4846 116.341 72.6472Z" fill="white"/>
<path d="M129.431 67.5252C129.403 67.5252 129.322 67.5252 129.241 67.5252C129.16 67.5252 129.078 67.5252 128.997 67.5252C128.916 67.5252 128.834 67.5252 128.78 67.5252C128.699 67.5252 128.672 67.5252 128.672 67.5252C128.645 67.5252 128.563 67.5252 128.455 67.5252C128.347 67.5252 128.238 67.5252 128.13 67.5252C128.048 67.5252 127.994 67.5523 127.994 67.5794C127.994 67.6065 128.021 67.6336 128.103 67.6607C128.157 67.6607 128.184 67.6878 128.211 67.742C128.238 67.7691 128.238 67.8233 128.238 67.8775C128.238 67.9317 128.238 67.9859 128.211 68.0672C128.184 68.1214 128.157 68.2027 128.103 68.284C128.076 68.3382 128.021 68.3924 127.967 68.5279C127.886 68.6363 127.832 68.7718 127.723 68.9344C127.615 69.097 127.534 69.2596 127.452 69.4222C127.371 69.5848 127.263 69.7745 127.181 69.91C127.1 70.0726 127.019 70.2081 126.937 70.3436C126.883 70.4791 126.829 70.5604 126.802 70.6146C126.775 70.5875 126.721 70.5062 126.666 70.3707C126.585 70.2352 126.504 70.0997 126.395 69.91C126.287 69.7474 126.179 69.5577 126.07 69.368C125.962 69.1783 125.853 68.9886 125.745 68.826C125.637 68.6634 125.555 68.5008 125.474 68.3653C125.393 68.2298 125.366 68.1485 125.338 68.1214C125.311 68.0672 125.284 68.013 125.257 67.9588C125.23 67.9046 125.23 67.8504 125.23 67.8233C125.23 67.7691 125.257 67.7149 125.338 67.6878C125.366 67.6607 125.393 67.6607 125.42 67.6607C125.447 67.6607 125.447 67.6336 125.447 67.6336C125.447 67.6336 125.447 67.6065 125.42 67.6065C125.42 67.6065 125.366 67.5794 125.338 67.5794C125.176 67.5794 125.04 67.5794 124.905 67.5794C124.769 67.5794 124.688 67.5794 124.661 67.5794C124.661 67.5794 124.607 67.5794 124.553 67.5794C124.471 67.5794 124.417 67.5794 124.309 67.5794C124.227 67.5794 124.146 67.5794 124.065 67.5794C123.983 67.5794 123.929 67.5794 123.875 67.5794C123.794 67.5794 123.767 67.6065 123.767 67.6336C123.767 67.6607 123.794 67.6878 123.848 67.6878C123.875 67.6878 123.929 67.6878 124.011 67.7149C124.092 67.742 124.146 67.7691 124.2 67.8233C124.282 67.8775 124.363 67.9317 124.444 68.0401C124.525 68.1485 124.634 68.2569 124.742 68.4195C124.796 68.5008 124.851 68.5821 124.932 68.7176C125.013 68.8531 125.122 68.9886 125.203 69.1512C125.311 69.3138 125.393 69.4764 125.501 69.639C125.609 69.8016 125.691 69.9642 125.799 70.1268C125.88 70.2623 125.962 70.3978 126.016 70.5062C126.07 70.6146 126.097 70.6688 126.124 70.6959C126.151 70.7501 126.179 70.8043 126.206 70.8585C126.233 70.9127 126.233 70.967 126.26 71.0212C126.287 71.0754 126.287 71.1567 126.287 71.238C126.287 71.3193 126.314 71.4006 126.314 71.509V72.1865C126.314 72.2407 126.314 72.3491 126.314 72.5117C126.314 72.6472 126.314 72.8098 126.287 72.9995C126.287 73.1079 126.26 73.2163 126.206 73.2976C126.179 73.3789 126.097 73.4331 126.043 73.4331C126.016 73.4331 125.962 73.4602 125.935 73.4602C125.908 73.4602 125.853 73.4602 125.826 73.4602C125.772 73.4602 125.772 73.4873 125.772 73.5144C125.772 73.5686 125.826 73.5686 125.908 73.5686C125.962 73.5686 126.043 73.5686 126.124 73.5686C126.206 73.5686 126.287 73.5686 126.368 73.5686C126.45 73.5686 126.531 73.5686 126.585 73.5686C126.639 73.5686 126.693 73.5686 126.693 73.5686C126.693 73.5686 126.748 73.5686 126.802 73.5686C126.856 73.5686 126.937 73.5686 127.019 73.5686C127.1 73.5686 127.208 73.5686 127.317 73.5686C127.425 73.5686 127.534 73.5686 127.642 73.5686C127.723 73.5686 127.777 73.5415 127.777 73.5144C127.777 73.4873 127.75 73.4602 127.723 73.4602C127.696 73.4602 127.642 73.4602 127.561 73.4602C127.479 73.4602 127.425 73.4602 127.371 73.4331C127.263 73.406 127.154 73.3789 127.127 73.2976C127.073 73.2163 127.046 73.1079 127.046 72.9995C127.046 72.8369 127.019 72.6743 127.019 72.5117C127.019 72.3762 127.019 72.2678 127.019 72.1865V71.509C127.019 71.3735 127.019 71.2379 127.046 71.1295C127.046 70.994 127.1 70.8585 127.154 70.723C127.181 70.6688 127.235 70.5604 127.29 70.4249C127.371 70.2894 127.452 70.1539 127.534 69.9642C127.642 69.8016 127.723 69.6119 127.859 69.4222C127.967 69.2325 128.076 69.0699 128.184 68.8802C128.292 68.6905 128.374 68.555 128.482 68.4466C128.563 68.3111 128.618 68.2298 128.672 68.1756C128.753 68.0672 128.834 67.9859 128.889 67.9317C128.943 67.8775 129.024 67.8233 129.078 67.7691C129.132 67.7149 129.214 67.6878 129.268 67.6878C129.322 67.6878 129.403 67.6607 129.431 67.6607C129.512 67.6607 129.539 67.6336 129.539 67.6065C129.512 67.5252 129.485 67.5252 129.431 67.5252Z" fill="white"/>
<path d="M150.081 70.5334C150.027 70.5334 149.945 70.5334 149.864 70.5334C149.783 70.5334 149.702 70.5334 149.62 70.5334C149.539 70.5334 149.485 70.5334 149.403 70.5334C149.349 70.5334 149.295 70.5334 149.295 70.5334C149.295 70.5334 149.241 70.5334 149.187 70.5334C149.132 70.5334 149.051 70.5334 148.97 70.5334C148.889 70.5334 148.78 70.5334 148.699 70.5334C148.618 70.5334 148.509 70.5334 148.401 70.5334C148.319 70.5334 148.265 70.5604 148.265 70.5875C148.265 70.6146 148.292 70.6417 148.319 70.6417C148.347 70.6417 148.401 70.6417 148.455 70.6417C148.509 70.6417 148.563 70.6418 148.59 70.6689C148.672 70.696 148.726 70.723 148.78 70.7501C148.834 70.7773 148.861 70.8315 148.889 70.8857C148.916 70.9399 148.916 71.0211 148.943 71.1025C148.97 71.1838 148.943 71.3193 148.943 71.4819V72.8369C148.943 72.9724 148.889 73.0537 148.78 73.1079C148.726 73.135 148.672 73.1621 148.59 73.1892C148.509 73.2163 148.428 73.2163 148.347 73.2434C148.265 73.2434 148.184 73.2705 148.103 73.2705C148.021 73.2705 147.94 73.2705 147.886 73.2705C147.534 73.2705 147.154 73.2163 146.802 73.0808C146.45 72.9453 146.124 72.7285 145.799 72.4304C145.718 72.3491 145.637 72.2678 145.555 72.1323C145.447 71.9968 145.366 71.8342 145.284 71.6445C145.203 71.4548 145.122 71.2379 145.067 70.994C145.013 70.7501 144.986 70.5062 144.986 70.2081C144.986 69.7474 145.067 69.3409 145.203 68.9886C145.338 68.6363 145.528 68.3653 145.772 68.2027C145.908 68.0943 146.07 67.9859 146.233 67.9317C146.395 67.8504 146.531 67.7962 146.666 67.7691C146.802 67.742 146.937 67.7149 147.073 67.7149C147.208 67.7149 147.344 67.6878 147.452 67.6878C147.696 67.6878 147.94 67.7149 148.157 67.742C148.374 67.7691 148.536 67.8233 148.699 67.9046C148.861 67.9859 148.997 68.0401 149.078 68.1214C149.16 68.2027 149.268 68.284 149.295 68.3382C149.349 68.4466 149.403 68.5279 149.431 68.6363C149.458 68.7447 149.458 68.7989 149.485 68.8802C149.485 68.9615 149.512 68.9886 149.539 68.9886C149.566 68.9886 149.593 68.9886 149.593 68.9615C149.593 68.9344 149.62 68.9073 149.62 68.826C149.62 68.6363 149.62 68.4737 149.62 68.3382C149.62 68.2027 149.62 68.0943 149.647 68.013C149.674 67.9317 149.674 67.8504 149.674 67.8233C149.674 67.7691 149.674 67.742 149.674 67.7149C149.674 67.6878 149.674 67.6878 149.647 67.6607C149.647 67.6607 149.62 67.6336 149.566 67.6336C149.458 67.6336 149.349 67.6065 149.241 67.6065C149.132 67.6065 149.024 67.5794 148.943 67.5523C148.916 67.5523 148.834 67.5252 148.753 67.5252C148.672 67.5252 148.563 67.4981 148.455 67.471C148.347 67.4439 148.238 67.4439 148.103 67.4439C147.967 67.4439 147.859 67.4168 147.723 67.4168C147.561 67.4168 147.398 67.4168 147.235 67.4439C147.073 67.471 146.883 67.471 146.721 67.4981C146.531 67.5252 146.368 67.5794 146.179 67.6607C145.989 67.7149 145.799 67.8233 145.637 67.9317C145.474 68.0401 145.284 68.1756 145.122 68.3382C144.959 68.5008 144.824 68.6905 144.688 68.9073C144.58 69.1241 144.471 69.368 144.39 69.639C144.309 69.91 144.282 70.2081 144.282 70.5062C144.282 70.7501 144.309 70.9941 144.363 71.2109C144.417 71.4277 144.498 71.6445 144.58 71.8342C144.661 72.0239 144.769 72.2136 144.878 72.3491C144.986 72.4846 145.122 72.6472 145.23 72.7285C145.447 72.9182 145.691 73.0808 145.935 73.1892C146.179 73.2976 146.422 73.3789 146.639 73.4331C146.856 73.4873 147.1 73.5415 147.29 73.5415C147.506 73.5686 147.669 73.5686 147.832 73.5686C147.94 73.5686 148.076 73.5686 148.211 73.5415C148.347 73.5415 148.509 73.5144 148.645 73.4873C148.807 73.4602 148.943 73.4331 149.078 73.3789C149.214 73.3247 149.376 73.2705 149.485 73.2163C149.512 73.1892 149.512 73.1892 149.539 73.1892C149.566 73.1892 149.566 73.1621 149.566 73.135C149.566 73.1079 149.566 73.0537 149.566 73.0266C149.566 72.9724 149.566 72.9182 149.566 72.8098V71.9155C149.566 71.7529 149.566 71.5903 149.566 71.4819C149.566 71.3464 149.566 71.238 149.593 71.1025C149.593 70.9669 149.62 70.8585 149.674 70.7772C149.702 70.6959 149.783 70.6688 149.891 70.6417C149.945 70.6417 149.973 70.6146 150 70.6146C150.027 70.6146 150.054 70.6146 150.081 70.6146C150.135 70.6146 150.135 70.5875 150.135 70.5604C150.189 70.5604 150.162 70.5334 150.081 70.5334Z" fill="white"/>
<path d="M163.089 67.5252C163.035 67.5252 162.954 67.5252 162.899 67.5252C162.845 67.5252 162.764 67.5252 162.683 67.5252C162.628 67.5252 162.547 67.5252 162.52 67.5252C162.466 67.5252 162.439 67.5252 162.439 67.5252C162.439 67.5252 162.385 67.5252 162.33 67.5252C162.276 67.5252 162.195 67.5252 162.141 67.5252C162.059 67.5252 161.978 67.5252 161.87 67.5252C161.788 67.5252 161.68 67.5252 161.599 67.5252C161.517 67.5252 161.463 67.5523 161.463 67.5794C161.463 67.6065 161.49 67.6336 161.517 67.6336C161.544 67.6336 161.599 67.6336 161.653 67.6336C161.707 67.6336 161.761 67.6336 161.788 67.6607C161.924 67.6878 162.005 67.742 162.059 67.7962C162.113 67.8775 162.141 67.9588 162.141 68.0943C162.141 68.1485 162.141 68.2298 162.141 68.284C162.141 68.3382 162.141 68.4466 162.141 68.5821C162.141 68.6905 162.141 68.8531 162.141 69.0428C162.141 69.2325 162.141 69.4764 162.141 69.8016V70.8044C162.141 71.2109 162.113 71.5903 162.059 71.9155C162.005 72.2407 161.87 72.5117 161.68 72.7556C161.544 72.9182 161.355 73.0537 161.138 73.1621C160.921 73.2705 160.677 73.3247 160.433 73.3247C160.216 73.3247 160 73.2976 159.81 73.2434C159.62 73.1892 159.431 73.0808 159.241 72.8911C159.16 72.8098 159.078 72.7285 158.997 72.6201C158.916 72.5117 158.861 72.3762 158.807 72.2407C158.753 72.0781 158.726 71.9155 158.672 71.6987C158.645 71.4819 158.618 71.238 158.618 70.9669V69.8558C158.618 69.5577 158.618 69.2867 158.618 69.097C158.618 68.9073 158.618 68.7447 158.618 68.6363C158.618 68.5279 158.618 68.4195 158.618 68.3382C158.618 68.2569 158.618 68.2027 158.618 68.1485C158.618 68.013 158.645 67.9046 158.699 67.8233C158.726 67.742 158.807 67.7149 158.916 67.6878C158.97 67.6878 158.997 67.6607 159.024 67.6607C159.051 67.6607 159.078 67.6607 159.105 67.6607C159.16 67.6607 159.16 67.6336 159.16 67.6065C159.16 67.5523 159.105 67.5523 159.024 67.5523C158.97 67.5523 158.889 67.5523 158.807 67.5523C158.726 67.5523 158.645 67.5523 158.563 67.5523C158.482 67.5523 158.401 67.5523 158.347 67.5523C158.292 67.5523 158.238 67.5523 158.238 67.5523C158.238 67.5523 158.184 67.5523 158.13 67.5523C158.076 67.5523 157.994 67.5523 157.913 67.5523C157.832 67.5523 157.723 67.5523 157.642 67.5523C157.534 67.5523 157.452 67.5523 157.371 67.5523C157.29 67.5523 157.235 67.5794 157.235 67.6065C157.235 67.6336 157.263 67.6607 157.29 67.6607C157.317 67.6607 157.371 67.6607 157.425 67.6607C157.479 67.6607 157.534 67.6607 157.561 67.6878C157.696 67.7149 157.777 67.7691 157.832 67.8233C157.886 67.9046 157.913 67.9859 157.913 68.1214C157.913 68.1756 157.913 68.2569 157.913 68.3111C157.913 68.3924 157.913 68.4737 157.913 68.6092C157.913 68.7176 157.913 68.8802 157.913 69.0699C157.913 69.2596 157.913 69.5035 157.913 69.8287V70.994C157.913 71.2921 157.94 71.5361 157.967 71.7529C157.994 71.9697 158.048 72.1594 158.103 72.322C158.157 72.4846 158.238 72.6201 158.319 72.7556C158.401 72.864 158.482 72.9724 158.59 73.0808C158.726 73.2163 158.889 73.3247 159.051 73.406C159.214 73.4873 159.376 73.5415 159.512 73.5686C159.674 73.5957 159.81 73.6228 159.918 73.6228C160.054 73.6228 160.135 73.6228 160.216 73.6228C160.325 73.6228 160.46 73.6228 160.596 73.5957C160.731 73.5957 160.867 73.5415 161.002 73.5144C161.138 73.4602 161.273 73.406 161.436 73.3247C161.571 73.2434 161.734 73.135 161.87 73.0266C162.032 72.8911 162.168 72.7285 162.249 72.5388C162.33 72.3491 162.412 72.1594 162.466 71.9426C162.52 71.7257 162.547 71.509 162.574 71.2922C162.601 71.0754 162.601 70.8585 162.601 70.6417V69.8016C162.601 69.5035 162.601 69.2325 162.601 69.0428C162.601 68.8531 162.601 68.6905 162.601 68.5821C162.601 68.4737 162.601 68.3653 162.601 68.284C162.601 68.2027 162.601 68.1485 162.601 68.0943C162.601 67.9588 162.628 67.8504 162.683 67.7962C162.71 67.7149 162.791 67.6878 162.899 67.6607C162.954 67.6607 162.981 67.6336 163.008 67.6336C163.035 67.6336 163.062 67.6336 163.089 67.6336C163.143 67.6336 163.143 67.6065 163.143 67.5794C163.198 67.5523 163.17 67.5252 163.089 67.5252Z" fill="white"/>
<path d="M175.826 73.406C175.772 73.406 175.745 73.406 175.691 73.406C175.637 73.406 175.582 73.3789 175.528 73.3789C175.474 73.3789 175.447 73.3518 175.393 73.3247C175.338 73.2976 175.284 73.2434 175.23 73.1892C175.176 73.135 175.122 73.0266 175.04 72.9182C174.986 72.8098 174.905 72.6743 174.851 72.4846C174.769 72.2949 174.661 72.0239 174.553 71.7258C174.444 71.4277 174.309 71.1024 174.173 70.7772C174.038 70.452 173.902 70.0997 173.794 69.7474C173.685 69.3951 173.55 69.097 173.441 68.7989C173.333 68.5008 173.252 68.2569 173.17 68.0672C173.089 67.8775 173.035 67.742 173.035 67.6878C172.981 67.5794 172.954 67.4981 172.927 67.4439C172.899 67.4168 172.872 67.3897 172.845 67.3897C172.818 67.3897 172.791 67.4168 172.764 67.4439C172.737 67.471 172.71 67.5523 172.656 67.6878L170.867 72.593C170.786 72.7827 170.704 72.9724 170.623 73.1079C170.542 73.2434 170.379 73.3247 170.216 73.3518C170.189 73.3518 170.135 73.3518 170.108 73.3518C170.081 73.3518 170.027 73.3518 170 73.3518C169.945 73.3518 169.918 73.3789 169.918 73.406C169.918 73.4602 169.973 73.4602 170.081 73.4602C170.189 73.4602 170.271 73.4602 170.379 73.4602C170.487 73.4602 170.569 73.4602 170.65 73.4602C170.731 73.4602 170.813 73.4602 170.867 73.4602C170.921 73.4602 170.975 73.4602 171.002 73.4602C171.029 73.4602 171.057 73.4602 171.111 73.4602C171.165 73.4602 171.219 73.4602 171.273 73.4602C171.328 73.4602 171.382 73.4602 171.463 73.4602C171.517 73.4602 171.571 73.4602 171.626 73.4602C171.707 73.4602 171.734 73.4331 171.734 73.406C171.734 73.3789 171.707 73.3518 171.653 73.3518H171.571C171.49 73.3518 171.436 73.3247 171.382 73.2976C171.328 73.2705 171.273 73.1892 171.273 73.135C171.273 72.9995 171.3 72.8098 171.382 72.593L171.87 71.1837C171.897 71.1295 171.924 71.1295 171.951 71.1295H173.658C173.685 71.1295 173.712 71.1566 173.74 71.1837L174.471 73.135C174.498 73.1892 174.498 73.2434 174.498 73.2705C174.471 73.2976 174.471 73.3247 174.444 73.3247C174.417 73.3247 174.39 73.3518 174.39 73.3789C174.39 73.406 174.417 73.4331 174.444 73.4331C174.498 73.4331 174.553 73.4331 174.607 73.4331C174.742 73.4331 174.878 73.4331 175.013 73.4331C175.149 73.4331 175.284 73.4331 175.393 73.4331C175.501 73.4331 175.609 73.4331 175.691 73.4331C175.772 73.4331 175.826 73.4331 175.853 73.4331C175.908 73.4331 175.935 73.4331 175.962 73.4331C175.989 73.4331 176.016 73.406 176.016 73.3789C175.908 73.406 175.88 73.406 175.826 73.406ZM173.469 70.8857H171.951C171.924 70.8857 171.924 70.8585 171.924 70.8314L172.628 68.6905C172.656 68.5821 172.71 68.5821 172.737 68.6905L173.496 70.8314C173.496 70.8585 173.496 70.8857 173.469 70.8857Z" fill="white"/>
<path d="M199.187 73.406C199.132 73.406 199.105 73.406 199.051 73.406C198.997 73.406 198.943 73.3789 198.889 73.3789C198.834 73.3789 198.807 73.3518 198.753 73.3247C198.699 73.2976 198.645 73.2434 198.59 73.1892C198.536 73.135 198.482 73.0266 198.401 72.9182C198.347 72.8098 198.265 72.6743 198.211 72.4846C198.13 72.2949 198.021 72.0239 197.913 71.7258C197.805 71.4277 197.669 71.1024 197.534 70.7772C197.398 70.452 197.263 70.0997 197.154 69.7474C197.019 69.3951 196.91 69.097 196.802 68.7989C196.693 68.5008 196.612 68.2569 196.531 68.0672C196.45 67.8775 196.395 67.742 196.395 67.6878C196.341 67.5794 196.314 67.4981 196.287 67.4439C196.26 67.4168 196.233 67.3897 196.206 67.3897C196.179 67.3897 196.151 67.4168 196.124 67.4439C196.097 67.471 196.07 67.5523 196.016 67.6878L194.227 72.593C194.146 72.7827 194.065 72.9724 193.983 73.1079C193.902 73.2434 193.74 73.3247 193.577 73.3518C193.55 73.3518 193.496 73.3518 193.469 73.3518C193.414 73.3518 193.387 73.3518 193.36 73.3518C193.306 73.3518 193.279 73.3789 193.279 73.406C193.279 73.4602 193.333 73.4602 193.441 73.4602C193.55 73.4602 193.631 73.4602 193.74 73.4602C193.848 73.4602 193.929 73.4602 194.011 73.4602C194.092 73.4602 194.173 73.4602 194.227 73.4602C194.282 73.4602 194.336 73.4602 194.363 73.4602C194.39 73.4602 194.417 73.4602 194.471 73.4602C194.525 73.4602 194.58 73.4602 194.634 73.4602C194.688 73.4602 194.742 73.4602 194.824 73.4602C194.878 73.4602 194.932 73.4602 194.986 73.4602C195.067 73.4602 195.095 73.4331 195.095 73.406C195.095 73.3789 195.067 73.3518 195.013 73.3518H194.932C194.851 73.3518 194.796 73.3247 194.742 73.2976C194.688 73.2705 194.634 73.1892 194.634 73.135C194.634 72.9995 194.661 72.8098 194.742 72.593L195.23 71.1837C195.257 71.1295 195.284 71.1295 195.311 71.1295H197.019C197.046 71.1295 197.073 71.1566 197.1 71.1837L197.832 73.135C197.859 73.1892 197.859 73.2434 197.859 73.2705C197.832 73.2976 197.832 73.3247 197.805 73.3247C197.777 73.3247 197.75 73.3518 197.75 73.3789C197.75 73.406 197.777 73.4331 197.805 73.4331C197.859 73.4331 197.913 73.4331 197.967 73.4331C198.103 73.4331 198.238 73.4331 198.374 73.4331C198.509 73.4331 198.645 73.4331 198.753 73.4331C198.861 73.4331 198.97 73.4331 199.051 73.4331C199.132 73.4331 199.187 73.4331 199.214 73.4331C199.268 73.4331 199.295 73.4331 199.322 73.4331C199.349 73.4331 199.376 73.406 199.376 73.3789C199.268 73.406 199.241 73.406 199.187 73.406ZM196.802 70.8857H195.284C195.257 70.8857 195.257 70.8585 195.257 70.8314L195.962 68.6905C195.989 68.5821 196.043 68.5821 196.07 68.6905L196.829 70.8314C196.856 70.8585 196.856 70.8857 196.802 70.8857Z" fill="white"/>
<path d="M209.512 72.4033C209.485 72.4033 209.458 72.4304 209.431 72.5117C209.431 72.593 209.403 72.6743 209.349 72.7556C209.322 72.8369 209.268 72.9182 209.214 72.9724C209.105 73.0808 208.997 73.1621 208.834 73.1892C208.672 73.2163 208.482 73.2163 208.265 73.2163C208.103 73.2163 207.994 73.2163 207.886 73.2163C207.777 73.2163 207.696 73.1892 207.615 73.1892C207.534 73.1892 207.479 73.1621 207.452 73.135C207.398 73.1079 207.371 73.0808 207.344 73.0537C207.263 72.9724 207.235 72.8098 207.208 72.5388C207.181 72.2678 207.181 71.8342 207.181 71.238V69.8287C207.181 69.5306 207.181 69.2596 207.181 69.0699C207.181 68.8802 207.181 68.7176 207.181 68.6092C207.181 68.5008 207.181 68.3924 207.181 68.3111C207.181 68.2298 207.181 68.1756 207.181 68.1214C207.181 67.9859 207.208 67.8775 207.263 67.7962C207.29 67.7149 207.371 67.6878 207.506 67.6607C207.561 67.6607 207.615 67.6336 207.642 67.6336C207.696 67.6336 207.723 67.6336 207.75 67.6336C207.805 67.6336 207.805 67.6065 207.805 67.5794C207.805 67.5252 207.75 67.5252 207.669 67.5252C207.615 67.5252 207.534 67.5252 207.452 67.5252C207.371 67.5252 207.263 67.5252 207.181 67.5252C207.1 67.5252 207.019 67.5252 206.937 67.5252C206.856 67.5252 206.829 67.5252 206.829 67.5252C206.829 67.5252 206.775 67.5252 206.721 67.5252C206.666 67.5252 206.585 67.5252 206.504 67.5252C206.422 67.5252 206.314 67.5252 206.233 67.5252C206.124 67.5252 206.043 67.5252 205.935 67.5252C205.853 67.5252 205.799 67.5523 205.799 67.5794C205.799 67.6065 205.826 67.6336 205.853 67.6336C205.88 67.6336 205.935 67.6336 205.989 67.6336C206.043 67.6336 206.097 67.6336 206.124 67.6607C206.26 67.6878 206.341 67.742 206.395 67.7962C206.45 67.8775 206.477 67.9588 206.477 68.0943C206.477 68.1485 206.477 68.2298 206.477 68.284C206.477 68.3653 206.477 68.4466 206.477 68.5821C206.477 68.6905 206.477 68.8531 206.477 69.0428C206.477 69.2325 206.477 69.4764 206.477 69.8016V71.1837C206.477 71.5632 206.477 71.9155 206.477 72.2136C206.477 72.5117 206.45 72.7556 206.45 72.9182C206.422 73.0266 206.422 73.135 206.395 73.2163C206.368 73.2976 206.314 73.3518 206.233 73.3518C206.206 73.3518 206.151 73.3789 206.124 73.3789C206.097 73.3789 206.043 73.3789 206.016 73.3789C205.962 73.3789 205.962 73.406 205.962 73.4331C205.962 73.4873 206.016 73.4873 206.097 73.4873C206.151 73.4873 206.233 73.4873 206.314 73.4873C206.395 73.4873 206.477 73.4873 206.558 73.4873C206.639 73.4873 206.721 73.4873 206.775 73.4873C206.829 73.4873 206.883 73.4873 206.883 73.4873C206.992 73.4873 207.127 73.4873 207.235 73.4873C207.371 73.4873 207.506 73.4873 207.669 73.5144C207.832 73.5144 208.021 73.5144 208.238 73.5415C208.455 73.5415 208.699 73.5415 208.97 73.5415C209.078 73.5415 209.16 73.5415 209.214 73.5415C209.268 73.5415 209.322 73.5144 209.349 73.5144C209.376 73.5144 209.403 73.4873 209.403 73.4602C209.403 73.4331 209.431 73.406 209.458 73.3518C209.485 73.2976 209.485 73.2163 209.512 73.135C209.512 73.0537 209.539 72.9724 209.539 72.8911C209.539 72.8098 209.566 72.7285 209.566 72.6743C209.566 72.6201 209.566 72.5659 209.566 72.5388C209.566 72.4304 209.539 72.4033 209.512 72.4033Z" fill="white"/>
<path d="M218.916 73.406C218.889 73.406 218.834 73.406 218.753 73.406C218.672 73.406 218.618 73.406 218.563 73.3789C218.455 73.3518 218.374 73.3247 218.319 73.2434C218.292 73.1621 218.265 73.0537 218.238 72.9453C218.211 72.7827 218.211 72.5388 218.211 72.2407C218.211 71.9426 218.211 71.5903 218.211 71.2109V69.8287C218.211 69.5306 218.211 69.2596 218.211 69.0699C218.211 68.8802 218.211 68.7176 218.211 68.6092C218.211 68.5008 218.211 68.3924 218.211 68.3111C218.211 68.2298 218.211 68.1756 218.211 68.1214C218.211 67.9859 218.238 67.8775 218.292 67.7962C218.319 67.7149 218.401 67.6878 218.509 67.6607C218.563 67.6607 218.59 67.6336 218.618 67.6336C218.645 67.6336 218.672 67.6336 218.699 67.6336C218.753 67.6336 218.753 67.6065 218.753 67.5794C218.753 67.5252 218.699 67.5252 218.618 67.5252C218.563 67.5252 218.482 67.5252 218.401 67.5252C218.319 67.5252 218.238 67.5252 218.157 67.5252C218.076 67.5252 218.021 67.5252 217.94 67.5252C217.886 67.5252 217.832 67.5252 217.832 67.5252C217.832 67.5252 217.777 67.5252 217.723 67.5252C217.669 67.5252 217.588 67.5252 217.506 67.5252C217.425 67.5252 217.344 67.5252 217.263 67.5252C217.181 67.5252 217.1 67.5252 217.046 67.5252C216.964 67.5252 216.91 67.5523 216.91 67.5794C216.91 67.6065 216.937 67.6336 216.964 67.6336C216.992 67.6336 217.019 67.6336 217.073 67.6336C217.127 67.6336 217.154 67.6336 217.208 67.6607C217.371 67.6878 217.452 67.8504 217.479 68.0943C217.479 68.1485 217.479 68.2298 217.479 68.284C217.479 68.3382 217.479 68.4466 217.479 68.5821C217.479 68.6905 217.479 68.8531 217.479 69.0428C217.479 69.2325 217.479 69.4764 217.479 69.8016V71.1837C217.479 71.5632 217.479 71.9155 217.479 72.2136C217.479 72.5117 217.452 72.7556 217.452 72.9182C217.425 73.0266 217.425 73.135 217.398 73.2163C217.371 73.2976 217.317 73.3518 217.235 73.3518C217.208 73.3518 217.154 73.3789 217.127 73.3789C217.073 73.3789 217.046 73.3789 217.019 73.3789C216.964 73.3789 216.964 73.406 216.964 73.4331C216.964 73.4873 217.019 73.4873 217.1 73.4873C217.154 73.4873 217.235 73.4873 217.317 73.4873C217.398 73.4873 217.479 73.4873 217.561 73.4873C217.642 73.4873 217.696 73.4873 217.777 73.4873C217.859 73.4873 217.886 73.4873 217.886 73.4873C217.886 73.4873 217.94 73.4873 217.994 73.4873C218.048 73.4873 218.13 73.4873 218.211 73.4873C218.292 73.4873 218.401 73.4873 218.509 73.4873C218.618 73.4873 218.726 73.4873 218.834 73.4873C218.916 73.4873 218.97 73.4602 218.97 73.4331C218.97 73.406 218.97 73.406 218.916 73.406Z" fill="white"/>
<path d="M230.433 67.471C230.406 67.471 230.379 67.471 230.352 67.471C230.325 67.471 230.271 67.4981 230.216 67.4981C230.162 67.4981 230.081 67.5252 229.973 67.5252C229.891 67.5252 229.783 67.5252 229.647 67.5252H226.666C226.612 67.5252 226.531 67.5252 226.395 67.5252C226.26 67.5252 226.151 67.4981 226.043 67.4981C225.935 67.4981 225.853 67.471 225.799 67.4439C225.745 67.4168 225.718 67.4168 225.691 67.4168C225.664 67.4168 225.664 67.4439 225.637 67.471C225.637 67.4981 225.609 67.5523 225.609 67.5794C225.609 67.6065 225.582 67.6336 225.582 67.7149C225.555 67.7962 225.555 67.8775 225.528 67.9859C225.501 68.0943 225.501 68.1756 225.474 68.2569C225.447 68.3382 225.447 68.3924 225.447 68.4195C225.447 68.4737 225.447 68.5008 225.474 68.5008C225.501 68.5008 225.528 68.4737 225.555 68.4195C225.555 68.3924 225.582 68.3653 225.609 68.3382C225.637 68.3111 225.664 68.2569 225.691 68.1756C225.718 68.1214 225.772 68.0943 225.799 68.0672C225.853 68.0401 225.88 68.013 225.962 67.9859C226.016 67.9588 226.097 67.9588 226.179 67.9317C226.26 67.9046 226.368 67.9046 226.504 67.9046L227.669 67.8775V71.238C227.669 71.6174 227.669 71.9697 227.669 72.2678C227.669 72.5659 227.642 72.8098 227.642 72.9724C227.615 73.0808 227.615 73.1892 227.588 73.2705C227.561 73.3518 227.506 73.406 227.425 73.406C227.398 73.406 227.344 73.4331 227.317 73.4331C227.263 73.4331 227.235 73.4331 227.208 73.4331C227.154 73.4331 227.154 73.4602 227.154 73.4873C227.154 73.5415 227.208 73.5415 227.29 73.5415C227.344 73.5415 227.425 73.5415 227.506 73.5415C227.588 73.5415 227.669 73.5415 227.75 73.5415C227.832 73.5415 227.886 73.5415 227.967 73.5415C228.021 73.5415 228.076 73.5415 228.076 73.5415C228.076 73.5415 228.13 73.5415 228.184 73.5415C228.238 73.5415 228.319 73.5415 228.401 73.5415C228.482 73.5415 228.59 73.5415 228.699 73.5415C228.807 73.5415 228.916 73.5415 229.024 73.5415C229.105 73.5415 229.16 73.5144 229.16 73.4873C229.16 73.4602 229.132 73.4331 229.105 73.4331C229.078 73.4331 229.024 73.4331 228.943 73.4331C228.861 73.4331 228.807 73.4331 228.753 73.406C228.645 73.3789 228.563 73.3518 228.509 73.2705C228.455 73.1892 228.455 73.0808 228.428 72.9724C228.401 72.8098 228.401 72.5659 228.401 72.2678C228.401 71.9697 228.401 71.6174 228.401 71.238V67.8775L229.403 67.9046C229.593 67.9046 229.756 67.9317 229.864 67.9588C230 67.9859 230.081 68.013 230.162 68.0401C230.244 68.0672 230.298 68.1214 230.325 68.1756C230.352 68.2298 230.379 68.284 230.379 68.3382V68.4195C230.379 68.4737 230.379 68.5279 230.406 68.5279C230.406 68.555 230.433 68.555 230.46 68.555C230.487 68.555 230.515 68.5279 230.515 68.4466C230.515 68.4195 230.515 68.3924 230.515 68.3111C230.515 68.2298 230.515 68.1485 230.515 68.0672C230.515 67.9859 230.515 67.8775 230.515 67.7962C230.515 67.7149 230.515 67.6336 230.515 67.5794C230.515 67.5523 230.515 67.5252 230.515 67.5252C230.46 67.471 230.433 67.471 230.433 67.471Z" fill="white"/>
<path d="M242.981 73.406C242.926 73.406 242.899 73.406 242.845 73.406C242.791 73.406 242.737 73.3789 242.683 73.3789C242.628 73.3789 242.601 73.3518 242.547 73.3247C242.493 73.2976 242.439 73.2434 242.384 73.1892C242.33 73.135 242.276 73.0266 242.195 72.9182C242.113 72.8098 242.059 72.6743 242.005 72.4846C241.924 72.2949 241.815 72.0239 241.707 71.7258C241.599 71.4277 241.463 71.1024 241.328 70.7772C241.192 70.452 241.057 70.0997 240.948 69.7474C240.84 69.3951 240.704 69.097 240.596 68.7989C240.487 68.5008 240.406 68.2569 240.325 68.0672C240.244 67.8775 240.189 67.742 240.189 67.6878C240.135 67.5794 240.108 67.4981 240.081 67.4439C240.054 67.4168 240.027 67.3897 240 67.3897C239.973 67.3897 239.945 67.4168 239.918 67.4439C239.891 67.471 239.864 67.5523 239.81 67.6878L238.021 72.593C237.94 72.7827 237.859 72.9724 237.777 73.1079C237.696 73.2434 237.534 73.3247 237.371 73.3518C237.344 73.3518 237.29 73.3518 237.263 73.3518C237.208 73.3518 237.181 73.3518 237.154 73.3518C237.1 73.3518 237.073 73.3789 237.073 73.406C237.073 73.4602 237.127 73.4602 237.235 73.4602C237.344 73.4602 237.425 73.4602 237.534 73.4602C237.642 73.4602 237.723 73.4602 237.805 73.4602C237.886 73.4602 237.967 73.4602 238.021 73.4602C238.076 73.4602 238.13 73.4602 238.157 73.4602C238.184 73.4602 238.211 73.4602 238.265 73.4602C238.319 73.4602 238.374 73.4602 238.428 73.4602C238.482 73.4602 238.536 73.4602 238.618 73.4602C238.672 73.4602 238.726 73.4602 238.78 73.4602C238.861 73.4602 238.889 73.4331 238.889 73.406C238.889 73.3789 238.861 73.3518 238.807 73.3518H238.645C238.563 73.3518 238.509 73.3247 238.455 73.2976C238.401 73.2705 238.347 73.1892 238.347 73.135C238.347 72.9995 238.374 72.8098 238.455 72.593L238.943 71.1837C238.97 71.1295 238.997 71.1295 239.024 71.1295H240.731C240.758 71.1295 240.786 71.1566 240.813 71.1837L241.544 73.135C241.571 73.1892 241.571 73.2434 241.571 73.2705C241.544 73.2976 241.544 73.3247 241.517 73.3247C241.49 73.3247 241.463 73.3518 241.463 73.3789C241.463 73.406 241.49 73.4331 241.517 73.4331C241.571 73.4331 241.626 73.4331 241.68 73.4331C241.815 73.4331 241.951 73.4331 242.086 73.4331C242.222 73.4331 242.357 73.4331 242.466 73.4331C242.574 73.4331 242.683 73.4331 242.764 73.4331C242.845 73.4331 242.899 73.4331 242.926 73.4331C242.981 73.4331 243.008 73.4331 243.035 73.4331C243.062 73.4331 243.089 73.406 243.089 73.3789C243.062 73.406 243.035 73.406 242.981 73.406ZM240.623 70.8857H239.105C239.078 70.8857 239.078 70.8585 239.078 70.8314L239.783 68.6905C239.81 68.5821 239.864 68.5821 239.891 68.6905L240.65 70.8314C240.65 70.8585 240.65 70.8857 240.623 70.8857Z" fill="white"/>
<path d="M185.826 67.9588C185.799 67.9317 185.745 67.8775 185.691 67.8233C185.637 67.7691 185.528 67.7149 185.42 67.6878C185.311 67.6336 185.149 67.6065 184.986 67.5523C184.824 67.5252 184.607 67.4981 184.363 67.4981C184.173 67.4981 183.983 67.4981 183.794 67.4981C183.604 67.4981 183.469 67.4981 183.36 67.4981C183.333 67.4981 183.306 67.4981 183.252 67.4981C183.198 67.4981 183.116 67.4981 183.035 67.4981C182.954 67.4981 182.845 67.4981 182.764 67.4981C182.683 67.4981 182.574 67.4981 182.493 67.4981C182.412 67.4981 182.357 67.5252 182.357 67.5523C182.357 67.5794 182.385 67.6065 182.412 67.6065C182.439 67.6065 182.493 67.6065 182.547 67.6065C182.601 67.6065 182.656 67.6065 182.683 67.6336C182.818 67.6607 182.899 67.7149 182.954 67.7691C183.008 67.8504 183.035 67.9317 183.035 68.0672C183.035 68.1214 183.035 68.2027 183.035 68.2569C183.035 68.3382 183.035 68.4195 183.035 68.555C183.035 68.6634 183.035 68.826 183.035 69.0157C183.035 69.2054 183.035 69.4493 183.035 69.7745V71.1567C183.035 71.5361 183.035 71.8884 183.035 72.1865C183.035 72.4846 183.008 72.7285 183.008 72.8911C182.981 72.9995 182.981 73.1079 182.954 73.1892C182.927 73.2705 182.872 73.3247 182.791 73.3247C182.764 73.3247 182.71 73.3518 182.683 73.3518C182.656 73.3518 182.601 73.3518 182.574 73.3518C182.52 73.3518 182.52 73.3789 182.52 73.406C182.52 73.4602 182.574 73.4602 182.656 73.4602C182.71 73.4602 182.791 73.4602 182.872 73.4602C182.954 73.4602 183.035 73.4602 183.116 73.4602C183.198 73.4602 183.252 73.4602 183.333 73.4602C183.414 73.4602 183.414 73.4602 183.441 73.4602C183.441 73.4602 183.496 73.4602 183.55 73.4602C183.604 73.4602 183.685 73.4602 183.767 73.4602C183.848 73.4602 183.956 73.4602 184.065 73.4602C184.173 73.4602 184.282 73.4602 184.39 73.4602C184.471 73.4602 184.525 73.4331 184.525 73.406C184.525 73.3789 184.498 73.3518 184.471 73.3518C184.444 73.3518 184.39 73.3518 184.309 73.3518C184.227 73.3518 184.173 73.3518 184.119 73.3247C184.011 73.2976 183.929 73.2705 183.875 73.1892C183.848 73.1079 183.821 72.9995 183.794 72.8911C183.767 72.7285 183.767 72.4846 183.767 72.1865C183.767 71.8884 183.767 71.5361 183.767 71.1567V67.9046C183.767 67.8233 183.794 67.7691 183.821 67.742C183.848 67.7149 183.902 67.7149 183.956 67.7149C184.011 67.7149 184.092 67.7149 184.146 67.7149C184.2 67.7149 184.254 67.7149 184.336 67.7149C184.417 67.7149 184.498 67.7149 184.607 67.742C184.715 67.7691 184.796 67.7962 184.905 67.8504C185.013 67.9046 185.122 67.9859 185.23 68.0943C185.338 68.2027 185.42 68.3111 185.474 68.4195C185.528 68.5279 185.582 68.6363 185.609 68.7718C185.637 68.8802 185.664 68.9886 185.664 69.0699C185.664 69.1783 185.664 69.2325 185.664 69.3138C185.664 69.5035 185.637 69.6661 185.555 69.8287C185.474 69.9913 185.393 70.1268 185.257 70.2352C185.149 70.3436 184.986 70.452 184.824 70.5062C184.661 70.5604 184.471 70.6146 184.282 70.6146C184.2 70.6146 184.146 70.6146 184.119 70.6146C184.092 70.6146 184.065 70.6418 184.065 70.6689C184.065 70.696 184.065 70.6959 184.092 70.723C184.119 70.7501 184.119 70.723 184.146 70.723C184.173 70.723 184.2 70.723 184.227 70.723C184.254 70.723 184.282 70.723 184.309 70.723C184.58 70.723 184.851 70.6688 185.095 70.5875C185.338 70.5062 185.528 70.3707 185.718 70.2081C185.908 70.0455 186.016 69.8558 186.124 69.6119C186.233 69.368 186.26 69.1241 186.26 68.8531C186.26 68.6363 186.206 68.4466 186.124 68.284C186.016 68.1756 185.935 68.0672 185.826 67.9588Z" fill="white"/>
</svg>
