<svg width="479" height="478" viewBox="0 0 479 478" fill="none" xmlns="http://www.w3.org/2000/svg">
<path d="M279.07 371.1C278.783 343.217 262.829 332.151 251.906 327.839C245.582 325.252 238.539 325.252 232.072 327.408C204.764 336.606 203.039 364.489 203.039 364.489C198.44 387.198 219.136 405.882 219.136 405.882C193.841 428.591 152.447 451.73 152.447 451.73L167.97 477.314C209.363 458.629 241.989 426.147 241.989 426.147C253.774 446.7 317.445 477.17 317.445 477.17L327.793 446.7C295.742 434.771 264.122 404.301 264.122 404.301C274.902 396.54 279.07 371.1 279.07 371.1ZM241.27 386.335C241.27 386.335 231.209 373.975 232.503 364.92C232.503 364.92 232.503 356.153 241.845 356.153C241.845 356.153 248.888 356.44 249.031 364.633C249.031 364.633 248.6 377.28 241.27 386.335Z" fill="#FFD54F"/>
<path d="M201.027 106.07C201.314 133.953 217.268 145.019 228.191 149.331C234.515 151.918 241.558 151.918 248.025 149.762C275.333 140.564 277.058 112.681 277.058 112.681C281.657 89.9724 260.961 71.288 260.961 71.288C286.256 48.5793 327.649 25.4395 327.649 25.4395L312.271 0C270.878 18.6844 238.252 51.1664 238.252 51.1664C226.323 30.4699 162.652 0 162.652 0L152.304 30.4699C184.355 42.3991 215.974 72.869 215.974 72.869C205.051 80.7739 201.027 106.07 201.027 106.07ZM238.683 90.8348C238.683 90.8348 248.744 103.195 247.45 112.25C247.45 112.25 247.45 121.017 238.108 121.017C238.108 121.017 231.066 120.73 230.922 112.537C230.922 112.537 231.497 99.8895 238.683 90.8348Z" fill="#FFD54F"/>
<path d="M140.374 373.687C153.597 375.699 174.294 360.608 174.294 360.608C193.553 340.487 189.96 321.371 185.217 310.735C182.486 304.555 177.456 299.525 171.419 296.506C145.405 283.859 124.708 302.543 124.708 302.543C105.449 315.478 107.174 343.361 107.174 343.361C73.1108 341.78 27.406 329.276 27.406 329.276L20.5071 358.452C63.05 374.118 109.186 373.831 109.186 373.831C103.15 396.971 127.152 463.372 127.152 463.372L155.897 448.856C141.524 417.524 140.374 373.687 140.374 373.687ZM145.405 323.383C145.405 323.383 151.585 317.059 158.197 323.671C158.197 323.671 162.939 328.701 157.334 334.881C157.334 334.881 148.136 343.505 136.638 344.942C136.638 344.942 138.219 328.989 145.405 323.383Z" fill="#FFD54F"/>
<path d="M338.285 103.626C325.062 101.614 304.366 116.705 304.366 116.705C285.106 136.827 288.7 155.943 293.443 166.578C296.173 172.758 301.204 177.789 307.24 180.807C333.255 193.455 353.951 174.771 353.951 174.771C373.21 161.835 371.486 133.953 371.486 133.953C405.549 135.533 451.254 148.038 451.254 148.038L458.152 118.861C415.61 103.195 369.474 103.483 369.474 103.483C375.51 80.3428 351.508 13.9414 351.508 13.9414L322.763 28.4577C337.135 59.6462 338.285 103.626 338.285 103.626ZM333.255 153.787C333.255 153.787 327.074 160.111 320.463 153.499C320.463 153.499 315.72 148.469 321.325 142.289C321.325 142.289 330.524 133.665 342.022 132.228C342.022 132.228 340.441 148.181 333.255 153.787Z" fill="#FFD54F"/>
<path d="M1.10413 317.059L31.7177 327.264C43.5033 295.069 73.8294 263.45 73.8294 263.45C81.5906 274.229 107.03 278.253 107.03 278.253C134.913 277.822 145.836 261.869 150.148 250.945C152.591 244.621 152.735 237.579 150.579 231.111C141.237 203.803 113.354 202.222 113.354 202.222C90.5016 197.623 72.1047 218.463 72.1047 218.463C49.2523 193.168 25.9687 151.918 25.9687 151.918L0.385498 167.584C19.2136 208.834 51.9831 241.316 51.9831 241.316C31.2866 253.389 1.10413 317.059 1.10413 317.059ZM112.923 231.686C112.923 231.686 121.69 231.686 121.834 240.885C121.834 240.885 121.546 247.927 113.354 248.215C113.354 248.215 100.706 247.783 91.6514 240.597C91.5077 240.597 103.868 230.536 112.923 231.686Z" fill="#FFD54F"/>
<path d="M477.555 160.111L446.942 149.906C435.156 182.101 404.83 213.72 404.83 213.72C397.069 202.941 371.629 198.917 371.629 198.917C343.747 199.348 332.823 215.301 328.512 226.225C326.068 232.548 325.925 239.591 328.08 246.059C337.423 273.367 365.305 274.948 365.305 274.948C388.014 279.547 406.555 258.707 406.555 258.707C429.407 284.002 452.691 325.252 452.691 325.252L478.274 309.586C459.446 268.336 426.676 235.854 426.676 235.854C447.373 223.925 477.555 160.111 477.555 160.111ZM365.593 245.484C365.593 245.484 356.826 245.484 356.682 236.285C356.682 236.285 356.969 229.243 365.162 228.955C365.162 228.955 377.81 229.387 386.864 236.573C387.152 236.573 374.791 246.777 365.593 245.484Z" fill="#FFD54F"/>
<path d="M104.73 139.27C102.575 152.493 117.666 173.19 117.666 173.19C137.644 192.449 156.759 189 167.539 184.4C173.863 181.67 178.749 176.783 181.768 170.603C194.415 144.588 175.875 123.892 175.875 123.892C162.939 104.632 135.2 106.213 135.2 106.213C136.781 72.1504 149.573 26.5893 149.573 26.5893L120.397 19.6904C104.587 62.2333 104.874 108.369 104.874 108.369C81.7343 102.045 15.333 125.904 15.333 125.904L29.7056 154.793C60.7504 140.276 104.73 139.27 104.73 139.27ZM154.747 144.445C154.747 144.445 161.071 150.625 154.46 157.236C154.46 157.236 149.429 161.979 143.249 156.374C143.249 156.374 134.625 147.032 133.188 135.534C133.332 135.677 149.286 137.114 154.747 144.445Z" fill="#FFD54F"/>
<path d="M374.073 337.9C376.229 324.677 361.137 303.98 361.137 303.98C341.16 284.721 322.044 288.17 311.265 292.77C304.941 295.5 300.054 300.387 297.036 306.567C284.388 332.582 302.928 353.278 302.928 353.278C315.864 372.537 343.603 370.956 343.603 370.956C342.022 405.02 329.23 450.581 329.23 450.581L358.407 457.479C374.216 414.937 373.929 368.801 373.929 368.801C397.069 374.837 463.47 351.122 463.47 351.122L449.098 322.233C418.053 336.893 374.073 337.9 374.073 337.9ZM323.912 332.725C323.912 332.725 317.589 326.545 324.2 319.934C324.2 319.934 329.23 315.191 335.411 320.796C335.411 320.796 344.034 330.138 345.471 341.636C345.328 341.636 329.518 340.055 323.912 332.725Z" fill="#FFD54F"/>
<path d="M241.845 184.113C211.95 184.113 187.804 208.259 187.804 238.154C187.804 268.049 211.95 292.195 241.845 292.195C271.74 292.195 295.886 268.049 295.886 238.154C295.886 208.259 271.74 184.113 241.845 184.113ZM241.845 263.018C228.335 263.018 217.412 252.095 217.412 238.585C217.412 225.075 228.335 214.152 241.845 214.152C255.355 214.152 266.278 225.075 266.278 238.585C266.278 252.095 255.355 263.018 241.845 263.018Z" fill="#FFD54F"/>
</svg>
