<svg width="205" height="33" viewBox="0 0 205 33" fill="none" xmlns="http://www.w3.org/2000/svg">
<path d="M10.0414 31.0675C9.85747 31.0675 9.56322 31.0675 9.1954 31.0307C8.82759 30.994 8.49655 30.9572 8.2023 30.9204C7.57701 30.8468 7.17241 30.5894 6.98851 30.1848C6.8046 29.7802 6.65747 29.2652 6.62069 28.6767C6.51034 27.794 6.43678 26.6169 6.43678 25.0721C6.43678 23.5273 6.4 21.7986 6.4 19.8124V12.6399C6.4 11.0583 6.4 9.77098 6.4 8.74109C6.4 7.74799 6.4 6.93879 6.4 6.3135C6.4 5.68821 6.4 5.21005 6.43678 4.84224C6.43678 4.47442 6.47356 4.14339 6.51034 3.81236C6.54713 3.11351 6.69425 2.56178 6.91494 2.19397C7.13563 1.82615 7.50345 1.60546 8.05517 1.49512C8.31264 1.45834 8.49655 1.42155 8.64368 1.38477C8.7908 1.38477 8.93793 1.34798 9.08506 1.34798C9.30575 1.34798 9.41609 1.27443 9.41609 1.09052C9.41609 0.86983 9.1954 0.759488 8.75402 0.759488C8.45977 0.759488 8.09195 0.759479 7.65057 0.79626C7.20919 0.79626 6.8046 0.833044 6.4 0.833044C5.9954 0.833044 5.62759 0.869828 5.33333 0.869828C5.0023 0.869828 4.81839 0.906612 4.78161 0.906612C4.74483 0.906612 4.56092 0.90661 4.22988 0.869828C3.89885 0.869828 3.56782 0.833044 3.16322 0.833044C2.75862 0.833044 2.31724 0.79626 1.83908 0.79626C1.36092 0.79626 0.993103 0.759488 0.662069 0.759488C0.22069 0.759488 0 0.86983 0 1.09052C0 1.23765 0.110345 1.34798 0.331034 1.34798C0.478161 1.34798 0.662069 1.34799 0.91954 1.38477C1.17701 1.42155 1.3977 1.45834 1.61839 1.49512C2.46437 1.67903 2.94253 2.45144 3.01609 3.77557C3.05287 4.10661 3.05287 4.43765 3.08966 4.80546C3.08966 5.17328 3.12644 5.65144 3.12644 6.27673C3.12644 6.90202 3.12644 7.7112 3.12644 8.70431C3.12644 9.69741 3.12644 11.0216 3.12644 12.6032V19.7756C3.12644 21.725 3.12644 23.4905 3.08966 25.0353C3.08966 26.5802 3.01609 27.794 2.90575 28.6399C2.83218 29.2284 2.72184 29.7434 2.57471 30.148C2.42759 30.5526 2.13333 30.8101 1.72874 30.8836C1.54483 30.9204 1.32414 30.994 1.10345 30.994C0.882759 31.0307 0.698851 31.0307 0.478161 31.0307C0.257471 31.0307 0.147126 31.1043 0.147126 31.2882C0.147126 31.5089 0.367816 31.6193 0.809195 31.6193C1.10345 31.6193 1.47126 31.6193 1.91264 31.5825C2.35402 31.5825 2.75862 31.5457 3.16322 31.5457C3.56782 31.5457 3.93563 31.5089 4.22988 31.5089C4.56092 31.5089 4.70805 31.4721 4.78161 31.4721C4.81839 31.4721 5.0023 31.4721 5.33333 31.5089C5.62759 31.5089 6.03218 31.5457 6.51034 31.5457C6.9885 31.5457 7.50345 31.5825 8.09195 31.5825C8.68046 31.5825 9.23218 31.6193 9.82069 31.6193C10.2621 31.6193 10.4828 31.5089 10.4828 31.2882C10.3724 31.1411 10.2621 31.0675 10.0414 31.0675Z" fill="#212121"/>
<path d="M107.145 31.0675C106.961 31.0675 106.667 31.0675 106.299 31.0307C105.931 30.994 105.6 30.9572 105.306 30.9204C104.68 30.8468 104.276 30.5894 104.092 30.1848C103.908 29.7802 103.761 29.2652 103.724 28.6767C103.614 27.794 103.54 26.6169 103.54 25.0721C103.54 23.5273 103.503 21.7986 103.503 19.8124V12.6399C103.503 11.0583 103.503 9.77098 103.503 8.74109C103.503 7.74799 103.503 6.93879 103.503 6.3135C103.503 5.68821 103.503 5.21005 103.54 4.84224C103.54 4.47442 103.577 4.14339 103.614 3.81236C103.651 3.11351 103.798 2.56178 104.018 2.19397C104.239 1.82615 104.607 1.60546 105.159 1.49512C105.416 1.45834 105.6 1.42155 105.747 1.38477C105.894 1.38477 106.041 1.34798 106.188 1.34798C106.409 1.34798 106.52 1.27443 106.52 1.09052C106.52 0.86983 106.299 0.759488 105.857 0.759488C105.563 0.759488 105.195 0.759479 104.754 0.79626C104.313 0.79626 103.908 0.833044 103.503 0.833044C103.099 0.833044 102.731 0.869828 102.437 0.869828C102.106 0.869828 101.922 0.906612 101.885 0.906612C101.848 0.906612 101.664 0.90661 101.333 0.869828C101.002 0.869828 100.671 0.833044 100.267 0.833044C99.8621 0.833044 99.4207 0.79626 98.9425 0.79626C98.4644 0.79626 98.0965 0.759488 97.7655 0.759488C97.3241 0.759488 97.1034 0.86983 97.1034 1.09052C97.1034 1.23765 97.2138 1.34798 97.4345 1.34798C97.5816 1.34798 97.7655 1.34799 98.023 1.38477C98.2804 1.42155 98.5011 1.45834 98.7218 1.49512C99.5678 1.67903 100.046 2.45144 100.12 3.77557C100.156 4.10661 100.156 4.43765 100.193 4.80546C100.193 5.17328 100.23 5.65144 100.23 6.27673C100.23 6.90202 100.23 7.7112 100.23 8.70431C100.23 9.69741 100.23 11.0216 100.23 12.6032V19.7756C100.23 21.725 100.23 23.4905 100.193 25.0353C100.193 26.5802 100.12 27.794 100.009 28.6399C99.9356 29.2284 99.8253 29.7434 99.6782 30.148C99.531 30.5526 99.2368 30.8101 98.8322 30.8836C98.6483 30.9204 98.4276 30.994 98.2069 30.994C97.9862 31.0307 97.8023 31.0307 97.5816 31.0307C97.3609 31.0307 97.2506 31.1043 97.2506 31.2882C97.2506 31.5089 97.4713 31.6193 97.9126 31.6193C98.2069 31.6193 98.5747 31.6193 99.0161 31.5825C99.4575 31.5825 99.8621 31.5457 100.267 31.5457C100.671 31.5457 101.039 31.5089 101.333 31.5089C101.664 31.5089 101.848 31.4721 101.885 31.4721C101.922 31.4721 102.106 31.4721 102.437 31.5089C102.768 31.5089 103.136 31.5457 103.614 31.5457C104.092 31.5457 104.607 31.5825 105.195 31.5825C105.784 31.5825 106.336 31.6193 106.924 31.6193C107.366 31.6193 107.586 31.5089 107.586 31.2882C107.439 31.1411 107.366 31.0675 107.145 31.0675Z" fill="#212121"/>
<path d="M150.4 31.0675C150.216 31.0675 149.922 31.0675 149.554 31.0307C149.186 30.994 148.855 30.9572 148.561 30.9204C147.936 30.8468 147.531 30.5894 147.347 30.1848C147.163 29.7802 147.016 29.2652 146.979 28.6767C146.869 27.794 146.795 26.6169 146.795 25.0721C146.795 23.5273 146.759 21.7986 146.759 19.8124V12.6399C146.759 11.0583 146.759 9.77098 146.759 8.74109C146.759 7.74799 146.759 6.93879 146.759 6.3135C146.759 5.68821 146.759 5.21005 146.795 4.84224C146.795 4.47442 146.832 4.14339 146.869 3.81236C146.906 3.11351 147.053 2.56178 147.274 2.19397C147.494 1.82615 147.862 1.60546 148.414 1.49512C148.671 1.45834 148.855 1.42155 149.002 1.38477C149.149 1.38477 149.297 1.34798 149.444 1.34798C149.664 1.34798 149.775 1.27443 149.775 1.09052C149.775 0.86983 149.554 0.759488 149.113 0.759488C148.818 0.759488 148.451 0.759479 148.009 0.79626C147.568 0.79626 147.163 0.833044 146.759 0.833044C146.354 0.833044 145.986 0.869828 145.692 0.869828C145.361 0.869828 145.177 0.906612 145.14 0.906612C145.103 0.906612 144.92 0.90661 144.588 0.869828C144.257 0.869828 143.926 0.833044 143.522 0.833044C143.117 0.833044 142.676 0.79626 142.198 0.79626C141.72 0.79626 141.352 0.759488 141.021 0.759488C140.579 0.759488 140.359 0.86983 140.359 1.09052C140.359 1.23765 140.469 1.34798 140.69 1.34798C140.837 1.34798 141.021 1.34799 141.278 1.38477C141.536 1.42155 141.756 1.45834 141.977 1.49512C142.823 1.67903 143.301 2.45144 143.375 3.77557C143.411 4.10661 143.411 4.43765 143.448 4.80546C143.448 5.17328 143.485 5.65144 143.485 6.27673C143.485 6.90202 143.485 7.7112 143.485 8.70431C143.485 9.69741 143.485 11.0216 143.485 12.6032V19.7756C143.485 21.725 143.485 23.4905 143.448 25.0353C143.448 26.5802 143.375 27.794 143.264 28.6399C143.191 29.2284 143.08 29.7434 142.933 30.148C142.786 30.5526 142.492 30.8101 142.087 30.8836C141.903 30.9204 141.683 30.994 141.462 30.994C141.315 31.0307 141.168 31.0307 141.021 31.0307C140.91 31.0307 140.8 31.0307 140.69 31.0307C140.432 31.0307 140.101 30.994 139.697 30.9204C139.182 30.8468 138.483 30.6261 137.637 30.2583C136.791 29.8905 135.798 29.1549 134.694 27.9779C133.48 26.6905 132.193 25.1825 130.795 23.417C129.398 21.6514 127.853 19.702 126.198 17.5319C128.037 15.8399 129.287 14.2216 130.023 12.6767C130.759 11.1319 131.126 9.62385 131.126 8.07903C131.126 7.38018 131.016 6.7181 130.832 6.12959C130.611 5.54109 130.391 4.98937 130.097 4.54799C129.802 4.06983 129.508 3.70202 129.177 3.3342C128.846 3.00317 128.552 2.74569 128.331 2.525C127.228 1.75259 126.051 1.23764 124.763 1.01695C123.476 0.796263 122.152 0.722704 120.864 0.722704C120.533 0.722704 120.129 0.722706 119.651 0.759488C119.172 0.759488 118.657 0.79626 118.143 0.79626C117.628 0.79626 117.186 0.833044 116.782 0.833044C116.377 0.833044 116.12 0.869828 116.009 0.869828C115.972 0.869828 115.788 0.869826 115.457 0.833044C115.126 0.833044 114.759 0.79626 114.317 0.79626C113.876 0.79626 113.398 0.759488 112.883 0.759488C112.368 0.759488 111.89 0.722704 111.411 0.722704C110.97 0.722704 110.749 0.833047 110.749 1.05374C110.749 1.20086 110.86 1.31121 111.08 1.31121C111.264 1.31121 111.522 1.3112 111.779 1.34798C112.074 1.34798 112.294 1.38477 112.441 1.45834C113.14 1.60546 113.582 1.82615 113.802 2.19397C114.023 2.56178 114.17 3.07672 114.207 3.77557C114.244 4.10661 114.244 4.43765 114.28 4.80546C114.28 5.17328 114.317 5.65144 114.317 6.27673C114.317 6.90202 114.317 7.7112 114.317 8.70431C114.317 9.69741 114.317 11.0216 114.317 12.6032V19.7756C114.317 21.725 114.317 23.4905 114.28 25.0353C114.28 26.5802 114.207 27.794 114.097 28.6399C114.023 29.2284 113.913 29.7434 113.766 30.148C113.618 30.5526 113.324 30.8101 112.92 30.8836C112.736 30.9204 112.515 30.994 112.294 30.994C112.074 31.0307 111.89 31.0307 111.669 31.0307C111.448 31.0307 111.338 31.1043 111.338 31.2882C111.338 31.5089 111.559 31.6193 112 31.6193C112.294 31.6193 112.662 31.6193 113.103 31.5825C113.545 31.5825 113.949 31.5457 114.354 31.5457C114.759 31.5457 115.237 31.5089 115.825 31.4721C115.862 31.4721 116.046 31.4721 116.377 31.5089C116.708 31.5089 117.076 31.5457 117.554 31.5457C118.032 31.5457 118.547 31.5825 119.136 31.5825C119.724 31.5825 120.276 31.6193 120.864 31.6193C121.306 31.6193 121.526 31.5089 121.526 31.2882C121.526 31.1411 121.416 31.0307 121.195 31.0307C121.011 31.0307 120.717 31.0307 120.349 30.994C119.982 30.9572 119.651 30.9204 119.356 30.8836C118.731 30.8101 118.326 30.5526 118.143 30.148C117.959 29.7434 117.811 29.2284 117.775 28.6399C117.664 27.7572 117.591 26.5802 117.591 25.0353C117.591 23.4905 117.554 21.7618 117.554 19.7756V18.7825C117.554 18.5618 117.664 18.4514 117.848 18.4514L122.887 18.525C123.071 18.525 123.255 18.5986 123.402 18.7825C123.586 19.0399 123.844 19.4078 124.211 19.8491C124.543 20.2905 124.91 20.8055 125.315 21.3572C125.72 21.9089 126.124 22.4606 126.565 23.0859C127.007 23.6744 127.448 24.2629 127.89 24.8514C129.067 26.3963 130.06 27.6836 130.869 28.6767C131.678 29.6698 132.524 30.4055 133.407 30.8468C133.922 31.1411 134.51 31.3618 135.136 31.4721C135.761 31.5825 136.644 31.6193 137.784 31.6193H140.69C140.837 31.6193 140.947 31.6193 141.057 31.6193C141.094 31.6193 141.131 31.6193 141.168 31.6193C141.462 31.6193 141.83 31.6193 142.271 31.5825C142.713 31.5825 143.117 31.5457 143.522 31.5457C143.926 31.5457 144.294 31.5089 144.588 31.5089C144.92 31.5089 145.067 31.4721 145.14 31.4721C145.177 31.4721 145.361 31.4721 145.692 31.5089C145.986 31.5089 146.391 31.5457 146.869 31.5457C147.347 31.5457 147.862 31.5825 148.451 31.5825C149.039 31.5825 149.591 31.6193 150.179 31.6193C150.621 31.6193 150.841 31.5089 150.841 31.2882C150.694 31.1411 150.621 31.0675 150.4 31.0675ZM125.094 16.5388C124.616 16.8698 124.138 17.0905 123.586 17.1641C123.034 17.2744 122.52 17.3112 122.041 17.3112C121.159 17.3112 120.276 17.2376 119.43 17.1273C118.584 17.017 118.032 16.833 117.738 16.6491C117.554 16.5388 117.444 16.3917 117.444 16.171V2.81925C117.444 2.56178 117.554 2.41466 117.775 2.34109C117.995 2.30431 118.363 2.23075 118.841 2.19397C119.32 2.15719 119.871 2.1204 120.533 2.1204C122.74 2.1204 124.469 2.85603 125.72 4.29051C126.97 5.725 127.595 7.74799 127.595 10.2859C127.595 11.8307 127.375 13.1549 126.897 14.2215C126.418 15.2514 125.83 16.0239 125.094 16.5388Z" fill="#212121"/>
<path d="M46.1609 0.759488C45.3149 0.759488 44.5793 0.796263 43.954 0.833044C43.3287 0.869826 42.8874 0.906612 42.7034 0.906612C42.5931 0.906612 42.4092 0.90661 42.1149 0.869828C41.8207 0.869828 41.4897 0.833044 41.0851 0.833044C40.6805 0.833044 40.2759 0.79626 39.8345 0.79626C39.3931 0.79626 38.9149 0.759488 38.4736 0.759488C37.9218 0.759488 37.6644 0.869828 37.6644 1.05374C37.6644 1.23764 37.7747 1.34798 37.9954 1.34798C38.1425 1.34798 38.4368 1.34799 38.8414 1.38477C39.246 1.42155 39.6138 1.45833 40.0184 1.53189C40.6437 1.67902 41.0483 2.04684 41.269 2.59857C41.4897 3.15029 41.6 4.06983 41.6 5.43075L42.0414 26.1756C41.7103 25.8445 41.1954 25.3296 40.5333 24.5572C39.8345 23.8216 39.0621 22.9388 38.1793 21.9457C37.2966 20.9526 36.3034 19.9227 35.3103 18.7825C34.2805 17.679 33.2874 16.5756 32.2575 15.4721C30.6759 13.7802 29.131 12.125 27.6598 10.5434C26.1885 8.925 24.8276 7.49052 23.6506 6.20316C22.4368 4.91581 21.4805 3.84913 20.6713 3.00316C19.8988 2.15718 19.4207 1.64224 19.2736 1.45834C19.0529 1.23765 18.7954 0.980171 18.5011 0.649136C18.2069 0.318102 17.9862 0.17098 17.8391 0.17098C17.692 0.17098 17.5448 0.3181 17.508 0.612352C17.4345 0.906605 17.3977 1.42156 17.3977 2.23075L17.3609 25.6238C17.3609 27.4629 17.2874 28.7871 17.1402 29.5227C16.9931 30.2583 16.6621 30.6997 16.1471 30.8468C15.8529 30.9572 15.5218 31.0308 15.1908 31.0675C14.8598 31.1043 14.6023 31.1043 14.4552 31.1043C14.2345 31.1043 14.1241 31.1779 14.1241 31.3618C14.1241 31.5825 14.3448 31.6928 14.7862 31.6928C15.7057 31.6928 16.5517 31.656 17.2874 31.6193C18.023 31.5825 18.5011 31.5457 18.6851 31.5457C18.869 31.5457 19.3471 31.5825 20.1195 31.6193C20.892 31.656 21.8483 31.6928 23.0253 31.6928C23.5034 31.6928 23.7609 31.5825 23.7609 31.3618C23.7609 31.2147 23.6506 31.1043 23.4299 31.1043C23.246 31.1043 22.9517 31.1043 22.5471 31.0675C22.1425 31.0308 21.7747 30.9572 21.3701 30.8468C21.1126 30.7733 20.8552 30.6261 20.6713 30.4422C20.4874 30.2583 20.3402 29.9641 20.1931 29.5963C20.046 29.2285 19.9724 28.7503 19.8988 28.1986C19.8253 27.6468 19.7885 26.948 19.7517 26.102L19.2368 6.53419C19.5678 6.90201 20.0828 7.49052 20.7816 8.26293C21.4805 9.03535 22.3264 9.95489 23.2828 11.0216C24.2391 12.0882 25.269 13.2284 26.4092 14.479C27.5494 15.7296 28.6897 16.9802 29.9034 18.2675C31.0069 19.4445 32.1471 20.6583 33.3241 21.9089C34.5379 23.1595 35.6414 24.3365 36.6713 25.4032C37.7011 26.4698 38.5839 27.3894 39.3195 28.0882C40.0552 28.8239 40.4598 29.2284 40.5701 29.3388C41.1218 29.8905 41.5632 30.3319 41.8942 30.6629C42.2253 30.994 42.5195 31.2514 42.7402 31.4721C42.9609 31.656 43.1448 31.8032 43.2552 31.8767C43.3655 31.9503 43.4759 31.9871 43.5494 31.9871C43.623 31.9871 43.6965 31.9503 43.7333 31.9135C43.7701 31.8767 43.8069 31.7296 43.8437 31.5457C43.8805 31.3618 43.8805 31.0675 43.9172 30.6997C43.9172 30.3319 43.954 29.7802 43.954 29.1181L44.0276 5.17328C44.0276 3.95949 44.1011 3.07672 44.2851 2.525C44.4322 2.01006 44.8736 1.67902 45.5356 1.53189C45.7931 1.49511 45.977 1.45833 46.1241 1.42155C46.2713 1.42155 46.4184 1.38477 46.5287 1.38477C46.823 1.38477 46.9701 1.27443 46.9701 1.09052C46.8965 0.833049 46.6391 0.759488 46.1609 0.759488Z" fill="#212121"/>
<path d="M65.1034 19.1135C64.6621 18.3779 64.0368 17.5687 63.2644 16.7595C62.4919 15.9503 61.4988 15.0675 60.2851 14.1112L59.1448 13.2285C58.1517 12.456 57.3425 11.794 56.7172 11.1687C56.0919 10.5802 55.577 10.0284 55.1724 9.47672C54.8046 8.96178 54.5103 8.44684 54.3632 7.9319C54.2161 7.41696 54.1425 6.90201 54.1425 6.3135C54.1425 4.80546 54.6207 3.66523 55.577 2.81925C56.5333 1.97327 57.7471 1.56868 59.1448 1.56868C60.0644 1.56868 60.8368 1.64224 61.4621 1.82615C62.0874 2.01006 62.6023 2.23074 63.0069 2.45143C63.4115 2.7089 63.7057 2.92959 63.8896 3.18707C64.0736 3.44454 64.2207 3.59167 64.2575 3.70202C64.4046 3.92271 64.5149 4.25373 64.5885 4.69511C64.6988 5.13649 64.7356 5.50432 64.7724 5.72501C64.8092 5.87213 64.8092 6.01925 64.846 6.12959C64.8828 6.23994 64.9563 6.27673 65.1034 6.27673C65.2874 6.27673 65.3977 5.94569 65.3977 5.32041C65.3977 3.9227 65.4345 2.89282 65.4713 2.19397C65.508 1.49512 65.5448 1.09051 65.5448 0.980168C65.5448 0.79626 65.3977 0.68592 65.1402 0.68592C64.9931 0.68592 64.8092 0.685918 64.5885 0.649136C64.3678 0.612355 64.0736 0.575575 63.7057 0.502012C63.1908 0.354886 62.6391 0.281327 62.0138 0.207764C61.3885 0.1342 60.6897 0.0974121 59.9172 0.0974121C58.5931 0.0974121 57.4529 0.281318 56.3862 0.612352C55.3563 0.980168 54.4736 1.45833 53.7379 2.1204C53.0023 2.78247 52.4506 3.55489 52.046 4.43765C51.6414 5.32041 51.4575 6.35028 51.4575 7.41695C51.4575 8.1158 51.531 8.81465 51.6782 9.47672C51.8253 10.1388 52.0828 10.8376 52.4874 11.5733C52.8919 12.3089 53.4069 13.0445 54.1057 13.817C54.8046 14.5894 55.6874 15.3986 56.754 16.3181L58.5931 17.8262C59.4759 18.5618 60.2115 19.2239 60.8 19.8124C61.3885 20.4009 61.8667 20.9894 62.2345 21.5411C62.6023 22.0928 62.8598 22.6813 63.0437 23.2698C63.2276 23.8583 63.3011 24.5204 63.3011 25.2193C63.3011 25.8813 63.1908 26.5434 62.9333 27.1687C62.6759 27.8307 62.3448 28.4193 61.8667 28.8974C61.3885 29.4124 60.8 29.817 60.0644 30.148C59.3287 30.479 58.4828 30.6261 57.4897 30.6261C56.7908 30.6261 56.1287 30.5526 55.5034 30.4055C54.8414 30.2583 54.2529 30.0009 53.7011 29.7066C53.1494 29.3756 52.6713 28.9342 52.3034 28.4193C51.9356 27.9043 51.6414 27.2422 51.4942 26.4698C51.4575 26.1756 51.4207 25.8813 51.3839 25.6238C51.3839 25.3664 51.3471 25.1457 51.3471 24.9618C51.3471 24.6675 51.2368 24.5204 51.0529 24.5204C50.869 24.5204 50.7586 24.7411 50.7218 25.1825C50.6851 25.5135 50.6483 26.0652 50.6115 26.8009C50.5747 27.5733 50.5379 28.456 50.5379 29.4859C50.5379 30.0376 50.5747 30.4055 50.6115 30.5526C50.6483 30.7365 50.8322 30.8836 51.1264 31.0307C51.9724 31.4353 52.8552 31.6928 53.7747 31.8767C54.6942 32.0238 55.6506 32.0974 56.6069 32.0974C57.7103 32.0974 58.8138 31.9503 59.8805 31.6928C60.9471 31.4353 61.9034 30.994 62.7862 30.3687C63.4851 29.8905 64.0736 29.3388 64.5149 28.7135C64.9563 28.0882 65.3241 27.4997 65.5816 26.8376C65.8391 26.2124 66.023 25.6239 66.0965 25.0353C66.2069 24.4468 66.2437 23.9687 66.2437 23.5641C66.2437 22.7549 66.1701 21.9825 65.9862 21.2101C65.8759 20.6215 65.5816 19.8491 65.1034 19.1135Z" fill="#212121"/>
<path d="M169.195 19.1135C168.754 18.3779 168.129 17.5687 167.356 16.7595C166.584 15.9503 165.591 15.0675 164.377 14.1112L163.237 13.2285C162.244 12.456 161.434 11.794 160.809 11.1687C160.184 10.5802 159.669 10.0284 159.264 9.47672C158.897 8.96178 158.602 8.44684 158.455 7.9319C158.308 7.41696 158.234 6.90201 158.234 6.3135C158.234 4.80546 158.713 3.66523 159.669 2.81925C160.625 1.97327 161.839 1.56868 163.237 1.56868C164.156 1.56868 164.929 1.64224 165.554 1.82615C166.179 2.01006 166.694 2.23074 167.099 2.45143C167.503 2.7089 167.798 2.92959 167.982 3.18707C168.165 3.44454 168.313 3.59167 168.349 3.70202C168.497 3.92271 168.607 4.25373 168.68 4.69511C168.791 5.13649 168.828 5.50432 168.864 5.72501C168.901 5.87213 168.901 6.01925 168.938 6.12959C168.975 6.23994 169.048 6.27673 169.195 6.27673C169.379 6.27673 169.49 5.94569 169.49 5.32041C169.49 3.9227 169.526 2.89282 169.563 2.19397C169.6 1.49512 169.637 1.09051 169.637 0.980168C169.637 0.79626 169.49 0.68592 169.232 0.68592C169.085 0.68592 168.901 0.685918 168.68 0.649136C168.46 0.612355 168.165 0.575575 167.798 0.502012C167.283 0.354886 166.731 0.281327 166.106 0.207764C165.48 0.1342 164.782 0.0974121 164.009 0.0974121C162.685 0.0974121 161.545 0.281318 160.478 0.612352C159.448 0.980168 158.565 1.45833 157.83 2.1204C157.094 2.78247 156.543 3.55489 156.138 4.43765C155.733 5.32041 155.549 6.35028 155.549 7.41695C155.549 8.1158 155.623 8.81465 155.77 9.47672C155.917 10.1388 156.175 10.8376 156.579 11.5733C156.984 12.3089 157.499 13.0445 158.198 13.817C158.897 14.5894 159.779 15.3986 160.846 16.3181L162.685 17.8262C163.568 18.5618 164.303 19.2239 164.892 19.8124C165.48 20.4009 165.959 20.9894 166.326 21.5411C166.694 22.0928 166.952 22.6813 167.136 23.2698C167.32 23.8583 167.393 24.5204 167.393 25.2193C167.393 25.8813 167.283 26.5434 167.025 27.1687C166.768 27.8307 166.437 28.4193 165.959 28.8974C165.48 29.4124 164.892 29.817 164.156 30.148C163.421 30.479 162.575 30.6261 161.582 30.6261C160.883 30.6261 160.221 30.5526 159.595 30.4055C158.933 30.2583 158.345 30.0009 157.793 29.7066C157.241 29.3756 156.763 28.9342 156.395 28.4193C156.028 27.9043 155.733 27.2422 155.586 26.4698C155.549 26.1756 155.513 25.8813 155.476 25.6238C155.476 25.3664 155.439 25.1457 155.439 24.9618C155.439 24.6675 155.329 24.5204 155.145 24.5204C154.961 24.5204 154.851 24.7411 154.814 25.1825C154.777 25.5135 154.74 26.0652 154.703 26.8009C154.667 27.5733 154.63 28.456 154.63 29.4859C154.63 30.0376 154.667 30.4055 154.703 30.5526C154.74 30.7365 154.924 30.8836 155.218 31.0307C156.064 31.4353 156.947 31.6928 157.867 31.8767C158.786 32.0238 159.743 32.0974 160.699 32.0974C161.802 32.0974 162.906 31.9503 163.972 31.6928C165.039 31.4353 165.995 30.994 166.878 30.3687C167.577 29.8905 168.165 29.3388 168.607 28.7135C169.048 28.0882 169.416 27.4997 169.674 26.8376C169.931 26.2124 170.115 25.6239 170.188 25.0353C170.299 24.4468 170.336 23.9687 170.336 23.5641C170.336 22.7549 170.262 21.9825 170.078 21.2101C169.968 20.6215 169.637 19.8491 169.195 19.1135Z" fill="#212121"/>
<path d="M89.0483 3.07672C88.9011 2.9296 88.6437 2.7089 88.3126 2.45143C87.9816 2.19396 87.5402 1.9365 86.9149 1.67903C86.3264 1.42156 85.5908 1.20086 84.6713 1.01695C83.7885 0.833044 82.6851 0.722704 81.4345 0.722704C80.4782 0.722704 79.4851 0.759479 78.492 0.79626C77.4988 0.833042 76.7632 0.869828 76.2851 0.869828C76.2115 0.869828 75.9908 0.869826 75.6965 0.833044C75.3655 0.833044 74.9977 0.79626 74.5563 0.79626C74.1149 0.79626 73.6368 0.759488 73.1218 0.759488C72.6069 0.759488 72.1287 0.722704 71.6874 0.722704C71.246 0.722704 71.0253 0.833047 71.0253 1.05374C71.0253 1.20086 71.1356 1.31121 71.3563 1.31121C71.5402 1.31121 71.7977 1.3112 72.0552 1.34798C72.3494 1.34798 72.5701 1.38477 72.7172 1.45834C73.4161 1.60546 73.8575 1.82615 74.0782 2.19397C74.2989 2.56178 74.446 3.07672 74.4827 3.77557C74.5195 4.10661 74.5195 4.43765 74.5563 4.80546C74.5563 5.17328 74.5931 5.65144 74.5931 6.27673C74.5931 6.90202 74.5931 7.7112 74.5931 8.70431C74.5931 9.69741 74.5931 11.0216 74.5931 12.6032V19.7756C74.5931 21.725 74.5931 23.4905 74.5563 25.0353C74.5563 26.5802 74.4827 27.794 74.3724 28.6399C74.2988 29.2284 74.1885 29.7434 74.0414 30.148C73.8942 30.5526 73.6 30.8101 73.1954 30.8836C73.0115 30.9204 72.7908 30.994 72.5701 30.994C72.3494 31.0307 72.1655 31.0307 71.9448 31.0307C71.7241 31.0307 71.6138 31.1043 71.6138 31.2882C71.6138 31.5089 71.8345 31.6193 72.2759 31.6193C72.5701 31.6193 72.9379 31.6193 73.3793 31.5825C73.8207 31.5825 74.2253 31.5457 74.6299 31.5457C75.0345 31.5457 75.4023 31.5089 75.6965 31.5089C75.9908 31.5089 76.1747 31.4721 76.1747 31.4721C76.2115 31.4721 76.3954 31.4721 76.7264 31.5089C77.0207 31.5089 77.4253 31.5457 77.9034 31.5457C78.3816 31.5457 78.8965 31.5825 79.4851 31.5825C80.0736 31.5825 80.6253 31.6193 81.2138 31.6193C81.6552 31.6193 81.8759 31.5089 81.8759 31.2882C81.8759 31.1411 81.7655 31.0307 81.5448 31.0307C81.3609 31.0307 81.0667 31.0307 80.6988 30.994C80.331 30.9572 80 30.9204 79.7057 30.8836C79.0805 30.8101 78.6759 30.5526 78.492 30.148C78.308 29.7434 78.1609 29.2284 78.1241 28.6399C78.0138 27.7572 77.9402 26.5802 77.9402 25.0353C77.9402 23.4905 77.9034 21.7618 77.9034 19.7756V3.00316C77.9034 2.56178 78.0138 2.30432 78.2345 2.23075C78.4184 2.15719 78.6759 2.08363 79.0069 2.04684C79.3011 2.01006 79.669 1.97328 80 1.97328C80.2575 1.97328 80.5885 1.97328 80.9931 1.97328C81.3977 1.97328 81.8391 2.04684 82.354 2.15718C82.869 2.26753 83.3839 2.48822 83.9356 2.78248C84.4874 3.07673 85.0391 3.48132 85.5908 4.03305C86.1425 4.58477 86.5471 5.13649 86.8414 5.76178C87.1356 6.35028 87.3563 6.9388 87.5034 7.5273C87.6506 8.11581 87.7609 8.63075 87.7977 9.10891C87.8345 9.58707 87.8713 9.99167 87.8713 10.3227C87.8713 11.279 87.6874 12.1618 87.3195 12.971C86.9517 13.7802 86.4368 14.479 85.8115 15.0675C85.1862 15.656 84.4506 16.1342 83.5678 16.4652C82.6851 16.7963 81.7655 16.9802 80.7724 16.9802C80.331 16.9802 80.0368 17.017 79.8896 17.0537C79.7425 17.0905 79.669 17.2009 79.669 17.348C79.669 17.4583 79.7057 17.5319 79.8161 17.5687C79.9264 17.6055 80 17.6422 80.1103 17.6422C80.2207 17.679 80.3678 17.679 80.5517 17.679C80.7356 17.679 80.8828 17.679 80.9931 17.679C82.4276 17.679 83.7885 17.4583 85.0023 16.9802C86.2161 16.502 87.2828 15.8399 88.2023 14.994C89.0851 14.148 89.7839 13.1181 90.2988 11.9043C90.8138 10.6905 91.0713 9.40317 91.0713 7.9319C91.0713 6.82845 90.8506 5.87212 90.4092 5.02615C89.9678 4.18017 89.5264 3.5181 89.0483 3.07672Z" fill="#212121"/>
<path d="M204.359 31.0675C204.138 31.0675 203.88 31.0675 203.586 31.0307C203.292 30.994 202.998 30.9204 202.703 30.8101C202.483 30.7733 202.262 30.6629 202.005 30.5158C201.747 30.3687 201.49 30.148 201.195 29.817C200.901 29.4859 200.607 29.0445 200.239 28.456C199.871 27.8675 199.54 27.1319 199.209 26.2491C198.805 25.2193 198.29 23.9319 197.664 22.3503C197.039 20.8055 196.414 19.1503 195.752 17.4216C195.09 15.6928 194.428 13.9273 193.729 12.1618C193.03 10.3963 192.441 8.77787 191.853 7.26983C191.301 5.79856 190.823 4.54799 190.418 3.51811C190.014 2.48822 189.756 1.86293 189.646 1.56868C189.388 0.943389 189.241 0.538796 189.131 0.354888C189.021 0.17098 188.91 0.0974121 188.763 0.0974121C188.616 0.0974121 188.506 0.207764 188.395 0.391672C188.285 0.57558 188.101 1.01695 187.88 1.7158L178.611 27.0951C178.244 28.125 177.802 29.0078 177.324 29.7066C176.846 30.4055 176.147 30.8101 175.191 30.9572C175.044 30.994 174.823 30.994 174.565 31.0307C174.308 31.0307 174.124 31.0675 173.977 31.0675C173.72 31.0675 173.609 31.1411 173.609 31.325C173.609 31.5457 173.867 31.656 174.382 31.656C174.86 31.656 175.375 31.656 175.853 31.6193C176.331 31.6193 176.809 31.5825 177.251 31.5825C177.692 31.5825 178.06 31.5457 178.391 31.5457C178.722 31.5457 178.906 31.5089 179.016 31.5089C179.126 31.5089 179.31 31.5089 179.568 31.5457C179.825 31.5457 180.12 31.5825 180.414 31.5825C180.708 31.5825 181.039 31.6193 181.37 31.6193C181.701 31.6193 181.995 31.656 182.216 31.656C182.621 31.656 182.841 31.5457 182.841 31.325C182.841 31.1779 182.694 31.0675 182.437 31.0675H181.995C181.628 31.0675 181.297 30.9572 180.965 30.7733C180.634 30.5894 180.451 30.2951 180.451 29.8905C180.451 29.1181 180.634 28.1986 181.039 27.1687L183.503 19.9227C183.577 19.702 183.724 19.5917 183.908 19.5917H192.662C192.809 19.5917 192.956 19.6652 193.03 19.8491L196.818 29.8905C196.965 30.2215 196.965 30.479 196.892 30.6629C196.818 30.8468 196.708 30.9572 196.561 30.994C196.377 31.0307 196.267 31.1411 196.267 31.2882C196.267 31.4354 196.377 31.5089 196.598 31.5089C196.818 31.5089 197.113 31.5457 197.48 31.5825C198.179 31.6193 198.878 31.6193 199.577 31.656C200.276 31.656 200.901 31.6928 201.49 31.6928C202.078 31.6928 202.593 31.6928 202.998 31.6928C203.402 31.6928 203.697 31.6928 203.88 31.6928C204.101 31.6928 204.285 31.656 204.469 31.6193C204.616 31.5825 204.726 31.4721 204.726 31.3618C204.763 31.1411 204.616 31.0675 204.359 31.0675ZM192.147 18.1204H184.349C184.202 18.1204 184.129 18.0101 184.239 17.8262L187.844 6.79167C188.028 6.20316 188.248 6.20316 188.469 6.79167L192.368 17.8262C192.368 18.0101 192.294 18.1204 192.147 18.1204Z" fill="#212121"/>
</svg>
