<svg width="92" height="93" viewBox="0 0 92 93" fill="none" xmlns="http://www.w3.org/2000/svg">
<path d="M45.7053 0.5C37.8391 0.5 31.5461 6.79295 31.5461 14.6591C31.5461 22.5253 37.8391 28.8183 45.7053 28.8183C53.5715 28.8183 59.8644 22.5253 59.8644 14.6591C59.8644 6.79295 53.5715 0.5 45.7053 0.5ZM45.7053 21.2143C42.2966 21.2143 39.4123 18.33 39.4123 14.9213C39.4123 11.5127 42.2966 8.36618 45.7053 8.36618C49.114 8.36618 52.2604 11.2505 52.2604 14.9213C52.2604 18.5922 49.3762 21.2143 45.7053 21.2143Z" fill="#6A1B9A" fill-opacity="0.25"/>
<path d="M28.3341 56.8743C35.6759 56.8743 38.5602 52.679 39.8712 49.7948C40.6578 48.2215 40.6578 46.3861 39.8712 44.5506C37.5114 37.4711 30.1696 36.9467 30.1696 36.9467C23.8766 35.6356 19.1569 41.1419 19.1569 41.1419C13.1262 34.5868 7.09544 23.5741 7.09544 23.5741L0.278082 27.5072C5.26 38.5199 13.6506 46.9105 13.6506 46.9105C8.40647 50.3192 0.278077 67.1004 0.278077 67.1004L8.40647 69.7224C11.5529 61.3318 19.6813 52.9412 19.6813 52.9412C21.5168 55.8255 28.3341 56.8743 28.3341 56.8743ZM24.1388 46.9105C24.1388 46.9105 27.2853 44.2884 29.9074 44.5506C29.9074 44.5506 32.2672 44.5506 32.2672 46.9105C32.2672 46.9105 32.2672 48.7459 29.9074 48.7459C29.9074 49.0081 26.4987 48.7459 24.1388 46.9105Z" fill="#6A1B9A" fill-opacity="0.25"/>
<path d="M63.0765 36.4223C55.7347 36.4223 52.8505 40.6176 51.5394 43.5019C50.7528 45.0751 50.7528 46.9106 51.5394 48.746C53.8993 55.8256 61.2411 56.35 61.2411 56.35C67.534 57.661 72.2537 52.1547 72.2537 52.1547C78.2845 58.7098 84.3152 69.7225 84.3152 69.7225L91.1326 65.7894C86.1507 54.7767 77.7601 46.3861 77.7601 46.3861C83.0042 42.9775 91.1326 26.1963 91.1326 26.1963L83.0042 23.5742C79.8577 31.9648 71.7293 40.3554 71.7293 40.3554C69.8939 37.4711 63.0765 36.4223 63.0765 36.4223ZM67.2718 46.3861C67.2718 46.3861 64.1253 49.0082 61.5033 48.746C61.5033 48.746 59.1434 48.746 59.1434 46.3861C59.1434 46.3861 59.1434 44.5507 61.5033 44.5507C61.5033 44.2885 64.912 44.5507 67.2718 46.3861Z" fill="#6A1B9A" fill-opacity="0.25"/>
<path d="M45.7053 64.4783C37.8391 64.4783 31.5461 70.7712 31.5461 78.6374C31.5461 86.5036 37.8391 92.7965 45.7053 92.7965C53.5715 92.7965 59.8644 86.5036 59.8644 78.6374C59.8644 70.7712 53.5715 64.4783 45.7053 64.4783ZM45.7053 85.1926C42.2966 85.1926 39.4123 82.3083 39.4123 78.8996C39.4123 75.4909 42.2966 72.3445 45.7053 72.3445C49.114 72.3445 52.2604 75.2287 52.2604 78.8996C52.2604 82.5705 49.3762 85.1926 45.7053 85.1926Z" fill="#6A1B9A" fill-opacity="0.25"/>
</svg>
