<svg width="601" height="600" viewBox="0 0 601 600" fill="none" xmlns="http://www.w3.org/2000/svg">
<path d="M350.188 465.925C349.827 430.917 329.797 417.023 316.083 411.609C308.143 408.361 299.301 408.361 291.181 411.068C256.895 422.617 254.729 457.624 254.729 457.624C248.955 486.135 274.94 509.594 274.94 509.594C243.181 538.105 191.211 567.158 191.211 567.158L210.699 599.278C262.669 575.82 303.632 535.038 303.632 535.038C318.429 560.842 398.369 599.098 398.369 599.098L411.361 560.842C371.12 545.865 331.421 507.609 331.421 507.609C344.955 497.865 350.188 465.925 350.188 465.925ZM302.729 485.053C302.729 485.053 290.098 469.534 291.722 458.165C291.722 458.165 291.722 447.158 303.451 447.158C303.451 447.158 312.293 447.519 312.474 457.805C312.474 457.805 311.932 473.684 302.729 485.053Z" fill="white"/>
<path d="M252.203 133.173C252.564 168.18 272.594 182.075 286.308 187.489C294.248 190.737 303.09 190.737 311.211 188.03C345.496 176.481 347.662 141.474 347.662 141.474C353.436 112.962 327.451 89.5038 327.451 89.5038C359.211 60.9925 411.181 31.9399 411.181 31.9399L391.872 0C339.902 23.4586 298.94 64.2406 298.94 64.2406C283.963 38.2556 204.023 0 204.023 0L191.03 38.2556C231.271 53.2331 270.97 91.4887 270.97 91.4887C257.256 101.414 252.203 133.173 252.203 133.173ZM299.481 114.045C299.481 114.045 312.113 129.564 310.489 140.932C310.489 140.932 310.489 151.94 298.759 151.94C298.759 151.94 289.917 151.579 289.737 141.293C289.737 141.293 290.459 125.414 299.481 114.045Z" fill="white"/>
<path d="M176.053 469.173C192.654 471.699 218.639 452.752 218.639 452.752C242.82 427.489 238.308 403.489 232.354 390.135C228.925 382.376 222.609 376.06 215.03 372.271C182.369 356.391 156.384 379.85 156.384 379.85C132.203 396.09 134.369 431.098 134.369 431.098C91.6016 429.113 34.2181 413.414 34.2181 413.414L25.5565 450.045C78.97 469.714 136.895 469.353 136.895 469.353C129.316 498.406 159.451 581.774 159.451 581.774L195.541 563.549C177.496 524.211 176.053 469.173 176.053 469.173ZM182.369 406.015C182.369 406.015 190.128 398.075 198.429 406.376C198.429 406.376 204.384 412.692 197.346 420.451C197.346 420.451 185.797 431.278 171.361 433.083C171.361 433.083 173.346 413.053 182.369 406.015Z" fill="white"/>
<path d="M424.534 130.105C407.932 127.579 381.948 146.526 381.948 146.526C357.767 171.789 362.278 195.789 368.233 209.143C371.662 216.902 377.978 223.218 385.557 227.008C418.218 242.887 444.203 219.429 444.203 219.429C468.384 203.188 466.218 168.18 466.218 168.18C508.985 170.165 566.369 185.865 566.369 185.865L575.03 149.233C521.617 129.564 463.692 129.925 463.692 129.925C471.271 100.872 441.135 17.5038 441.135 17.5038L405.045 35.7293C423.09 74.8872 424.534 130.105 424.534 130.105ZM418.218 193.083C418.218 193.083 410.459 201.023 402.158 192.722C402.158 192.722 396.203 186.406 403.241 178.647C403.241 178.647 414.79 167.82 429.226 166.015C429.226 166.015 427.241 186.045 418.218 193.083Z" fill="white"/>
<path d="M1.19559 398.075L39.6317 410.887C54.4287 370.466 92.5039 330.767 92.5039 330.767C102.248 344.301 134.188 349.353 134.188 349.353C169.196 348.812 182.91 328.782 188.323 315.068C191.391 307.128 191.572 298.286 188.865 290.165C177.135 255.88 142.128 253.895 142.128 253.895C113.436 248.12 90.3385 274.286 90.3385 274.286C61.6467 242.526 32.4136 190.737 32.4136 190.737L0.293335 210.406C23.9324 262.195 65.0753 302.977 65.0753 302.977C39.0903 318.135 1.19559 398.075 1.19559 398.075ZM141.587 290.887C141.587 290.887 152.594 290.887 152.775 302.436C152.775 302.436 152.414 311.278 142.128 311.639C142.128 311.639 126.248 311.098 114.88 302.075C114.699 302.075 130.218 289.444 141.587 290.887Z" fill="white"/>
<path d="M599.391 201.023L560.955 188.211C546.158 228.632 508.083 268.331 508.083 268.331C498.338 254.797 466.399 249.744 466.399 249.744C431.391 250.286 417.677 270.316 412.263 284.03C409.196 291.97 409.015 300.812 411.722 308.932C423.451 343.218 458.459 345.203 458.459 345.203C486.97 350.977 510.248 324.812 510.248 324.812C538.94 356.571 568.173 408.361 568.173 408.361L600.293 388.692C576.654 336.902 535.511 296.12 535.511 296.12C561.496 281.143 599.391 201.023 599.391 201.023ZM458.82 308.211C458.82 308.211 447.812 308.211 447.632 296.662C447.632 296.662 447.993 287.82 458.278 287.459C458.278 287.459 474.158 288 485.526 297.023C485.887 297.023 470.369 309.835 458.82 308.211Z" fill="white"/>
<path d="M131.301 174.857C128.594 191.459 147.541 217.444 147.541 217.444C172.624 241.624 196.624 237.293 210.158 231.519C218.098 228.09 224.233 221.955 228.023 214.195C243.902 181.534 220.624 155.549 220.624 155.549C204.384 131.368 169.556 133.353 169.556 133.353C171.541 90.5865 187.602 33.3835 187.602 33.3835L150.97 24.7218C131.12 78.1353 131.481 136.06 131.481 136.06C102.429 128.12 19.0603 158.075 19.0603 158.075L37.1054 194.346C76.0828 176.12 131.301 174.857 131.301 174.857ZM194.098 181.353C194.098 181.353 202.038 189.113 193.737 197.414C193.737 197.414 187.421 203.368 179.662 196.331C179.662 196.331 168.835 184.602 167.03 170.165C167.211 170.346 187.241 172.15 194.098 181.353Z" fill="white"/>
<path d="M469.466 424.241C472.173 407.639 453.226 381.654 453.226 381.654C428.143 357.474 404.143 361.805 390.609 367.579C382.669 371.008 376.534 377.143 372.744 384.902C356.865 417.564 380.143 443.549 380.143 443.549C396.384 467.729 431.211 465.744 431.211 465.744C429.226 508.511 413.166 565.714 413.166 565.714L449.797 574.376C469.647 520.962 469.286 463.038 469.286 463.038C498.338 470.617 581.707 440.842 581.707 440.842L563.662 404.571C524.684 422.977 469.466 424.241 469.466 424.241ZM406.489 417.744C406.489 417.744 398.549 409.985 406.85 401.684C406.85 401.684 413.166 395.729 420.925 402.767C420.925 402.767 431.752 414.496 433.557 428.932C433.376 428.932 413.526 426.947 406.489 417.744Z" fill="white"/>
<path d="M303.451 231.158C265.917 231.158 235.602 261.474 235.602 299.008C235.602 336.541 265.917 366.857 303.451 366.857C340.985 366.857 371.301 336.541 371.301 299.008C371.301 261.474 340.985 231.158 303.451 231.158ZM303.451 330.226C286.489 330.226 272.775 316.511 272.775 299.549C272.775 282.586 286.489 268.872 303.451 268.872C320.414 268.872 334.128 282.586 334.128 299.549C334.128 316.511 320.414 330.226 303.451 330.226Z" fill="white"/>
</svg>
