<svg width="762" height="760" viewBox="0 0 762 760" fill="none" xmlns="http://www.w3.org/2000/svg">
<path d="M444.276 590.882C443.819 546.486 418.417 528.865 401.024 521.999C390.955 517.88 379.742 517.88 369.443 521.313C325.963 535.959 323.216 580.355 323.216 580.355C315.893 616.513 348.847 646.263 348.847 646.263C308.57 682.421 242.662 719.265 242.662 719.265L267.378 760C333.286 730.25 385.234 678.531 385.234 678.531C403.999 711.256 505.378 759.771 505.378 759.771L521.855 711.256C470.823 692.261 420.476 643.746 420.476 643.746C437.64 631.388 444.276 590.882 444.276 590.882ZM384.09 615.14C384.09 615.14 368.07 595.459 370.13 581.042C370.13 581.042 370.13 567.082 385.005 567.082C385.005 567.082 396.218 567.54 396.447 580.584C396.447 580.584 395.761 600.723 384.09 615.14Z" fill="#6A1B9A" fill-opacity="0.1"/>
<path d="M320.013 168.889C320.47 213.285 345.872 230.906 363.265 237.772C373.334 241.891 384.547 241.891 394.845 238.458C438.326 223.812 441.072 179.416 441.072 179.416C448.396 143.258 415.442 113.508 415.442 113.508C455.719 77.3502 521.626 40.5059 521.626 40.5059L497.14 0C431.232 29.7501 379.284 81.4694 379.284 81.4694C360.29 48.5155 258.91 0 258.91 0L242.433 48.5155C293.466 67.5098 343.813 116.025 343.813 116.025C326.42 128.612 320.013 168.889 320.013 168.889ZM379.97 144.631C379.97 144.631 395.99 164.312 393.93 178.729C393.93 178.729 393.93 192.689 379.055 192.689C379.055 192.689 367.841 192.231 367.613 179.187C367.613 179.187 368.528 159.048 379.97 144.631Z" fill="#6A1B9A" fill-opacity="0.1"/>
<path d="M223.439 595.001C244.493 598.205 277.447 574.176 277.447 574.176C308.112 542.138 302.391 511.701 294.839 494.767C290.491 484.926 282.482 476.917 272.87 472.111C231.449 451.972 198.495 481.722 198.495 481.722C167.829 502.319 170.576 546.715 170.576 546.715C116.339 544.197 43.5657 524.288 43.5657 524.288L32.581 570.744C100.32 595.688 173.779 595.23 173.779 595.23C164.168 632.075 202.385 737.802 202.385 737.802L248.155 714.688C225.27 664.8 223.439 595.001 223.439 595.001ZM231.449 514.905C231.449 514.905 241.289 504.836 251.816 515.363C251.816 515.363 259.368 523.372 250.443 533.213C250.443 533.213 235.797 546.944 217.489 549.232C217.489 549.232 220.006 523.83 231.449 514.905Z" fill="#6A1B9A" fill-opacity="0.1"/>
<path d="M538.561 164.998C517.507 161.795 484.553 185.824 484.553 185.824C453.888 217.862 459.609 248.299 467.161 265.233C471.509 275.074 479.519 283.083 489.13 287.889C530.552 308.028 563.505 278.278 563.505 278.278C594.171 257.681 591.425 213.285 591.425 213.285C645.661 215.802 718.435 235.712 718.435 235.712L729.419 189.256C661.681 164.312 588.221 164.77 588.221 164.77C597.833 127.925 559.615 22.1981 559.615 22.1981L513.846 45.3116C536.73 94.9714 538.561 164.998 538.561 164.998ZM530.552 244.866C530.552 244.866 520.711 254.935 510.184 244.408C510.184 244.408 502.632 236.399 511.557 226.558C511.557 226.558 526.203 212.827 544.511 210.539C544.511 210.539 541.994 235.941 530.552 244.866Z" fill="#6A1B9A" fill-opacity="0.1"/>
<path d="M1.68671 504.836L50.4311 521.084C69.1965 469.822 117.483 419.476 117.483 419.476C129.841 436.64 170.347 443.047 170.347 443.047C214.743 442.361 232.135 416.959 239.001 399.566C242.891 389.497 243.12 378.284 239.687 367.986C224.812 324.505 180.416 321.987 180.416 321.987C144.029 314.664 114.737 347.847 114.737 347.847C78.3504 307.57 41.2772 241.891 41.2772 241.891L0.54248 266.835C30.5214 332.514 82.6985 384.234 82.6985 384.234C49.7445 403.457 1.68671 504.836 1.68671 504.836ZM179.729 368.901C179.729 368.901 193.689 368.901 193.918 383.547C193.918 383.547 193.46 394.761 180.416 395.218C180.416 395.218 160.277 394.532 145.86 383.089C145.631 383.089 165.312 367.07 179.729 368.901Z" fill="#6A1B9A" fill-opacity="0.1"/>
<path d="M760.314 254.935L711.569 238.687C692.804 289.949 644.517 340.295 644.517 340.295C632.159 323.132 591.654 316.724 591.654 316.724C547.257 317.41 529.865 342.812 523 360.205C519.109 370.274 518.88 381.487 522.313 391.786C537.188 435.266 581.584 437.784 581.584 437.784C617.742 445.107 647.263 411.924 647.263 411.924C683.65 452.201 720.723 517.88 720.723 517.88L761.458 492.936C731.479 427.257 679.302 375.537 679.302 375.537C712.256 356.543 760.314 254.935 760.314 254.935ZM582.042 390.87C582.042 390.87 568.082 390.87 567.853 376.224C567.853 376.224 568.311 365.011 581.355 364.553C581.355 364.553 601.494 365.239 615.911 376.682C616.369 376.682 596.688 392.93 582.042 390.87Z" fill="#6A1B9A" fill-opacity="0.1"/>
<path d="M166.685 221.752C163.252 242.806 187.281 275.76 187.281 275.76C219.091 306.426 249.528 300.933 266.691 293.61C276.76 289.262 284.541 281.481 289.347 271.641C309.486 230.22 279.964 197.266 279.964 197.266C259.368 166.6 215.201 169.118 215.201 169.118C217.718 114.881 238.085 42.3366 238.085 42.3366L191.629 31.352C166.456 99.0906 166.914 172.55 166.914 172.55C130.07 162.481 24.3425 200.47 24.3425 200.47L47.2272 246.468C96.6581 223.354 166.685 221.752 166.685 221.752ZM246.324 229.991C246.324 229.991 256.393 239.831 245.866 250.358C245.866 250.358 237.857 257.91 228.016 248.985C228.016 248.985 214.285 234.11 211.997 215.802C212.226 216.031 237.628 218.32 246.324 229.991Z" fill="#6A1B9A" fill-opacity="0.1"/>
<path d="M595.544 538.019C598.977 516.965 574.948 484.011 574.948 484.011C543.138 453.345 512.701 458.838 495.538 466.161C485.469 470.509 477.688 478.29 472.882 488.13C452.744 529.551 482.265 562.505 482.265 562.505C502.861 593.171 547.029 590.653 547.029 590.653C544.511 644.89 524.144 717.434 524.144 717.434L570.6 728.419C595.773 660.68 595.315 587.221 595.315 587.221C632.159 596.832 737.887 559.073 737.887 559.073L715.002 513.074C665.571 536.417 595.544 538.019 595.544 538.019ZM515.676 529.78C515.676 529.78 505.607 519.94 516.134 509.413C516.134 509.413 524.144 501.861 533.984 510.786C533.984 510.786 547.715 525.661 550.003 543.969C549.775 543.969 524.602 541.451 515.676 529.78Z" fill="#6A1B9A" fill-opacity="0.1"/>
<path d="M385.005 293.153C337.405 293.153 298.959 331.599 298.959 379.199C298.959 426.799 337.405 465.245 385.005 465.245C432.605 465.245 471.051 426.799 471.051 379.199C471.051 331.599 432.605 293.153 385.005 293.153ZM385.005 418.789C363.493 418.789 346.101 401.397 346.101 379.886C346.101 358.374 363.493 340.982 385.005 340.982C406.517 340.982 423.909 358.374 423.909 379.886C423.909 401.397 406.517 418.789 385.005 418.789Z" fill="#6A1B9A" fill-opacity="0.1"/>
</svg>
