<svg width="100" height="101" viewBox="0 0 100 101" fill="none" xmlns="http://www.w3.org/2000/svg">
<path d="M15.6938 0.722403C16.5023 0.722403 17.3108 0.722403 18.1699 0.722403C36.4119 0.722403 54.7046 0.873999 72.9466 0.671871C80.0211 0.570807 85.1754 4.9671 84.8722 12.648C84.5185 22.0469 84.8217 31.4964 84.7206 40.9459C84.7206 41.9566 84.1647 43.2199 83.5078 43.9779C81.436 46.3023 79.2126 48.4752 76.8881 50.5976C76.2818 51.1534 75.1195 51.6082 74.3615 51.4566C63.5982 49.3343 54.4014 52.2146 47.3774 60.5524C40.1513 68.9912 38.9385 78.7439 43.1327 89.103C43.2338 89.4062 43.3854 89.7094 43.4864 90.0631C43.4864 90.1136 43.4864 90.2147 43.4864 90.4168C38.2816 90.4168 32.9758 90.9222 27.8215 90.2652C22.8188 89.6589 20.0901 85.4647 20.0901 80.0072C20.0901 57.9247 20.0395 35.8927 20.1406 13.8102C20.0901 8.95913 19.3826 4.56284 15.6938 0.722403ZM60.9705 18.3076C64.8615 18.3076 68.7019 18.257 72.5929 18.3076C74.4121 18.3076 75.9786 17.8528 76.0291 15.8315C76.0796 13.8607 74.5637 13.2544 72.694 13.2544C65.0131 13.3049 57.3828 13.2544 49.7019 13.2544C47.9333 13.2544 46.3668 13.507 46.3162 15.6799C46.2657 17.8528 47.8322 18.257 49.6008 18.257C53.3907 18.3076 57.1806 18.3076 60.9705 18.3076ZM61.1727 48.172C65.0636 48.172 68.9041 48.1215 72.795 48.172C74.5637 48.2226 75.9786 47.6162 76.0291 45.797C76.1301 43.7757 74.6142 43.1693 72.795 43.1693C65.0636 43.1693 57.3322 43.1693 49.5503 43.1693C47.7817 43.1693 46.2657 43.6747 46.3668 45.797C46.4173 47.8183 47.8827 48.172 49.5503 48.1215C53.3907 48.172 57.2817 48.172 61.1727 48.172ZM61.2737 28.3635C57.3322 28.3635 53.3907 28.3635 49.4492 28.3635C47.7817 28.3635 46.3162 28.7677 46.3162 30.789C46.3162 32.8103 47.7311 33.2145 49.4492 33.2145C57.2817 33.2145 65.0636 33.2145 72.8961 33.2145C74.6142 33.2145 76.0291 32.7092 76.0291 30.789C76.0291 28.9193 74.6142 28.3635 72.8961 28.3635C69.0051 28.3635 65.1647 28.3635 61.2737 28.3635ZM34.4412 14.5682C34.4412 14.5682 32.7736 13.0017 32.3694 12.5974C31.6114 11.89 30.0449 11.6373 29.0848 12.5974C28.1247 13.5576 28.4279 15.2756 29.1859 16.0842C30.146 17.0443 31.2577 17.9538 32.2683 18.9645C33.5316 20.1773 34.7949 20.0762 36.0077 18.914C37.4731 17.4991 39.3933 15.4778 40.8588 14.0123C41.9199 12.9512 42.2737 11.6879 41.3136 10.6267C40.4545 9.66658 38.8375 9.66658 37.7763 10.9299C36.9173 11.9405 34.4412 14.5682 34.4412 14.5682ZM34.4412 29.5257C34.4412 29.5257 32.7736 27.9592 32.3694 27.5549C31.6114 26.8475 30.0449 26.5948 29.0848 27.5549C28.1247 28.515 28.4279 30.2331 29.1859 31.0417C30.146 32.0018 31.2577 32.9113 32.2683 33.922C33.5316 35.1348 34.7949 35.0337 36.0077 33.8714C37.4731 32.4565 39.3933 30.4353 40.8588 28.9698C41.9199 27.9087 42.2737 26.6454 41.3136 25.5842C40.4545 24.6241 38.8375 24.6241 37.7763 25.8874C36.9173 26.898 34.4412 29.5257 34.4412 29.5257ZM34.4412 44.3821C34.4412 44.3821 32.7736 42.8156 32.3694 42.4114C31.6114 41.7039 30.0449 41.4513 29.0848 42.4114C28.1247 43.3715 28.4279 45.0896 29.1859 45.8981C30.146 46.8582 31.2577 47.7678 32.2683 48.7784C33.5316 49.9912 34.7949 49.8901 36.0077 48.7279C37.4731 47.313 39.3933 45.2917 40.8588 43.8263C41.9199 42.7651 42.2737 41.5018 41.3136 40.4406C40.4545 39.4805 38.8375 39.4805 37.7763 40.7438C36.9173 41.7039 34.4412 44.3821 34.4412 44.3821ZM34.4412 59.188C34.4412 59.188 32.7736 57.6215 32.3694 57.2173C31.6114 56.5098 30.0449 56.2572 29.0848 57.2173C28.1247 58.1774 28.4279 59.8955 29.1859 60.704C30.146 61.6641 31.2577 62.5737 32.2683 63.5843C33.5316 64.7971 34.7949 64.696 36.0077 63.5338C37.4731 62.1189 39.3933 60.0976 40.8588 58.6322C41.9199 57.571 42.2737 56.3077 41.3136 55.2465C40.4545 54.2864 38.8375 54.2864 37.7763 55.5497C36.9173 56.5603 34.4412 59.188 34.4412 59.188Z" fill="url(#paint0_linear_424_6138)"/>
<path d="M45.8109 78.087C45.8109 64.0896 59.1008 53.0231 72.2897 56.1056C73.6541 56.4088 75.4227 60.0471 74.5131 61.0072C74.0583 61.462 72.8961 61.3609 72.0876 61.2093C65.1142 59.8449 59.2019 61.7652 54.7045 67.2226C49.5503 73.4381 49.4997 82.4328 54.3508 88.6988C59.3535 95.2174 68.045 97.3903 75.4227 94.0046C82.8509 90.619 86.7419 82.8876 85.327 74.6508C85.1249 73.6402 83.7605 72.0737 85.8323 71.5684C87.6515 71.1136 90.0265 72.6295 90.3297 74.1455C92.5531 85.97 84.7206 97.6429 72.9466 100.17C58.9998 103.151 45.8109 92.4381 45.8109 78.087Z" fill="url(#paint1_linear_424_6138)"/>
<path d="M0.129906 28.1108C0.129906 21.8448 -0.122754 15.7304 0.23097 9.66658C0.433099 5.82614 4.07141 3.14794 7.70972 3.24901C11.4996 3.4006 14.8853 6.43253 14.9863 10.273C15.1379 16.1347 15.0369 22.0469 15.0369 28.1108C10.0342 28.1108 5.13258 28.1108 0.129906 28.1108Z" fill="url(#paint2_linear_424_6138)"/>
<path d="M89.9254 67.4248C89.319 67.2732 89.1169 67.2731 88.9653 67.2226C84.9733 65.1508 82.3961 67.0205 79.819 70.0524C77.0397 73.2865 73.8057 76.1668 70.7738 79.1987C69.4599 80.5631 67.9945 81.3716 66.428 79.7546C64.912 78.1881 65.9227 76.8742 67.1354 75.6615C71.0769 71.7705 74.9679 67.7785 78.9599 63.8875C80.0717 62.8263 80.5264 61.8157 79.8695 60.3503C78.5052 57.1667 79.2631 54.5896 82.0424 52.4167C83.811 51.0524 85.2765 49.1827 86.8935 47.6667C88.8137 45.8475 90.6329 46.3023 91.4919 48.7784C91.5424 48.93 91.6435 49.0816 91.6435 49.2332C91.7446 52.7704 93.7153 54.1853 97.0504 54.7412C100.133 55.2465 100.638 57.3183 98.4653 59.5923C96.343 61.7652 94.2206 63.938 91.9972 66.0098C91.3908 66.7173 90.4307 67.1216 89.9254 67.4248ZM87.702 54.1348C85.7818 55.9034 83.4068 57.1667 84.9733 59.8955C85.5291 60.805 87.1461 61.8662 88.0557 61.7146C89.4706 61.4114 90.7339 60.1481 92.0478 59.2891C91.9467 59.0364 91.8456 58.8343 91.7446 58.5816C89.1674 58.3795 88.0052 56.8635 87.702 54.1348Z" fill="url(#paint3_linear_424_6138)"/>
<path d="M69.9147 66.1614C67.4892 68.5365 65.3163 70.5072 63.2445 72.6295C60.0609 75.9141 59.9599 80.462 62.9918 83.4434C66.0237 86.4753 70.4706 86.3743 73.8057 83.1402C75.8775 81.1695 77.8482 79.0977 79.9201 77.0764C80.0211 76.9753 80.2233 77.0258 80.3748 77.0258C81.335 81.4727 78.7073 86.6269 74.2099 89.103C69.4094 91.7812 63.4971 90.9727 59.5051 87.0817C55.5636 83.2918 54.553 77.2785 57.0796 72.4274C59.5051 67.7785 64.5583 65.1508 69.9147 66.1614Z" fill="url(#paint4_linear_424_6138)"/>
<defs>
<linearGradient id="paint0_linear_424_6138" x1="49.9184" y1="0.670166" x2="49.9184" y2="100.67" gradientUnits="userSpaceOnUse">
<stop stop-color="#6A1B9A"/>
<stop offset="1" stop-color="#F2B9CB"/>
</linearGradient>
<linearGradient id="paint1_linear_424_6138" x1="49.9184" y1="0.670166" x2="49.9184" y2="100.67" gradientUnits="userSpaceOnUse">
<stop stop-color="#6A1B9A"/>
<stop offset="1" stop-color="#F2B9CB"/>
</linearGradient>
<linearGradient id="paint2_linear_424_6138" x1="49.9184" y1="0.670166" x2="49.9184" y2="100.67" gradientUnits="userSpaceOnUse">
<stop stop-color="#6A1B9A"/>
<stop offset="1" stop-color="#F2B9CB"/>
</linearGradient>
<linearGradient id="paint3_linear_424_6138" x1="49.9184" y1="0.670166" x2="49.9184" y2="100.67" gradientUnits="userSpaceOnUse">
<stop stop-color="#6A1B9A"/>
<stop offset="1" stop-color="#F2B9CB"/>
</linearGradient>
<linearGradient id="paint4_linear_424_6138" x1="49.9184" y1="0.670166" x2="49.9184" y2="100.67" gradientUnits="userSpaceOnUse">
<stop stop-color="#6A1B9A"/>
<stop offset="1" stop-color="#F2B9CB"/>
</linearGradient>
</defs>
</svg>
