<svg width="111" height="107" viewBox="0 0 111 107" fill="none" xmlns="http://www.w3.org/2000/svg">
<path d="M11.6428 77.292C10.9478 74.9543 10.1896 72.8061 9.68414 70.5947C9.30505 68.952 8.54687 68.1938 6.71459 68.0043C1.7232 67.4356 0.39638 65.6033 1.0282 60.612C1.15457 59.4747 1.34411 58.3374 1.40729 57.1369C1.7232 52.8406 3.61867 50.9451 7.85186 51.3874C10.0632 51.5769 11.2005 50.9451 11.7692 48.7969C12.0219 47.9124 12.4642 47.0278 12.9696 46.2696C14.9283 43.4264 16.5078 40.7096 12.9064 37.9296C12.5905 37.4873 12.2746 36.4764 12.3378 35.8446C12.7169 30.8532 17.0764 29.1473 20.3619 26.8727C22.8892 25.1036 25.3533 26.6832 27.1224 29.0841C27.3751 29.4 27.6279 29.7791 27.9438 30.0318C29.776 31.2955 39.1902 27.5045 39.6956 25.3564C40.9593 19.7332 41.7806 19.1645 47.6566 19.5436C48.9202 19.6068 50.1839 19.6068 51.4475 19.7963C55.0489 20.365 56.5652 22.0709 56.4389 25.7986C56.3757 27.6941 56.3125 29.3368 58.6503 30.0318C59.2821 30.2214 59.7875 31.4218 59.9771 32.3064C61.5566 37.8032 64.463 42.4787 68.9489 46.1433C71.6658 48.3546 72.9294 51.1978 73.3085 54.6097C73.498 56.5051 73.1821 57.9583 71.6658 59.601C70.3389 60.9911 70.4021 63.7711 70.0862 65.9193C69.8335 67.4356 70.2757 69.0784 69.9598 70.5315C69.1385 74.4488 70.5285 76.8498 75.583 78.8084C75.204 80.3248 74.6353 81.9043 74.5721 83.5471C74.509 84.6211 74.9512 85.948 75.583 86.8325C77.8576 90.3075 77.6681 92.2662 74.5089 95.0462C73.8139 95.678 73.0558 96.2467 72.3608 96.8785C67.3062 100.985 66.7376 100.922 61.8094 96.5626C61.2407 96.0571 60.1034 95.8044 59.3453 95.9939C56.818 96.6257 54.2275 97.3207 51.8898 98.3948C50.942 98.8371 49.9311 100.227 49.7416 101.301C48.9834 105.787 47.3407 107.24 42.7284 106.798C41.6543 106.672 40.6434 106.482 39.5693 106.419C34.0724 105.914 33.5038 104.903 32.9351 99.4058C32.4297 94.9198 31.4188 90.3707 29.7129 86.2007C27.0592 79.4402 20.6778 76.6602 11.6428 77.292ZM66.6112 62.8865C66.548 51.0715 56.5652 41.0887 44.8766 41.1519C32.9351 41.2782 23.0156 51.1978 23.0787 62.8865C23.2051 74.9543 33.1247 84.6211 45.1925 84.558C56.9443 84.4948 66.6744 74.6384 66.6112 62.8865Z" fill="url(#paint0_linear_423_6126)"/>
<path d="M85.4394 35.1496C85.4394 42.7314 85.4394 50.0605 85.4394 57.7056C82.5963 57.7056 79.8162 57.7056 76.8467 57.7056C76.7835 57.2633 76.594 56.7579 76.594 56.2524C76.5308 50.7556 74.3826 46.4592 70.2757 42.7314C63.1362 36.2869 60.4825 28.01 63.0098 18.7222C65.4739 9.49765 71.6026 3.49536 81.0167 1.15762C91.3786 -1.43285 102.246 3.43218 107.68 12.8463C113.05 22.1973 111.723 33.6332 104.394 41.4678C97.8231 48.481 97.8231 48.481 96.4963 57.7056C94.0954 57.7056 91.6313 57.7056 88.9145 57.7056C88.9145 50.2501 88.9145 42.7314 88.9145 35.1496C95.359 32.1168 97.9495 28.0732 96.8122 22.9554C95.7381 18.3431 91.2522 14.8681 86.6399 15.1209C82.154 15.3736 78.0471 18.9118 77.3521 23.2082C76.4044 28.8946 78.9317 32.6223 85.4394 35.1496ZM74.0035 11.014L72.2976 12.7831L76.0885 16.7636L77.8576 14.9945L74.0035 11.014ZM100.919 12.9095L99.2131 11.1404L95.1695 14.7418L96.6227 16.2581L100.919 12.9095ZM73.5612 26.4305V24.0295H67.243V26.4305H73.5612ZM99.4027 26.4305H105.721V24.0295H99.4027V26.4305ZM101.298 37.4873L97.1281 33.9491L95.4222 35.5287C95.4222 35.5287 97.9495 37.8664 99.4027 39.0669C99.5291 39.13 101.298 37.4873 101.298 37.4873ZM88.2195 12.0881V5.83309H85.4394V12.0881H88.2195ZM78.2999 35.5919L76.5308 33.9491L72.4871 37.6769L74.5089 39.446L78.2999 35.5919Z" fill="url(#paint1_linear_423_6126)"/>
<path d="M15.5601 106.166C8.35732 106.103 2.67093 100.29 2.7973 92.9612C2.86048 85.948 8.7996 80.1984 15.8128 80.2616C22.826 80.3879 28.6388 86.2639 28.6388 93.2139C28.702 100.417 22.826 106.166 15.5601 106.166ZM14.1701 94.5407C12.6537 93.0875 10.4423 91.1289 10.4423 91.1289L8.4205 93.0875L14.4228 98.7107L22.7628 89.8021L20.4251 87.7171C20.4251 87.7802 16.2551 92.203 14.1701 94.5407Z" fill="url(#paint2_linear_423_6126)"/>
<path d="M86.2608 75.0807C82.9122 75.0807 79.5003 75.0175 76.1517 75.0807C74.0667 75.1438 72.9926 74.2593 73.0558 72.1111C73.1189 70.0893 74.193 69.3943 76.0885 69.3943C83.0385 69.4574 89.9886 69.4574 96.9386 69.3943C98.9604 69.3943 99.845 70.2156 99.845 72.1743C99.845 74.1329 98.9604 75.0807 96.9386 75.0175C93.4004 75.0807 89.8622 75.0807 86.2608 75.0807Z" fill="url(#paint3_linear_423_6126)"/>
<path d="M87.019 32.0537C83.4808 32.1168 80.1322 28.8945 79.9426 25.2932C79.8163 21.6918 82.9122 18.4063 86.5767 18.2168C90.4308 18.0904 93.7163 21.2495 93.7163 25.0404C93.7795 28.7682 90.6204 31.9905 87.019 32.0537Z" fill="url(#paint4_linear_423_6126)"/>
<path d="M86.7663 60.9911C90.2413 60.9911 93.7163 61.0542 97.1281 60.9911C98.9604 60.9911 99.845 61.7492 99.845 63.5815C99.845 65.5402 99.0868 66.4247 97.0018 66.4247C89.9886 66.3615 82.9122 66.3615 75.899 66.4247C73.9403 66.4247 72.9926 65.6665 72.9926 63.6447C72.9926 61.5597 74.0667 60.9279 75.9621 60.9279C79.6267 61.0542 83.1649 60.9911 86.7663 60.9911Z" fill="url(#paint5_linear_423_6126)"/>
<path d="M86.5135 83.4207C84.7445 83.4207 82.9754 83.3575 81.2063 83.4207C79.2476 83.5471 78.2999 82.7257 78.2367 80.767C78.1735 78.8084 79.1213 77.9238 81.0799 77.9238C84.7445 77.9238 88.409 77.9238 92.0736 77.9238C94.1586 77.9238 94.7272 79.1243 94.664 80.9566C94.6009 82.852 93.6531 83.4839 91.884 83.4207C90.1149 83.3575 88.2826 83.4207 86.5135 83.4207Z" fill="url(#paint6_linear_423_6126)"/>
<path d="M58.6503 75.207C56.5021 69.5838 52.5848 67.0565 46.8352 67.4356C45.5716 67.4988 44.3079 67.4988 43.0443 67.4356C37.1684 67.0565 33.0615 69.3943 31.0397 75.0175C24.6583 69.9629 24.4688 58.3374 30.5974 51.1346C37.5474 42.9842 49.552 42.2892 57.5762 49.5551C64.9685 56.3156 65.6003 68.257 58.6503 75.207ZM52.5848 56.4419C52.5216 52.2719 48.9202 48.7337 44.687 48.6705C40.6434 48.6705 37.042 52.2087 37.042 56.3156C36.9156 60.3592 40.7697 64.2765 44.7502 64.2765C48.7939 64.2765 52.648 60.4224 52.5848 56.4419Z" fill="url(#paint7_linear_423_6126)"/>
<path d="M44.8766 70.5947C46.2666 70.5947 47.5934 70.5315 48.9834 70.5947C52.3952 70.8475 54.733 72.6797 55.428 76.0284C55.6175 76.9129 54.9857 78.5557 54.2907 78.9348C48.162 82.4098 41.9702 82.473 35.652 79.1243C33.8829 78.1766 33.6301 76.9761 34.3883 75.2702C35.5256 72.4902 37.4843 70.7843 40.517 70.5947C41.907 70.5315 43.3602 70.5947 44.8766 70.5947Z" fill="url(#paint8_linear_423_6126)"/>
<path d="M44.6238 51.7665C47.3407 51.7665 49.4889 53.8515 49.4889 56.4419C49.4889 58.9692 47.1511 61.307 44.687 61.1806C42.1597 61.1174 40.0115 58.7797 40.0115 56.2524C40.0747 53.7251 42.0966 51.7665 44.6238 51.7665Z" fill="url(#paint9_linear_423_6126)"/>
<defs>
<linearGradient id="paint0_linear_423_6126" x1="55.9188" y1="0.466492" x2="55.9188" y2="106.874" gradientUnits="userSpaceOnUse">
<stop stop-color="#6A1B9A"/>
<stop offset="1" stop-color="#F2B9CB"/>
</linearGradient>
<linearGradient id="paint1_linear_423_6126" x1="55.9188" y1="0.466492" x2="55.9188" y2="106.874" gradientUnits="userSpaceOnUse">
<stop stop-color="#6A1B9A"/>
<stop offset="1" stop-color="#F2B9CB"/>
</linearGradient>
<linearGradient id="paint2_linear_423_6126" x1="55.9188" y1="0.466492" x2="55.9188" y2="106.874" gradientUnits="userSpaceOnUse">
<stop stop-color="#6A1B9A"/>
<stop offset="1" stop-color="#F2B9CB"/>
</linearGradient>
<linearGradient id="paint3_linear_423_6126" x1="55.9188" y1="0.466492" x2="55.9188" y2="106.874" gradientUnits="userSpaceOnUse">
<stop stop-color="#6A1B9A"/>
<stop offset="1" stop-color="#F2B9CB"/>
</linearGradient>
<linearGradient id="paint4_linear_423_6126" x1="55.9188" y1="0.466492" x2="55.9188" y2="106.874" gradientUnits="userSpaceOnUse">
<stop stop-color="#6A1B9A"/>
<stop offset="1" stop-color="#F2B9CB"/>
</linearGradient>
<linearGradient id="paint5_linear_423_6126" x1="55.9188" y1="0.466492" x2="55.9188" y2="106.874" gradientUnits="userSpaceOnUse">
<stop stop-color="#6A1B9A"/>
<stop offset="1" stop-color="#F2B9CB"/>
</linearGradient>
<linearGradient id="paint6_linear_423_6126" x1="55.9188" y1="0.466492" x2="55.9188" y2="106.874" gradientUnits="userSpaceOnUse">
<stop stop-color="#6A1B9A"/>
<stop offset="1" stop-color="#F2B9CB"/>
</linearGradient>
<linearGradient id="paint7_linear_423_6126" x1="55.9188" y1="0.466492" x2="55.9188" y2="106.874" gradientUnits="userSpaceOnUse">
<stop stop-color="#6A1B9A"/>
<stop offset="1" stop-color="#F2B9CB"/>
</linearGradient>
<linearGradient id="paint8_linear_423_6126" x1="55.9188" y1="0.466492" x2="55.9188" y2="106.874" gradientUnits="userSpaceOnUse">
<stop stop-color="#6A1B9A"/>
<stop offset="1" stop-color="#F2B9CB"/>
</linearGradient>
<linearGradient id="paint9_linear_423_6126" x1="55.9188" y1="0.466492" x2="55.9188" y2="106.874" gradientUnits="userSpaceOnUse">
<stop stop-color="#6A1B9A"/>
<stop offset="1" stop-color="#F2B9CB"/>
</linearGradient>
</defs>
</svg>
