<svg width="111" height="111" viewBox="0 0 111 111" fill="none" xmlns="http://www.w3.org/2000/svg">
<path d="M87.1072 85.2534C87.1072 88.2792 87.1537 91.5378 87.1072 94.7963C87.0606 100.941 82.4986 105.503 76.3539 105.55C71.0006 105.596 65.9265 104.525 60.9456 102.57C60.2473 102.291 59.2232 102.71 58.3853 102.757C58.9439 103.362 59.3629 104.339 60.0611 104.572C64.5766 106.015 69.1385 107.319 74.0264 108.762C74.0264 108.901 74.0264 109.693 74.0264 110.67C60.7594 110.67 47.5855 110.67 34.1789 110.67C34.1789 106.201 34.2254 101.872 34.1789 97.5894C34.1323 94.517 34.4582 91.305 33.7599 88.3258C32.922 84.8344 31.4324 81.4828 29.8031 78.2242C23.6584 65.8883 23.798 53.8316 31.7582 42.4266C34.3185 38.7491 36.9254 35.3043 38.6943 31.0217C41.7201 23.6666 50.1924 19.1512 57.5474 20.0357C66.5317 21.1529 73.2816 27.1579 75.0505 35.5836C75.2367 36.375 75.4695 37.306 76.0281 37.8181C82.9641 44.0094 86.3158 51.9695 87.0141 60.9539C87.4796 67.1917 89.4813 72.6847 92.5071 77.9915C93.8105 80.319 93.8105 82.5069 92.0881 83.6707C90.7381 84.5551 89.0623 84.6948 87.1072 85.2534ZM55.9181 57.6953C57.687 57.6953 59.5025 57.6488 61.2715 57.6953C62.4818 57.7419 63.1335 57.416 63.8317 56.2988C64.8093 54.6695 66.0662 53.1333 67.4162 51.7833C70.6747 48.5248 72.6764 44.7076 72.8161 40.0525C73.0023 32.8371 69.8368 27.3907 63.4593 24.2252C56.9422 20.9667 50.5648 21.8512 45.0252 26.5528C39.5322 31.2079 37.9029 37.2595 39.7184 44.1956C40.7425 48.1058 44.1873 50.4799 46.0959 53.6919C48.47 57.6488 51.4027 58.1143 55.2198 57.6953C55.4526 57.6488 55.6854 57.6953 55.9181 57.6953ZM55.9647 64.4452C58.2922 64.4452 60.6197 64.4452 62.9007 64.4452C64.3904 64.4452 65.7869 64.1193 65.7403 62.2107C65.6938 60.4418 64.3904 60.1625 62.9473 60.1625C58.2456 60.1625 53.4975 60.1625 48.7958 60.1625C47.3527 60.1625 46.0959 60.5349 46.0493 62.2573C46.0493 64.0262 47.2596 64.3986 48.7027 64.4452C51.1699 64.4917 53.544 64.4452 55.9647 64.4452ZM55.825 73.9415C57.3146 73.9415 58.7577 74.0347 60.2473 73.895C60.7594 73.8484 61.2715 73.2433 61.737 72.8709C61.2715 72.4519 60.8059 71.7071 60.3404 71.7071C57.4077 71.614 54.475 71.614 51.5423 71.7071C51.0768 71.7071 50.6113 72.4985 50.1458 72.9174C50.6579 73.2898 51.1234 73.8484 51.682 73.9415C53.032 74.0346 54.4285 73.9415 55.825 73.9415Z" fill="url(#paint0_linear_419_6105)"/>
<path d="M85.3382 29.4389C73.5143 26.5528 71.9316 24.2718 74.4919 13.6117C73.1419 13.9841 71.9781 14.2634 70.8609 14.6358C62.8076 17.2892 58.2922 15.0547 55.4526 6.95488C55.406 6.76868 55.3129 6.58247 55.1733 6.34972C51.9613 14.822 50.4251 15.4737 37.3909 14.0306C38.4615 17.8478 39.2995 21.6184 36.8323 25.1563C34.3651 28.6941 30.4082 28.6941 26.4514 29.3458C27.941 31.4872 29.3376 33.3027 30.5013 35.2578C30.8272 35.8164 30.5944 36.7009 30.5944 37.4457C29.8962 37.1664 29.0117 37.0267 28.5462 36.5147C27.1962 34.8854 26.0325 33.163 24.8687 31.4406C23.4256 29.2993 24.1239 27.5304 26.5911 26.8786C27.3359 26.6924 28.1273 26.5528 28.8721 26.4597C34.6909 25.808 37.065 22.4563 35.6685 16.8237C34.272 11.0979 34.784 10.6324 40.4167 11.9824C41.9063 12.3548 43.489 12.541 45.0252 12.4944C49.3079 12.4013 51.7751 10.2134 52.5199 6.02386C52.7992 4.44113 53.1716 3.04461 55.0802 2.99806C56.8957 2.95151 57.2215 4.48768 57.687 5.79111C58.1991 7.14108 58.6181 8.58416 59.3629 9.84103C61.2249 12.8668 64.1576 13.9375 67.6024 13.053C69.604 12.541 71.6057 11.7496 73.6074 11.3772C76.3074 10.8652 77.378 12.122 76.7263 14.822C76.4005 16.265 75.935 17.6616 75.7953 19.1047C75.516 23.2477 77.7505 25.808 81.94 26.3666C83.1503 26.5062 84.4538 26.5993 85.6175 26.9717C87.6192 27.6235 88.2244 29.2527 87.1072 31.0217C85.8037 33.0234 84.3607 34.9785 82.871 36.8405C82.5452 37.2595 81.7073 37.2595 81.1021 37.4457C81.0556 36.794 80.7297 35.9095 81.0556 35.4906C82.359 33.4889 83.8021 31.6268 85.3382 29.4389Z" fill="url(#paint1_linear_419_6105)"/>
<path d="M24.3101 46.3369C24.3101 52.9471 19.0964 58.1143 12.5327 58.1143C5.96905 58.0677 0.801906 52.8075 0.848457 46.1972C0.895007 39.7267 6.06215 34.5595 12.5327 34.513C19.0033 34.4664 24.3101 39.7732 24.3101 46.3369ZM3.2691 46.1507C3.176 51.4575 7.27247 55.6936 12.4862 55.7402C17.6068 55.7867 21.8429 51.6437 21.936 46.5231C22.0291 41.2163 17.9326 37.0267 12.6724 36.9802C7.45868 36.9336 3.31565 40.937 3.2691 46.1507Z" fill="url(#paint2_linear_419_6105)"/>
<path d="M87.5261 46.2903C87.5261 39.7732 92.8795 34.4199 99.35 34.513C105.821 34.6061 110.941 39.7732 110.988 46.2438C111.034 52.854 105.821 58.0677 99.2569 58.0677C92.6933 58.1143 87.5261 52.9006 87.5261 46.2903ZM108.567 46.43C108.614 41.0766 104.564 36.9802 99.2104 36.9802C93.9967 36.9802 89.9002 41.0766 89.8537 46.1972C89.8071 51.4575 93.9967 55.6936 99.2104 55.6936C104.424 55.7402 108.567 51.5971 108.567 46.43Z" fill="url(#paint3_linear_419_6105)"/>
<path d="M18.1188 21.8046C12.1603 21.8512 7.45868 17.2426 7.45868 11.2841C7.41213 5.3256 12.0672 0.670516 18.0257 0.670516C23.8911 0.670516 28.4997 5.2325 28.5928 11.0514C28.6393 17.0564 24.0308 21.758 18.1188 21.8046ZM18.0723 3.09116C13.5103 3.04461 9.87932 6.53592 9.83277 11.0514C9.73967 15.6599 13.3706 19.4305 17.9326 19.4305C22.448 19.4771 26.1256 15.8926 26.1721 11.4238C26.2187 6.72213 22.7274 3.13771 18.0723 3.09116Z" fill="url(#paint4_linear_419_6105)"/>
<path d="M20.3067 13.5651C18.724 15.1013 17.4671 15.1013 15.8844 13.5651C15.4189 13.0996 14.6741 13.1461 14.2551 13.6116C13.7896 14.0772 13.8361 14.822 14.3017 15.2409C15.512 16.4513 16.8154 17.0099 18.1188 17.0099C19.4222 17.0099 20.7257 16.4047 21.936 15.2409C22.4015 14.7754 22.4015 14.0772 21.9825 13.6116C21.517 13.0996 20.7722 13.0996 20.3067 13.5651Z" fill="url(#paint5_linear_419_6105)"/>
<path d="M15.093 10.9117C15.7447 10.9117 16.2568 10.3996 16.2568 9.74793V8.91002C16.2568 8.2583 15.7447 7.74624 15.093 7.74624C14.4413 7.74624 13.9292 8.2583 13.9292 8.91002V9.74793C13.9292 10.3531 14.4413 10.9117 15.093 10.9117Z" fill="url(#paint6_linear_419_6105)"/>
<path d="M21.1446 7.74624C20.4929 7.74624 19.9809 8.2583 19.9809 8.91002V9.74793C19.9809 10.3996 20.4929 10.9117 21.1446 10.9117C21.7963 10.9117 22.3084 10.3996 22.3084 9.74793V8.91002C22.3084 8.2583 21.7498 7.74624 21.1446 7.74624Z" fill="url(#paint7_linear_419_6105)"/>
<path d="M14.8603 48.8041C13.2775 50.3403 12.0207 50.3403 10.4379 48.8041C9.97242 48.3386 9.22761 48.3851 8.80865 48.8506C8.34314 49.3161 8.38969 50.061 8.8552 50.4799C10.0655 51.6902 11.3689 52.2489 12.6724 52.2489C13.9758 52.2489 15.2792 51.6437 16.4895 50.4799C16.955 50.0144 16.955 49.3161 16.5361 48.8506C16.024 48.3386 15.3258 48.3386 14.8603 48.8041Z" fill="url(#paint8_linear_419_6105)"/>
<path d="M9.60001 46.1507C10.2517 46.1507 10.7638 45.6386 10.7638 44.9869V44.149C10.7638 43.4973 10.2517 42.9852 9.60001 42.9852C8.9483 42.9852 8.43624 43.4973 8.43624 44.149V44.9869C8.43624 45.6386 8.99485 46.1507 9.60001 46.1507Z" fill="url(#paint9_linear_419_6105)"/>
<path d="M15.6516 42.9852C14.9999 42.9852 14.4879 43.4973 14.4879 44.149V44.9869C14.4879 45.6386 14.9999 46.1507 15.6516 46.1507C16.3033 46.1507 16.8154 45.6386 16.8154 44.9869V44.149C16.8154 43.4973 16.3033 42.9852 15.6516 42.9852Z" fill="url(#paint10_linear_419_6105)"/>
<path d="M96.4639 12.9134C94.8812 14.4496 93.6243 14.4496 92.0416 12.9134C91.576 12.4479 90.8312 12.4944 90.4123 12.9599C89.9468 13.4254 89.9933 14.1703 90.4588 14.5892C91.6692 15.7995 92.9726 16.3582 94.276 16.3582C95.5794 16.3582 96.8828 15.753 98.0932 14.5892C98.5587 14.1237 98.5587 13.4254 98.1397 12.9599C97.6277 12.4944 96.9294 12.4944 96.4639 12.9134Z" fill="url(#paint11_linear_419_6105)"/>
<path d="M91.2036 10.26C91.8554 10.26 92.3674 9.74793 92.3674 9.09622V8.2583C92.3674 7.60659 91.8554 7.09453 91.2036 7.09453C90.5519 7.09453 90.0399 7.60659 90.0399 8.2583V9.09622C90.0399 9.74793 90.5985 10.26 91.2036 10.26Z" fill="url(#paint12_linear_419_6105)"/>
<path d="M97.2553 7.14108C96.6035 7.14108 96.0915 7.65314 96.0915 8.30485V9.14277C96.0915 9.79448 96.6035 10.3065 97.2553 10.3065C97.907 10.3065 98.419 9.79448 98.419 9.14277V8.30485C98.419 7.65314 97.907 7.14108 97.2553 7.14108Z" fill="url(#paint13_linear_419_6105)"/>
<path d="M101.491 48.3386C99.9087 49.8748 98.6518 49.8748 97.069 48.3386C96.6035 47.8731 95.8587 47.9196 95.4398 48.3851C94.9743 48.8506 95.0208 49.5955 95.4863 50.0144C96.6966 51.2247 98.0001 51.7833 99.3035 51.7833C100.607 51.7833 101.91 51.1782 103.121 50.0144C103.586 49.5489 103.586 48.8506 103.167 48.3851C102.655 47.9196 101.957 47.8731 101.491 48.3386Z" fill="url(#paint14_linear_419_6105)"/>
<path d="M96.2311 45.6852C96.8828 45.6852 97.3949 45.1731 97.3949 44.5214V43.6835C97.3949 43.0318 96.8828 42.5197 96.2311 42.5197C95.5794 42.5197 95.0674 43.0318 95.0674 43.6835V44.5214C95.0674 45.1731 95.626 45.6852 96.2311 45.6852Z" fill="url(#paint15_linear_419_6105)"/>
<path d="M102.283 42.5197C101.631 42.5197 101.119 43.0318 101.119 43.6835V44.5214C101.119 45.1731 101.631 45.6852 102.283 45.6852C102.934 45.6852 103.447 45.1731 103.447 44.5214V43.6835C103.447 43.0783 102.934 42.5197 102.283 42.5197Z" fill="url(#paint16_linear_419_6105)"/>
<path d="M104.424 11.1445C104.471 17.103 99.8155 21.758 93.9036 21.8046C87.9451 21.8046 83.3365 17.1495 83.3365 11.191C83.3365 5.3256 87.8985 0.717066 93.7639 0.670516C99.6759 0.623965 104.378 5.2325 104.424 11.1445ZM94.0432 3.09116C89.4347 3.04461 85.8037 6.44282 85.7106 10.9117C85.6175 15.5668 89.1089 19.3374 93.6708 19.4305C98.1863 19.5236 101.91 15.9857 102.05 11.5169C102.143 6.86178 98.6518 3.13771 94.0432 3.09116Z" fill="url(#paint17_linear_419_6105)"/>
<path d="M55.9181 50.8058C49.5872 50.8058 44.3269 45.5921 44.3735 39.3077C44.3735 33.0234 49.6337 27.8097 55.9647 27.8097C62.2956 27.8097 67.5093 33.0234 67.5093 39.3077C67.5093 45.6386 62.249 50.8058 55.9181 50.8058ZM55.825 48.3851C60.9456 48.4317 65.0421 44.4283 65.0886 39.3543C65.1352 34.3733 60.899 30.1372 55.9181 30.1838C50.9372 30.1838 46.7476 34.4199 46.7941 39.4008C46.8407 44.3818 50.8441 48.3386 55.825 48.3851Z" fill="url(#paint18_linear_419_6105)"/>
<path d="M54.7078 40.4715C53.4044 40.4715 52.3802 40.5646 51.4492 40.4249C50.9837 40.3318 50.5648 39.8198 50.0993 39.4939C50.5182 39.0284 50.8906 38.2836 51.4027 38.1905C52.3337 37.9577 53.4044 38.1439 54.7078 38.1439C54.7078 36.9802 54.5681 36.0026 54.7543 35.0716C54.8474 34.513 55.4526 34.0475 55.825 33.4889C56.244 34.0009 56.9422 34.513 57.0819 35.1181C57.3146 36.0026 57.1284 36.9336 57.1284 38.1439C58.2456 38.1439 59.1767 38.0043 60.0611 38.1905C60.7128 38.3301 61.2249 38.9353 61.7835 39.3543C61.2249 39.7267 60.7128 40.3318 60.1077 40.4715C59.2232 40.6577 58.2922 40.518 57.1284 40.518C57.1284 41.7749 57.2681 42.799 57.0819 43.7766C56.9888 44.2887 56.3371 44.7076 55.9181 45.1731C55.5457 44.7076 54.894 44.2887 54.8009 43.73C54.5681 42.7059 54.7078 41.7284 54.7078 40.4715Z" fill="url(#paint19_linear_419_6105)"/>
<defs>
<linearGradient id="paint0_linear_419_6105" x1="55.9181" y1="0.670166" x2="55.9181" y2="110.67" gradientUnits="userSpaceOnUse">
<stop stop-color="#6A1B9A"/>
<stop offset="1" stop-color="#F2B9CB"/>
</linearGradient>
<linearGradient id="paint1_linear_419_6105" x1="55.9181" y1="0.670166" x2="55.9181" y2="110.67" gradientUnits="userSpaceOnUse">
<stop stop-color="#6A1B9A"/>
<stop offset="1" stop-color="#F2B9CB"/>
</linearGradient>
<linearGradient id="paint2_linear_419_6105" x1="55.9181" y1="0.670166" x2="55.9181" y2="110.67" gradientUnits="userSpaceOnUse">
<stop stop-color="#6A1B9A"/>
<stop offset="1" stop-color="#F2B9CB"/>
</linearGradient>
<linearGradient id="paint3_linear_419_6105" x1="55.9181" y1="0.670166" x2="55.9181" y2="110.67" gradientUnits="userSpaceOnUse">
<stop stop-color="#6A1B9A"/>
<stop offset="1" stop-color="#F2B9CB"/>
</linearGradient>
<linearGradient id="paint4_linear_419_6105" x1="55.9181" y1="0.670166" x2="55.9181" y2="110.67" gradientUnits="userSpaceOnUse">
<stop stop-color="#6A1B9A"/>
<stop offset="1" stop-color="#F2B9CB"/>
</linearGradient>
<linearGradient id="paint5_linear_419_6105" x1="55.9181" y1="0.670166" x2="55.9181" y2="110.67" gradientUnits="userSpaceOnUse">
<stop stop-color="#6A1B9A"/>
<stop offset="1" stop-color="#F2B9CB"/>
</linearGradient>
<linearGradient id="paint6_linear_419_6105" x1="55.9181" y1="0.670166" x2="55.9181" y2="110.67" gradientUnits="userSpaceOnUse">
<stop stop-color="#6A1B9A"/>
<stop offset="1" stop-color="#F2B9CB"/>
</linearGradient>
<linearGradient id="paint7_linear_419_6105" x1="55.9181" y1="0.670166" x2="55.9181" y2="110.67" gradientUnits="userSpaceOnUse">
<stop stop-color="#6A1B9A"/>
<stop offset="1" stop-color="#F2B9CB"/>
</linearGradient>
<linearGradient id="paint8_linear_419_6105" x1="55.9181" y1="0.670166" x2="55.9181" y2="110.67" gradientUnits="userSpaceOnUse">
<stop stop-color="#6A1B9A"/>
<stop offset="1" stop-color="#F2B9CB"/>
</linearGradient>
<linearGradient id="paint9_linear_419_6105" x1="55.9181" y1="0.670166" x2="55.9181" y2="110.67" gradientUnits="userSpaceOnUse">
<stop stop-color="#6A1B9A"/>
<stop offset="1" stop-color="#F2B9CB"/>
</linearGradient>
<linearGradient id="paint10_linear_419_6105" x1="55.9181" y1="0.670166" x2="55.9181" y2="110.67" gradientUnits="userSpaceOnUse">
<stop stop-color="#6A1B9A"/>
<stop offset="1" stop-color="#F2B9CB"/>
</linearGradient>
<linearGradient id="paint11_linear_419_6105" x1="55.9181" y1="0.670166" x2="55.9181" y2="110.67" gradientUnits="userSpaceOnUse">
<stop stop-color="#6A1B9A"/>
<stop offset="1" stop-color="#F2B9CB"/>
</linearGradient>
<linearGradient id="paint12_linear_419_6105" x1="55.9181" y1="0.670166" x2="55.9181" y2="110.67" gradientUnits="userSpaceOnUse">
<stop stop-color="#6A1B9A"/>
<stop offset="1" stop-color="#F2B9CB"/>
</linearGradient>
<linearGradient id="paint13_linear_419_6105" x1="55.9181" y1="0.670166" x2="55.9181" y2="110.67" gradientUnits="userSpaceOnUse">
<stop stop-color="#6A1B9A"/>
<stop offset="1" stop-color="#F2B9CB"/>
</linearGradient>
<linearGradient id="paint14_linear_419_6105" x1="55.9181" y1="0.670166" x2="55.9181" y2="110.67" gradientUnits="userSpaceOnUse">
<stop stop-color="#6A1B9A"/>
<stop offset="1" stop-color="#F2B9CB"/>
</linearGradient>
<linearGradient id="paint15_linear_419_6105" x1="55.9181" y1="0.670166" x2="55.9181" y2="110.67" gradientUnits="userSpaceOnUse">
<stop stop-color="#6A1B9A"/>
<stop offset="1" stop-color="#F2B9CB"/>
</linearGradient>
<linearGradient id="paint16_linear_419_6105" x1="55.9181" y1="0.670166" x2="55.9181" y2="110.67" gradientUnits="userSpaceOnUse">
<stop stop-color="#6A1B9A"/>
<stop offset="1" stop-color="#F2B9CB"/>
</linearGradient>
<linearGradient id="paint17_linear_419_6105" x1="55.9181" y1="0.670166" x2="55.9181" y2="110.67" gradientUnits="userSpaceOnUse">
<stop stop-color="#6A1B9A"/>
<stop offset="1" stop-color="#F2B9CB"/>
</linearGradient>
<linearGradient id="paint18_linear_419_6105" x1="55.9181" y1="0.670166" x2="55.9181" y2="110.67" gradientUnits="userSpaceOnUse">
<stop stop-color="#6A1B9A"/>
<stop offset="1" stop-color="#F2B9CB"/>
</linearGradient>
<linearGradient id="paint19_linear_419_6105" x1="55.9181" y1="0.670166" x2="55.9181" y2="110.67" gradientUnits="userSpaceOnUse">
<stop stop-color="#6A1B9A"/>
<stop offset="1" stop-color="#F2B9CB"/>
</linearGradient>
</defs>
</svg>
